<?xml version="1.0" standalone="no"?>
<!DOCTYPE svg PUBLIC "-//W3C//DTD SVG 20010904//EN" "http://www.w3.org/TR/2001/REC-SVG-20010904/DTD/svg10.dtd">
<!-- Created using Krita: https://krita.org -->
<svg xmlns="http://www.w3.org/2000/svg" 
    xmlns:xlink="http://www.w3.org/1999/xlink"
    xmlns:krita="http://krita.org/namespaces/svg/krita"
    xmlns:sodipodi="http://sodipodi.sourceforge.net/DTD/sodipodi-0.dtd"
    width="212.16pt"
    height="133.44pt"
    viewBox="0 0 212.16 133.44">
<defs/>
<path id="shape0" transform="translate(21.6, 17.28)" fill="#30fffd" fill-rule="evenodd" d="M0 71.28L5.04 35.64L97.44 38.16L107.64 0L153.72 32.76L168.48 53.64L159.84 62.4L103.68 100.44L92.88 75.6Z"/><path id="shape1" transform="translate(10.2181447572602, 9.40633223932343)" fill="#9ffffe" d="M2.8997 83.3158C-1.15651 80.3923 -0.957233 76.7031 3.49754 72.2483C3.67814 72.3077 3.79814 72.3077 3.85754 72.2483C4.17878 71.9271 4.14482 71.03 4.57754 71.1683C4.99519 71.3019 4.18641 72.7519 4.09276 72.3235C3.5377 69.7847 3.32379 67.5467 3.21805 64.95C3.06766 61.2569 3.19735 58.083 3.36249 54.3905C3.37508 54.1091 3.60279 53.9256 3.72249 53.6705C4.42745 52.1684 4.92125 50.8256 5.71855 49.3704C5.7791 49.2599 6.15508 49.2703 6.07855 49.3704C5.45648 50.1841 5.1021 51.6083 4.08249 51.5105C3.21861 51.4277 4.85045 50.0893 5.17276 49.2835C5.24622 49.0999 4.80942 49.9082 4.80249 49.7105C4.79262 49.4289 5.0747 49.2582 5.16249 48.9905C5.33172 48.4744 5.33491 47.9894 5.53276 47.4835C5.59767 47.3176 5.7978 47.2743 5.89276 47.1235C6.49556 46.1664 6.86312 45.2523 7.51855 44.3304C7.59156 44.2277 7.82221 44.4431 7.87855 44.3304C7.99125 44.105 7.76586 43.8358 7.87855 43.6104C7.9349 43.4977 8.30421 43.5028 8.23855 43.6104C7.75803 44.3974 5.90663 46.2766 6.61276 45.6835C8.28771 44.2769 9.62506 42.9395 11.0317 41.2646C11.6248 40.5584 9.70708 42.3518 8.95855 42.8904C8.60268 43.1464 8.22664 43.2597 7.88197 43.5307C7.66048 43.7048 8.41782 43.3839 8.60197 43.1707C9.06623 42.6331 9.1469 41.9214 9.67855 41.4504C10.2922 40.9067 12.0089 39.593 11.7589 40.3738C11.2307 42.0228 10.494 44.3164 8.76249 44.3105C7.21658 44.3052 9.75025 41.5422 10.7586 40.3704C11.4963 39.5129 12.611 39.3727 13.5517 38.7446C13.8481 38.5467 13.953 38.1839 14.2717 38.0246C14.4971 37.9119 14.7527 38.1043 14.9917 38.0246C15.1608 37.9682 15.1858 37.7295 15.3517 37.6646C15.8575 37.4667 16.3426 37.4635 16.8587 37.2943C17.1264 37.2065 17.2971 36.9244 17.5787 36.9343C17.7764 36.9412 17.3473 37.2746 17.1517 37.3046C16.9756 37.3316 17.3389 36.9878 17.5117 36.9446C17.8784 36.8529 18.225 37.0362 18.5917 36.9446C18.7646 36.9014 18.7735 36.5864 18.9517 36.5846C31.4182 36.4598 42.1055 36.4598 54.572 36.5846C54.7502 36.5864 54.7538 36.9451 54.932 36.9446C56.0501 36.9413 56.9869 36.5773 58.105 36.5743C58.3867 36.5736 58.5436 36.9214 58.825 36.9343C64.1364 37.1781 68.7008 37.0551 74.012 37.3046C74.19 37.3129 74.1947 37.6468 74.372 37.6646C75.5004 37.7774 76.4836 37.5517 77.612 37.6646C77.7893 37.6823 77.794 38.0155 77.972 38.0246C79.5284 38.1041 80.8649 37.89 82.4232 37.9105C90.4423 38.016 97.3173 38.0973 105.332 38.3846C105.51 38.391 105.515 38.7249 105.692 38.7446C106.694 38.8559 107.57 38.6333 108.572 38.7446C108.749 38.7642 109.054 38.9751 108.932 39.1046C108.764 39.2827 108.225 39.3496 108.232 39.1046C108.242 38.7483 108.655 38.5823 108.952 38.3846C109.057 38.3147 109.207 38.4545 109.312 38.3846C109.608 38.1869 110.328 37.4663 110.032 37.6646C109.265 38.1775 108.804 38.9212 107.959 39.2904C107.728 39.3913 107.766 38.7324 107.959 38.5704C108.825 37.8429 111.205 35.908 110.752 36.9446C110.019 38.6223 108.479 39.4951 107.053 40.6435C106.856 40.8016 106.94 40.1489 107.053 39.9235C107.212 39.6048 107.613 39.5223 107.773 39.2035C107.885 38.9781 107.693 38.7226 107.773 38.4835C107.829 38.3145 108.098 38.2983 108.133 38.1235C108.232 37.6293 108.034 37.1778 108.133 36.6835C108.168 36.5088 108.398 36.4743 108.493 36.3235C109.096 35.3664 109.463 34.4523 110.119 33.5304C110.192 33.4277 110.53 33.6452 110.479 33.5304C109.883 32.212 108.993 31.2643 108.482 29.9105C108.383 29.6469 108.809 29.4703 108.842 29.1905C108.938 28.3864 108.938 27.681 108.842 26.8768C108.809 26.597 108.482 26.4386 108.482 26.1568C108.486 21.6493 108.604 17.7842 108.853 13.2835C108.863 13.1056 109.197 13.101 109.213 12.9235C109.327 11.6687 109.099 10.5784 109.213 9.32354C109.229 9.14608 109.538 9.13827 109.573 8.96354C109.672 8.46933 109.474 8.01775 109.573 7.52354C109.608 7.34881 109.838 7.31432 109.933 7.16354C110.536 6.20638 110.903 5.29228 111.559 4.37037C111.632 4.26767 111.984 4.26283 111.919 4.37037C111.438 5.15739 110.841 5.7019 110.293 6.44354C110.187 6.58686 110.558 6.23432 110.653 6.08354C111.256 5.12638 111.479 4.09022 112.279 3.29037C113.078 2.49052 114.131 2.29271 115.072 1.66457C115.368 1.46667 115.457 1.06823 115.792 0.944571C116.533 0.670409 117.252 0.764352 118.019 0.5743C118.292 0.506533 118.46 0.25456 118.739 0.2143C119.837 0.0557839 120.794 -0.0364139 121.902 0.0136678C123.672 0.0936597 125.203 0.196452 126.932 0.584572C127.28 0.662636 127.389 1.06355 127.652 1.30457C127.712 1.35946 127.441 1.08262 127.514 1.11854C128.736 1.72186 129.795 2.22412 130.957 2.9363C132.627 3.96001 133.943 5.01633 135.594 6.07112C136.251 6.49126 136.881 6.73922 137.546 7.14684C138.46 7.70672 139.206 8.24545 140.102 8.83329C141.012 9.42994 141.871 9.83345 142.705 10.5311C143.054 10.8224 143.876 11.6703 143.425 11.6111C142.439 11.4813 141.632 10.9736 140.905 10.2943C140.508 9.92357 141.938 10.399 142.412 10.6646C142.878 10.926 143.054 11.4384 143.492 11.7446C144.419 12.3924 145.363 12.7149 146.285 13.3704C146.388 13.4434 146.393 13.796 146.285 13.7304C145.498 13.2498 143.474 11.5513 144.212 12.1046C145.454 13.0358 146.628 13.7129 147.725 14.8104C148.205 15.29 146.431 14.4378 146.012 13.9046C145.68 13.4823 147.014 14.1332 147.445 14.4538C148.143 14.9734 148.513 15.6739 149.165 16.2504C149.376 16.4369 149.71 16.3895 149.885 16.6104C150.803 17.7697 151.465 18.8589 152.231 20.1235C152.296 20.2313 152.155 20.3827 152.231 20.4835C152.552 20.9112 153.05 21.0972 153.311 21.5635C153.577 22.0373 154.052 23.4672 153.681 23.0705C152.893 22.2283 151.884 21.3524 152.045 20.2104C152.167 19.3483 153.391 21.186 153.842 21.9307C154.245 22.5958 154.388 23.3059 154.391 24.0835C154.393 24.5942 153.46 22.3951 153.845 22.7304C155.04 23.77 156.364 24.6422 156.786 26.1683C157.075 27.2106 154.569 25.3901 154.292 24.3446C154.078 23.5361 155.855 24.6911 156.527 25.1894C156.847 25.4267 157.269 26.1563 156.887 26.2694C156.407 26.4114 155.369 25.0794 155.732 25.4246C156.925 26.5594 158.101 27.3667 159.265 28.5311C159.555 28.8209 158.557 28.2183 158.252 27.9446C158.158 27.8604 158.519 27.859 158.612 27.9446C160.218 29.4295 161.546 30.7576 163.031 32.3635C163.116 32.4561 163.124 32.808 163.031 32.7235C161.672 31.4967 159.798 30.7951 159.332 29.0246C159.016 27.8238 161.573 29.8074 162.485 30.6504C163.316 31.4183 163.483 32.5028 164.111 33.4435C164.309 33.7399 165.029 34.4597 164.831 34.1635C164.318 33.3973 163.744 32.8389 163.205 32.0904C162.949 31.7345 162.2 30.7706 162.565 31.0138C163.289 31.4967 163.638 32.2284 164.285 32.8104C164.623 33.114 165.748 33.2861 165.365 33.5304C164.935 33.805 164.46 33.2305 164.012 32.9846C163.902 32.9239 164.259 32.9282 164.372 32.9846C164.531 33.0643 164.577 33.2569 164.732 33.3446C165.813 33.9556 166.834 34.3087 167.885 34.9704C167.992 35.0375 167.993 35.396 167.885 35.3304C167.098 34.8498 166.578 34.2175 165.812 33.7046C165.516 33.5063 166.599 34.0746 166.532 34.4246C166.475 34.7235 165.485 33.8966 165.745 34.0543C167.36 35.0323 168.797 35.7822 170.405 36.7704C170.983 37.1254 169.256 36.2419 168.692 35.8646C168.587 35.7945 168.947 35.7947 169.052 35.8646C169.349 36.0623 169.476 36.3867 169.772 36.5846C170.713 37.2127 171.699 37.4829 172.565 38.2104C172.758 38.3724 172.788 39.0482 172.565 38.9304C171.834 38.544 171.456 37.8693 170.852 37.3046C170.722 37.1828 171.053 37.584 171.212 37.6646C171.691 37.9075 172.206 37.9035 172.645 38.2138C172.875 38.3766 172.993 38.6523 173.005 38.9338C173.014 39.1621 172.487 38.2267 172.652 38.3846C174.362 40.0188 175.735 41.5146 177.431 43.1635C178.024 43.7398 176.419 42.0043 175.805 41.4504C175.121 40.8325 174.474 40.3725 173.732 39.8246C173.589 39.7187 173.941 40.0896 174.092 40.1846C175.049 40.7874 176.03 41.0705 176.885 41.8104C177.422 42.275 177.528 42.9679 177.962 43.5307C178.479 44.2024 179.079 44.6474 179.591 45.3235C179.667 45.424 179.684 45.768 179.591 45.6835C178.232 44.4567 176.625 43.6623 175.892 41.9846C175.439 40.948 177.819 42.8829 178.685 43.6104C178.878 43.7724 178.916 44.4313 178.685 44.3304C177.84 43.9612 176.019 41.9984 176.612 42.7046C178.019 44.3795 179.546 45.5176 181.031 47.1235C181.116 47.2161 180.955 47.3827 181.031 47.4835C181.352 47.9112 181.79 48.1359 182.111 48.5635C182.187 48.6643 182.204 49.008 182.111 48.9235C180.752 47.6967 179.145 46.9023 178.412 45.2246C177.959 44.188 180.339 46.1229 181.205 46.8504C181.398 47.0124 181.027 47.3922 181.205 47.5704C181.383 47.7486 181.747 47.3922 181.925 47.5704C182.103 47.7486 182.156 48.3913 181.925 48.2904C181.08 47.9212 179.259 45.9584 179.852 46.6646C181.259 48.3395 182.691 49.5707 184.271 51.0835C184.498 51.3014 183.964 50.5714 183.722 50.3707C182.387 49.2673 179.779 49.1059 179.785 47.3743C179.79 45.8284 182.398 48.577 183.725 49.3704C183.833 49.435 183.636 49.6413 183.725 49.7304C183.814 49.8195 183.996 49.6413 184.085 49.7304C184.174 49.8195 183.996 50.0013 184.085 50.0904C184.174 50.1795 184.378 49.9837 184.445 50.0904C185.107 51.141 185.46 52.1626 186.071 53.2435C186.159 53.3987 186.396 53.4288 186.431 53.6035C186.728 55.0959 186.833 56.4014 187.002 57.9137C187.042 58.2695 186.626 57.2225 186.801 56.9105C186.939 56.665 187.145 57.3492 187.161 57.6305C187.273 59.5896 187.273 61.2778 187.161 63.2368C187.145 63.5181 186.915 63.6989 186.801 63.9568C186.091 65.5721 185.594 67.0077 184.808 68.5877C184.713 68.7792 184.703 68.1663 184.802 67.9767C185.039 67.5222 185.801 66.3305 185.721 66.8368C185.587 67.6941 185.044 68.3005 184.631 69.0638C184.093 70.0587 183.733 70.9908 183.005 71.857C182.843 72.0499 182.425 71.6473 182.285 71.857C182.075 72.1715 182.521 72.6415 182.285 72.937C181.842 73.4922 180.275 74.6622 180.565 74.0135C181.27 72.4322 182.158 69.0621 183.561 70.0768C184.999 71.1166 182.459 73.204 181.565 74.737C181.438 74.9547 180.727 74.9597 180.845 74.737C181.232 74.0062 183.063 72.4467 182.471 73.0238C180.65 74.7996 179.098 76.3318 177.332 78.1628C177.113 78.3895 178.268 77.3908 178.045 77.6135C177.445 78.2131 176.96 78.7761 176.252 79.2428C175.935 79.4519 175.541 79.3349 175.195 79.4919C174.781 79.6795 174.53 80.0272 174.115 80.2119C173.853 80.3284 173.068 80.4948 173.305 80.333C174.116 79.7787 175.188 78.2923 175.805 79.057C176.409 79.8058 174.583 80.418 173.725 80.8535C172.35 81.5515 171.025 81.8133 169.543 82.2368C168.941 82.4089 170.696 81.2088 171.205 81.5735C171.639 81.8849 170.585 82.3818 170.125 82.6535C169.456 83.0487 168.703 83.0209 168.047 83.438C166.795 84.2345 166.015 85.3363 164.732 86.0828C164.156 86.4178 162.453 86.9762 162.865 86.453C163.937 85.0931 165.22 84.1622 166.802 83.4567C167.45 83.1672 166.282 84.7363 165.725 85.177C164.751 85.9473 163.618 86.134 162.572 86.8028C162.122 87.0907 161.95 87.6077 161.492 87.8828C161.276 88.0124 161.011 87.8031 160.772 87.8828C160.603 87.9391 160.576 88.1724 160.412 88.2428C160.063 88.3929 159.091 88.7651 159.355 88.4919C160.086 87.7351 161.858 85.7272 161.826 86.779C161.787 88.0703 160.353 88.7118 159.325 89.4935C158.802 89.8907 157.304 90.6581 157.532 90.0428C157.936 88.9525 159.047 88.4944 159.962 87.7767C160.061 87.6989 160.062 88.0605 159.962 88.1367C158.139 89.5187 156.373 90.4265 154.585 91.853C153.548 92.6799 156.79 90.7097 157.805 89.857C158.511 89.264 160.106 87.1553 159.431 87.7838C158.061 89.0598 157.305 90.5947 155.807 91.718C154.801 92.4727 156.741 89.0005 157.991 88.8638C159.115 88.7408 157.196 90.889 156.365 91.657C155.453 92.5 154.258 92.614 153.212 93.2828C152.762 93.5707 152.436 93.9231 152.132 94.3628C151.953 94.6218 152.566 93.9608 152.845 93.8135C153.173 93.6398 154.089 93.1768 153.845 93.457C153.27 94.1163 152.663 95.274 151.847 94.958C151.132 94.681 152.669 93.7955 153.122 93.1767C153.308 92.9224 153.888 92.236 153.671 92.4638C152.378 93.818 151.412 95.1168 150.047 96.398C149.351 97.0515 148.765 98.0287 147.812 97.9628C147.073 97.9117 148.55 96.7488 149.165 96.337C149.375 96.1968 149.373 96.9139 149.165 97.057C147.892 97.9344 145.23 100.599 145.225 99.053C145.219 97.3215 147.827 97.1601 149.162 96.0567C149.404 95.8559 149.96 95.1511 149.711 95.3438C147.461 97.0836 145.673 98.7512 143.425 100.493C143.325 100.57 142.96 100.562 143.065 100.493C144.03 99.8616 144.783 98.6962 145.925 98.857C146.787 98.9784 144.929 100.171 144.205 100.654C143.84 100.897 144.462 99.7903 144.845 99.577C145.065 99.4544 145.048 100.148 144.845 100.297C144.093 100.85 143.191 100.869 142.405 101.374C142.168 101.526 142.275 101.931 142.045 102.094C141.606 102.404 140.992 102.263 140.612 102.643C140.454 102.801 141.143 103.04 140.965 103.174C140.44 103.567 139.798 103.527 139.172 103.723C139.021 103.77 139.724 103.491 139.607 103.598C139.273 103.906 138.901 104.06 138.527 104.318C137.741 104.86 137.11 105.39 136.292 105.883C136.184 105.948 136.045 105.826 135.932 105.883C135.773 105.962 135.429 106.349 135.572 106.243C136.314 105.695 136.993 105.269 137.645 104.617C138.297 103.965 139.977 101.951 139.271 102.544C137.596 103.95 136.259 105.288 134.852 106.963C134.259 107.669 136.138 105.817 136.925 105.337C137.033 105.271 137.034 105.633 136.925 105.697C136.121 106.171 135.271 106.269 134.485 106.774C134.248 106.926 133.879 107.631 134.125 107.494C134.574 107.243 134.761 106.781 135.125 106.417C135.489 106.053 136.64 105.148 136.202 105.417C134.013 106.758 132.185 107.989 130.105 109.493C129.031 110.27 132.31 108.35 133.325 107.497C134.031 106.904 135.657 104.831 134.951 105.424C133.276 106.83 132.054 108.272 130.532 109.843C129.957 110.436 131.58 108.708 132.245 108.217C132.346 108.142 132.349 108.505 132.245 108.577C131.571 109.043 130.825 109.167 130.165 109.654C129.938 109.821 129.559 110.511 129.805 110.374C130.254 110.123 130.387 109.597 130.805 109.297C130.908 109.224 130.913 109.592 130.805 109.657C129.478 110.45 128.245 110.956 126.865 111.653C126.614 111.78 125.867 112.056 126.145 112.013C126.446 111.967 126.628 111.65 126.932 111.643C127.11 111.638 126.429 112.109 126.572 112.003C127.314 111.455 127.858 110.857 128.645 110.377C128.753 110.311 128.758 110.681 128.645 110.737C128.42 110.85 128.151 110.624 127.925 110.737C127.812 110.793 128.014 111.008 127.925 111.097C127.836 111.186 127.654 111.008 127.565 111.097C127.476 111.186 127.677 111.399 127.565 111.457C126.257 112.128 125.023 112.458 123.692 113.083C123.531 113.158 123.503 113.394 123.332 113.443C122.572 113.657 121.855 113.563 121.105 113.813C120.987 113.852 121.282 114.104 121.172 114.163C120.95 114.282 120.691 114.083 120.452 114.163C120.283 114.219 120.261 114.466 120.092 114.523C119.853 114.602 119.611 114.443 119.372 114.523C119.203 114.579 119.171 114.803 119.012 114.883C118.899 114.939 118.765 114.826 118.652 114.883C118.493 114.962 118.461 115.186 118.292 115.243C118.053 115.322 117.811 115.163 117.572 115.243C117.403 115.299 117.371 115.523 117.212 115.603C117.099 115.659 116.965 115.546 116.852 115.603C116.693 115.682 116.362 116.084 116.492 115.963C117.096 115.398 118.41 115.138 118.205 114.337C117.035 109.75 117.517 102.948 112.902 101.894C108.848 100.968 108.678 108.386 105.973 111.544C105.741 111.814 105.391 111.152 105.253 110.824C104.994 110.21 104.831 109.621 104.882 108.957C104.918 108.503 105.716 110.378 105.302 110.189C104.676 109.903 104.406 109.242 104.129 108.613C103.497 107.173 103.169 105.854 102.733 104.344C102.248 102.666 101.889 101.212 101.498 99.51C101.485 99.4526 101.661 99.6526 101.642 99.5968C101.552 99.3301 101.372 99.1441 101.282 98.8768C101.243 98.7573 101.322 98.6363 101.282 98.5168C101.193 98.2495 100.71 97.6121 100.922 97.7968C101.696 98.4683 102.296 99.1232 102.919 99.937C102.995 100.037 102.609 100.053 102.559 99.937C101.882 98.3716 101.567 96.9267 100.933 95.3438C100.866 95.1784 100.515 95.1523 100.573 94.9838C100.994 93.758 101.738 92.8682 102.199 91.657C102.243 91.5392 101.892 91.771 101.839 91.657C101.165 90.2201 100.843 88.8806 100.213 87.4238C100.142 87.2602 99.7685 86.9068 99.8528 87.0638C100.002 87.3414 100.159 87.5759 100.402 87.7767C101.736 88.8801 103.821 89.1206 104.339 90.773C104.675 91.8468 102.274 90.4495 101.17 90.2288C100.974 90.1895 101.942 90.2548 101.742 90.2537C90.7529 90.191 81.334 89.9985 70.345 90.053C70.0633 90.0544 69.9067 90.4111 69.625 90.413C64.6947 90.4476 60.47 90.2524 55.5405 90.1568C53.9717 90.1264 52.6216 90.1924 51.0587 90.053C50.7781 90.028 50.6138 89.7538 50.3387 89.693C49.4456 89.4958 48.6204 89.6092 47.7517 89.3228C47.4133 89.2112 47.3871 88.6295 47.0317 88.6028C44.4727 88.4102 42.2667 88.7159 39.7005 88.7168C32.7138 88.7195 26.7237 88.7697 19.7387 88.613C19.457 88.6067 19.295 88.3081 19.0187 88.253C17.9992 88.05 17.0868 88.1069 16.0717 87.8828C15.8977 87.8443 15.8846 87.566 15.7117 87.5228C15.345 87.4311 14.9984 87.6144 14.6317 87.5228C14.4589 87.4795 14.4493 87.1776 14.2717 87.1628C12.8905 87.0477 11.6929 87.2779 10.3117 87.1628C10.1342 87.148 10.1298 86.7953 9.95173 86.8028C8.85031 86.8488 7.28702 87.0391 5.26185 87.3737L5.26186 72.3737C9.78695 72.5448 13.2637 72.7351 15.692 72.9446C15.8695 72.9599 15.8744 73.2898 16.052 73.3046C17.4332 73.4197 18.6308 73.1895 20.012 73.3046C20.1896 73.3194 20.1991 73.6214 20.372 73.6646C20.7387 73.7562 21.0853 73.5729 21.452 73.6646C21.6249 73.7078 21.6338 74.0264 21.812 74.0246C22.0747 74.0219 22.2023 73.6563 22.465 73.6543C22.7467 73.6522 22.9033 74.0106 23.185 74.0143C29.8059 74.1007 35.4838 73.7471 42.1032 73.9105C45.8475 74.0029 49.0609 74.2382 52.772 74.7446C53.1251 74.7928 53.1551 75.3483 53.492 75.4646C53.6482 75.5185 53.6197 75.096 53.785 75.0943C54.0667 75.0914 54.2238 75.437 54.505 75.4543C55.7066 75.5283 56.7399 75.3134 57.9432 75.3505C60.8288 75.4395 63.2919 75.7808 66.1787 75.8143C66.4604 75.8176 66.617 75.4587 66.8987 75.4543C79.0925 75.2621 89.5477 75.0836 101.742 75.2537C103.225 75.2744 104.447 75.7752 105.914 75.9985C106.564 76.0976 107.205 75.8631 107.785 76.1743C109.8 77.2566 111.435 78.3902 113.162 79.8907C113.567 80.243 113.468 80.8445 113.711 81.3235C113.792 81.4825 114.245 81.7211 114.071 81.6835C113.474 81.5547 112.991 81.3236 112.445 81.0504C112.332 80.994 112.775 80.9279 112.805 81.0504C113.494 83.8916 113.77 86.3958 114.431 89.2435C114.471 89.4171 114.969 89.5913 114.791 89.6035C114.215 89.643 113.729 89.4521 113.165 89.3304C113.042 89.3038 113.472 89.2163 113.525 89.3304C114.328 91.0421 114.803 92.6013 115.521 94.3505C115.628 94.6112 115.792 94.8032 115.881 95.0705C115.921 95.1901 115.841 95.311 115.881 95.4305C115.97 95.6978 116.18 95.8756 116.241 96.1505C116.359 96.6742 116.31 97.1459 116.386 97.6773C116.433 98.006 116.51 98.2815 116.591 98.6035C116.849 99.6318 117.197 100.486 117.354 101.535C117.405 101.87 116.742 100.38 116.902 100.679C117.806 102.369 118.622 103.797 119.481 105.511C119.57 105.687 118.959 104.957 119.111 105.084C119.384 105.312 119.997 105.488 119.831 105.804C117.701 109.855 117.414 117.658 112.902 116.894C108.005 116.064 108.313 108.646 107.599 103.73C107.42 102.502 109.671 102.716 110.752 102.105C110.907 102.017 110.952 101.824 111.112 101.745C111.224 101.688 111.359 101.801 111.472 101.745C111.631 101.665 111.663 101.441 111.832 101.385C112.071 101.305 112.313 101.464 112.552 101.385C112.721 101.328 112.752 101.104 112.912 101.025C113.024 100.968 113.159 101.081 113.272 101.025C113.431 100.945 113.463 100.721 113.632 100.665C113.871 100.585 114.113 100.744 114.352 100.665C114.521 100.608 114.543 100.361 114.712 100.305C114.951 100.225 115.195 100.392 115.432 100.305C116.246 100.003 116.835 99.4887 117.659 99.2143C117.784 99.1727 117.46 99.58 117.592 99.5846C117.77 99.5908 118.031 99.0652 117.952 99.2246C117.653 99.8209 117.37 100.326 116.959 100.85C116.881 100.949 116.869 100.579 116.959 100.49C117.048 100.401 117.229 100.579 117.319 100.49C117.408 100.401 117.206 100.187 117.319 100.13C117.544 100.018 117.813 100.243 118.039 100.13C118.151 100.074 117.936 99.8434 118.039 99.7704C118.96 99.1149 119.875 98.7474 120.832 98.1446C120.983 98.0496 121.026 97.8495 121.192 97.7846C121.698 97.5867 122.183 97.5835 122.699 97.4143C122.966 97.3265 123.654 96.9 123.419 97.0543C122.309 97.7804 121.381 98.4497 120.199 99.0504C120.086 99.1074 120.102 98.7711 120.199 98.6904C120.744 98.2351 121.381 98.078 121.919 97.6138C122.132 97.4296 122.453 96.6723 122.279 96.8938C122.008 97.2384 121.931 97.6435 121.639 97.9704C121.555 98.0643 121.532 97.6775 121.639 97.6104C122.689 96.9487 125.108 94.7838 124.792 95.9846C124.326 97.7551 122.771 98.9505 121.093 99.6835C120.056 100.136 121.861 97.6281 122.719 96.8904C123.89 95.8821 125.501 93.8697 126.659 94.8943C127.749 95.8591 124.78 96.9579 123.442 97.5307C122.789 97.8102 124.016 96.3126 124.519 95.8104C125.021 95.3081 125.701 95.198 126.239 94.7338C126.452 94.5496 126.537 93.7388 126.599 94.0138C126.684 94.3938 126.46 94.7278 126.319 95.0904C126.273 95.2077 126.216 94.8034 126.319 94.7304C127.24 94.0749 129.565 92.068 129.112 93.1046C128.379 94.7823 127.091 96.0705 125.413 96.8035C124.376 97.2564 126.239 94.8102 127.039 94.0104C127.838 93.2105 128.875 92.9874 129.832 92.3846C129.983 92.2896 130.032 92.1043 130.192 92.0246C130.304 91.9682 130.673 91.9898 130.552 92.0246C130.281 92.1022 129.635 92.4035 129.757 92.1494C129.953 91.7395 130.451 91.6692 130.837 91.4294C131.737 90.8694 132.466 90.3022 133.432 89.8646C133.64 89.7703 132.896 90.5509 133.079 90.4138C133.757 89.9051 134.272 89.3841 134.872 88.7846C135.094 88.5619 134.442 89.471 134.159 89.3338C133.905 89.211 134.457 88.3388 134.519 88.6138C134.604 88.9938 134.479 89.3843 134.239 89.6904C134.083 89.8885 134.048 89.1351 134.239 88.9704C134.859 88.4345 135.637 88.3485 136.319 87.8938C136.628 87.6876 135.001 88.443 135.319 88.2504C136.786 87.361 138.087 86.6686 139.619 85.8943C139.731 85.8375 140.068 85.8059 139.979 85.8943C138.595 87.2569 137.491 88.5609 135.853 89.6035C135.4 89.8919 135.997 88.523 136.402 88.1707C138.129 86.6702 139.99 85.8809 141.779 84.4543C142.815 83.6274 139.791 85.9619 138.559 86.4504C138.324 86.5432 138.349 85.8703 138.559 85.7304C139.685 84.978 140.886 84.7596 142.072 84.1046C142.318 83.9684 141.461 84.016 141.277 84.2294C140.615 84.9958 140.474 85.9568 139.813 86.7235C139.462 87.1304 140.019 85.704 140.362 85.2907C141.187 84.2964 142.091 83.6251 143.077 82.7894C143.123 82.7502 143.194 82.8914 143.239 82.8504C143.879 82.2602 144.26 81.5734 144.959 81.0538C145.39 80.7332 145.941 80.7968 146.392 80.5046C146.84 80.2138 147.877 79.0755 147.472 79.4246C146.846 79.9643 146.312 80.4367 145.759 81.0504C145.141 81.7349 143.535 83.8257 144.133 83.1235C145.178 81.8963 145.747 80.5164 147.037 79.5494C147.846 78.942 145.09 82.9335 145.573 82.0435C146.112 81.049 146.341 79.9881 147.199 79.2504C148.37 78.2421 151.133 75.7084 151.139 77.2543C151.145 78.9859 148.641 79.2872 147.202 80.2507C147.097 80.3208 147.108 79.9742 147.202 79.8907C148.747 78.5215 150.136 77.4182 151.792 76.1846C151.975 76.0481 151.613 76.5854 151.439 76.7338C150.856 77.2318 149.038 78.4595 149.658 78.0083C151.527 76.6478 153.135 75.4897 155.008 74.1355C155.127 74.0496 154.642 74.5281 154.672 74.3846C154.708 74.2102 154.863 74.0809 155.032 74.0246C155.271 73.9449 155.536 74.1542 155.752 74.0246C156.21 73.7495 157.237 72.5955 156.832 72.9446C156.206 73.4843 155.72 74.0038 155.119 74.5704C154.744 74.9229 153.607 75.8454 154.042 75.5707C155.976 74.349 157.523 73.1355 159.419 71.8543C159.583 71.7435 159.038 72.4168 158.992 72.2246C158.909 71.8856 158.993 71.4728 159.277 71.2694C160.205 70.6028 161.262 70.4873 162.239 69.8938C162.696 69.6162 162.841 69.0538 163.319 68.8138C164.59 68.175 165.773 67.8213 167.14 67.4305C167.632 67.29 166.292 67.8561 165.839 68.0938C165.612 68.2131 164.977 68.5802 165.199 68.4504C166.827 67.4947 168.217 66.6665 169.859 65.7343C169.905 65.7082 169.723 65.8829 169.768 65.8555C170.157 65.6203 170.465 65.3786 170.848 65.1355C170.972 65.057 170.647 65.44 170.512 65.3846C170.305 65.3002 170.001 65.0115 170.159 64.8538C170.539 64.474 171.88 63.8515 171.592 64.3046C170.8 65.5486 170.075 67.4718 168.613 67.2835C167.381 67.125 169.497 65.1266 170.239 64.1304C170.389 63.9282 171.073 63.9059 170.959 64.1304C170.45 65.1277 168.388 67.5915 168.962 66.6305C170.137 64.6672 171.457 63.1879 172.679 61.2538C172.954 60.8189 172.193 62.3321 171.679 62.3304C171.301 62.3291 171.469 61.5649 171.679 61.2504C171.818 61.0407 172.499 61.0194 172.399 61.2504C172.029 62.0954 171.245 62.5315 170.773 63.3235C170.709 63.4306 171.077 63.5065 171.122 63.3905C171.561 62.2745 171.499 61.1595 172.042 60.0907C172.352 59.4802 173.231 58.12 173.476 58.7597C173.747 59.4674 172.705 59.9434 172.202 60.5105C172.016 60.7214 172.411 59.5528 172.562 59.7905C172.804 60.1705 172.804 60.6969 172.562 61.0768C172.411 61.3146 172.252 60.6342 172.202 60.3568C172.053 59.512 171.707 58.7195 172.002 57.9137C172.187 57.4075 172.469 58.815 172.573 59.3438C172.607 59.5186 172.091 58.8537 172.213 58.9838C172.777 59.5875 173.347 60.0321 173.839 60.697C173.913 60.7983 173.568 60.7861 173.479 60.697C173.389 60.6079 173.568 60.4261 173.479 60.337C173.389 60.2479 173.208 60.4261 173.119 60.337C173.029 60.2479 173.006 59.9199 173.119 59.977C174.301 60.5776 177.375 62.7999 176.339 61.973C174.55 60.5465 172.689 59.7571 170.962 58.2567C170.557 57.9044 169.977 56.5101 170.413 56.8238C171.899 57.8931 173.379 58.845 174.112 60.5228C174.565 61.5593 172.185 59.6244 171.319 58.897C171.126 58.7349 171.497 58.3552 171.319 58.177C171.14 57.9988 170.777 58.3552 170.599 58.177C170.42 57.9988 170.368 57.3561 170.599 57.457C171.444 57.8262 173.265 59.7889 172.672 59.0828C171.265 57.4078 169.738 56.2697 168.253 54.6638C168.167 54.5713 168.328 54.4046 168.253 54.3038C167.932 53.8761 167.494 53.6515 167.173 53.2238C167.097 53.123 167.079 52.7794 167.173 52.8638C168.532 54.0906 170.139 54.885 170.872 56.5628C171.325 57.5993 168.945 55.6644 168.079 54.937C167.886 54.7749 167.848 54.1161 168.079 54.217C168.924 54.5862 170.745 56.5489 170.152 55.8428C168.745 54.1678 167.218 53.0297 165.733 51.4238C165.647 51.3313 165.859 51.0655 165.733 51.0638C165.51 51.0608 165.119 51.2098 165.202 51.4167C165.394 51.8937 165.883 52.0876 166.279 52.417C166.987 53.0075 167.61 53.4948 168.352 54.0428C168.495 54.1487 168.143 53.7777 167.992 53.6828C167.035 53.08 165.967 52.8875 165.199 52.057C164.356 51.1453 162.338 48.7699 163.573 48.9038C165.216 49.082 166.111 50.7972 166.912 52.2428C167.23 52.8168 165.684 52.0268 165.119 51.6935C164.876 51.5505 164.505 51.0963 164.759 50.9735C165.042 50.8363 165.194 51.3739 165.472 51.5228C165.629 51.607 165.267 51.2504 165.112 51.1628C164.031 50.5518 162.955 50.2781 161.959 49.537C161.756 49.3866 161.728 48.7161 161.959 48.817C162.804 49.1862 163.265 49.9298 164.032 50.4428C164.328 50.641 163.608 49.9204 163.312 49.7228C163.207 49.6529 163.057 49.7927 162.952 49.7228C161.808 48.9589 160.515 48.551 159.799 47.377C159.287 46.5384 161.573 47.991 162.299 48.653C162.7 49.019 161.28 48.5216 160.792 48.2828C160.472 48.1261 160.368 47.7607 160.072 47.5628C159.131 46.9346 158.2 46.5924 157.279 45.937C157.176 45.864 157.177 45.5021 157.279 45.577C157.943 46.0682 158.388 46.6381 158.992 47.2028C159.122 47.3245 158.791 46.9225 158.632 46.8428C158.519 46.7864 158.375 46.9149 158.272 46.8428C156.999 45.9539 156.003 45.0649 154.759 44.137C154.394 43.8654 153.776 43.8607 153.679 43.417C153.599 43.0539 154.988 43.9797 154.679 43.7735C153.997 43.3188 153.166 43.2891 152.599 42.697C151.816 41.88 151.601 40.8445 150.973 39.9038C150.775 39.6074 150.055 38.8876 150.253 39.1838C150.766 39.9501 151.261 40.5725 151.879 41.257C152.432 41.8706 154.167 43.4765 153.592 42.8828C152.07 41.3117 150.658 40.0697 149.173 38.4638C149.087 38.3713 149.079 38.0194 149.173 38.1038C150.532 39.3306 151.645 40.4437 152.872 41.8028C152.956 41.8963 152.621 41.8655 152.512 41.8028C151.369 41.1471 150.27 40.7081 149.338 39.7763C149.136 39.5736 150.185 39.4944 149.992 39.2828C149.506 38.7511 148.662 38.9077 148.117 38.438C147.815 38.178 147.406 37.5474 147.757 37.358C148.114 37.1649 148.873 38.4506 148.552 38.2028C147.135 37.1107 145.937 36.1473 144.618 34.939C144.072 34.4393 143.7 33.9151 143.239 33.337C142.27 32.1242 141.344 31.1472 140.533 29.8238C140.432 29.6599 140.952 29.6746 141.082 29.8167C141.332 30.0913 141.631 31.1349 141.439 30.817C140.549 29.3492 139.927 28.0108 139.082 26.5168C138.933 26.2518 139.734 27.42 139.453 27.3038C138.959 27.0998 138.694 26.6515 138.373 26.2238C138.297 26.123 138.288 25.7707 138.373 25.8638C138.757 26.2849 139.174 26.6568 139.279 27.217C139.33 27.4939 138.277 26.8604 138.559 26.857C138.93 26.8524 139.23 27.0398 139.559 27.2135C139.837 27.3608 140.525 27.9495 140.272 27.7628C139.164 26.9473 138.091 26.3896 137.119 25.417C136.757 25.0559 138.88 26.2692 138.472 25.9628C137.567 25.2841 136.6 24.9924 135.679 24.337C135.576 24.264 135.571 23.9113 135.679 23.977C136.466 24.4575 136.944 25.1587 137.752 25.6028C138.22 25.8602 136.876 25.0169 136.672 24.5228C136.556 24.2414 137.728 25.0346 137.459 24.893C136.079 24.1683 134.796 23.7202 133.498 22.8563C133.12 22.6044 133.116 22.0799 132.778 21.7763C132.492 21.5193 132.111 21.5118 131.782 21.314C131.142 20.9306 130.652 20.5124 130.017 20.1205C128.953 19.4626 127.976 19.003 126.93 18.3162C125.996 17.7028 125.277 17.0602 124.367 16.411C123.82 16.0213 123.368 15.653 122.77 15.3488C122.496 15.2095 122.178 15.3158 121.912 15.1628C121.603 14.9853 121.215 14.7984 121.192 14.4428C121.171 14.1246 121.603 14.9023 121.902 15.0137C122.016 15.0561 122.299 14.7714 122.185 14.813C121.92 14.9096 121.747 15.1775 121.465 15.173C121.333 15.171 121.648 14.7406 121.532 14.8028C121.218 14.971 120.516 15.721 120.812 15.5228C121.578 15.0098 122.233 14.549 122.885 13.897C123.537 13.2449 123.963 12.5654 124.511 11.8238C124.617 11.6805 124.246 12.033 124.151 12.1838C123.548 13.141 123.181 14.0551 122.525 14.977C122.452 15.0797 122.099 15.0845 122.165 14.977C122.646 14.1899 123.243 13.6454 123.791 12.9038C123.897 12.7605 123.466 13.0891 123.431 13.2638C123.332 13.758 123.53 14.2096 123.431 14.7038C123.396 14.8785 123.087 14.8863 123.071 15.0638C122.957 16.3186 123.185 17.409 123.071 18.6638C123.055 18.8413 122.71 18.8456 122.711 19.0238C122.714 20.3206 122.869 21.4311 123.081 22.7105C123.127 22.9885 123.431 23.149 123.441 23.4305C123.558 26.6506 123.558 29.4167 123.441 32.6368C123.431 32.9184 123.138 33.0808 123.081 33.3568C122.311 37.1159 121.904 40.3883 121.085 44.137C121.058 44.2601 120.659 44.2445 120.725 44.137C121.206 43.3499 121.803 42.8054 122.351 42.0638C122.457 41.9205 122.026 42.2491 121.991 42.4238C121.892 42.918 122.09 43.3696 121.991 43.8638C121.956 44.0385 121.687 44.0547 121.631 44.2238C121.551 44.4629 121.744 44.7184 121.631 44.9438C121.472 45.2626 121.07 45.345 120.911 45.6638C120.798 45.8892 121.075 46.1927 120.911 46.3838C119.485 48.0422 117.899 49.1278 116.492 50.8028C115.899 51.5089 117.72 49.5462 118.565 49.177C118.796 49.0761 118.758 49.7349 118.565 49.897C117.699 50.6244 116.713 50.8946 115.772 51.5228C115.476 51.7207 115.349 52.0451 115.052 52.2428C114.947 52.3127 114.797 52.1729 114.692 52.2428C114.395 52.4404 114.328 52.9405 113.972 52.9628C110.206 53.1985 106.963 53.0846 103.192 52.9628C103.014 52.957 103.009 52.6224 102.832 52.6028C101.83 52.4914 100.954 52.7141 99.9517 52.6028C99.7746 52.5831 99.7699 52.2417 99.5917 52.2428C92.7399 52.282 86.8718 52.807 80.0205 52.7168C77.2791 52.6808 74.9444 52.2803 72.2317 51.8828C72.0554 51.8569 72.049 51.5405 71.8717 51.5228C70.7434 51.4099 69.7601 51.6356 68.6317 51.5228C68.4544 51.505 68.4499 51.1626 68.2717 51.1628C63.7573 51.1663 59.8931 51.5296 55.3787 51.533C55.097 51.5332 54.9385 51.2061 54.6587 51.173C52.7541 50.9482 51.0947 51.0413 49.1917 50.8028C49.0149 50.7806 49.0099 50.4454 48.8317 50.4428C40.3837 50.3186 33.14 50.3186 24.692 50.4428C24.5138 50.4454 24.5049 50.7595 24.332 50.8028C23.9653 50.8944 23.6187 50.7111 23.252 50.8028C23.0791 50.846 23.0613 51.1072 22.892 51.1628C22.259 51.3703 21.6661 51.3521 21.025 51.533C20.7539 51.6096 20.0265 51.9357 20.305 51.893C20.6059 51.8469 20.7877 51.5301 21.092 51.5228C21.2701 51.5185 20.901 51.8264 20.732 51.8828C20.4929 51.9625 20.2374 51.7701 20.012 51.8828C19.6932 52.0421 18.9958 52.801 19.292 52.6028C20.0583 52.0898 20.7722 51.6831 21.3652 50.977C22.2179 49.9615 24.1881 46.7202 23.3612 47.7568C21.9346 49.5452 20.9758 51.2729 19.6448 53.1335C19.3898 53.4901 20.0058 52.3949 20.2852 52.057C20.6129 51.6605 21.1115 51.506 21.3617 51.0567C21.4988 50.8105 20.8088 51.1898 20.6417 51.4167C20.1557 52.0769 20.1572 52.9299 19.5652 53.497C18.7482 54.2794 16.3191 56.1593 16.772 55.1228C17.505 53.445 18.7932 52.1568 20.471 51.4238C21.5075 50.9709 19.5006 53.2951 18.8452 54.217C18.7721 54.3197 18.5415 54.1043 18.4852 54.217C18.3725 54.4424 18.5979 54.7116 18.4852 54.937C18.4288 55.0497 18.0595 55.0445 18.1252 54.937C18.6057 54.1499 19.203 53.6054 19.751 52.8638C19.8568 52.7205 19.3867 53.4019 19.391 53.2238C19.3983 52.9195 19.7151 52.7377 19.7612 52.4368C19.8039 52.1583 19.4778 52.8857 19.4012 53.1568C19.2202 53.7979 19.2784 54.4053 19.031 55.0238C18.9847 55.1395 18.7346 54.8442 18.6812 54.9568C17.8719 56.6657 17.4885 58.2653 16.6852 59.977C16.6316 60.091 16.2626 60.0863 16.3252 59.977C16.9313 58.9173 17.5798 58.0866 18.3212 57.1168C18.4923 56.893 17.9713 57.5553 17.9612 57.8368C17.8948 59.6845 18.1066 61.2684 18.1057 63.1173C18.103 68.3488 18.3724 72.8492 17.951 78.0638C17.8881 78.8414 17.1719 79.2853 16.7462 79.939C16.4982 80.3197 16.3474 80.6978 16.0262 81.019C15.9668 81.0784 15.8468 81.0784 15.6662 81.019L15.6662 81.019C11.2114 85.4738 6.95591 86.2394 2.8997 83.3158Z"/><path id="shape2" transform="translate(139.355208493302, 42.5422438013612)" fill="#7ffffe" d="M5.65685 0.956983C5.73039 0.956983 5.78696 0.956983 5.82656 0.956983C6.00475 0.956983 6.16663 0.900634 6.33568 0.956983C6.39203 0.975766 6.38573 1.15867 6.33568 1.12669C5.8169 0.795165 4.4143 -0.265762 4.93538 0.0621192C5.95341 0.702697 6.77291 1.33228 7.75838 2.0219C7.9568 2.16074 7.37051 1.79052 7.18421 1.63581C6.7991 1.31601 5.67453 0.461412 6.12981 0.669499C6.9156 1.02865 7.45427 1.5755 8.15576 2.07986C8.74144 2.50097 9.28641 2.81391 9.80692 3.31333C9.97917 3.4786 10.2914 4.06049 10.0886 3.93445C9.35947 3.48103 8.74047 3.02351 8.23021 2.33292C8.03317 2.06626 8.85088 2.45288 9.12821 2.63459C9.30734 2.75196 9.5173 2.93539 9.46762 3.14371C9.42766 3.31127 8.92878 2.75725 9.07873 2.84204C9.81079 3.25597 10.4106 3.65792 11.1344 4.08615C11.3582 4.21858 11.5624 4.31044 11.7858 4.44367C11.7982 4.4511 11.7333 4.44161 11.7449 4.45034C12.3401 4.89919 12.855 5.27791 13.4633 5.70874C13.5235 5.75135 13.7261 5.8062 13.6526 5.80132C13.4843 5.79014 13.3435 5.74429 13.1839 5.69018C13.0234 5.63579 12.5933 5.41113 12.7418 5.4927C13.5982 5.96298 14.4009 6.25002 15.2073 6.80144C15.6451 7.10078 15.9071 7.49574 16.2557 7.89538C16.274 7.91637 16.2063 7.91764 16.1786 7.91491C16.0422 7.90151 15.9111 7.91847 15.7925 7.84985C15.6792 7.78429 15.4566 7.47625 15.5597 7.55694C15.7582 7.71222 15.862 7.92206 16.0688 8.06606C16.5584 8.40693 17.1144 8.51132 17.5362 8.93315C17.9581 9.35497 18.1267 9.87202 18.4033 10.4005C18.6043 10.7845 17.3779 9.12988 17.7529 9.34703C18.4052 9.72471 18.78 10.3054 19.2528 10.8924C19.3741 11.0431 19.5738 11.5382 19.4216 11.4188C18.7106 10.8613 18.1178 10.3312 17.5962 9.59341C17.435 9.36546 18.1134 9.7207 18.3381 9.88632C18.6985 10.1519 18.8993 10.5019 19.2333 10.7999C19.3931 10.9425 19.5506 11.0441 19.7424 11.1393C19.7674 11.1517 19.737 11.0498 19.762 11.0622C19.9538 11.1574 20.1196 11.2502 20.2711 11.4016C20.7969 11.9275 21.1791 12.4427 21.6863 12.9866C21.7266 13.0298 21.5735 12.7893 21.6092 12.8364C22.2178 13.6408 22.7472 14.3253 23.3248 15.1523C23.4789 15.373 22.6485 14.3646 22.8208 14.5713C23.2901 15.1345 23.7734 15.5562 24.1733 16.1705C24.3273 16.4069 24.5538 17.1666 24.3708 16.952C24.0127 16.532 23.1061 15.4355 23.6457 15.5517C24.2604 15.684 24.4836 16.4225 24.6824 17.0191C24.8255 17.4482 24.0335 16.457 23.8154 16.0608C23.7581 15.9567 24.0485 16.0077 24.1548 16.0608C24.2079 16.0873 24.1016 16.2039 24.1548 16.2305C24.261 16.2836 24.4277 16.132 24.4942 16.2305C24.9517 16.908 26.3707 18.4047 25.5587 18.3096C24.6245 18.2002 24.4655 16.9445 23.9384 16.1654C23.9051 16.1162 24.0725 16.1179 24.1081 16.1654C24.2675 16.3779 24.2611 16.655 24.4475 16.8443C24.7088 17.1094 25.1056 17.1315 25.3427 17.4184C25.4562 17.5558 25.5126 17.9814 25.3427 17.9275C24.8681 17.7769 24.6173 17.3535 24.2147 17.0605C24.1468 17.011 24.3135 17.1852 24.3844 17.2302C24.8884 17.5493 25.445 17.6609 25.8518 18.0973C26.294 18.5715 26.3962 19.172 26.7189 19.7344C26.7607 19.8072 26.9443 19.967 26.8886 19.9041C26.589 19.5652 26.2877 19.3115 26.0215 18.9458C25.9866 18.8978 26.167 18.8916 26.1912 18.9458C26.498 19.6314 26.8885 20.6308 27.3628 21.9439L19.3628 21.9439C19.9048 23.082 20.2953 23.9682 20.5344 24.6026C20.5553 24.6582 20.3965 24.6528 20.3647 24.6026C20.0178 24.0549 19.8203 23.5279 19.4976 22.9655C19.4558 22.8927 19.2722 22.7329 19.3279 22.7958C19.6275 23.1347 19.8613 23.4488 20.195 23.7541C20.5624 24.0902 20.9203 24.3282 21.323 24.6212C21.3909 24.6706 21.2242 24.4964 21.1533 24.4515C20.6493 24.1323 20.121 23.9925 19.6859 23.5844C19.5559 23.4625 19.5089 23.0546 19.6859 23.0753C19.9636 23.1078 19.9899 23.7712 20.2416 23.6495C20.4808 23.5338 20.0616 23.1831 19.9022 22.9706C19.8666 22.9231 19.7683 23.0181 19.7325 22.9706C19.0082 22.0104 18.539 21.0748 17.7728 20.1476C17.318 19.5974 18.5627 21.2284 18.8373 21.8873C18.883 21.997 18.6042 21.9405 18.4979 21.8873C18.4448 21.8608 18.551 21.7442 18.4979 21.7176C18.3917 21.6645 18.229 21.8133 18.1585 21.7176C17.7738 21.1957 17.4965 20.6957 17.2914 20.0805C17.1446 19.6402 18.2117 21.6156 17.9888 21.2085C17.5187 20.35 17.0948 19.6254 16.5848 18.79C16.4965 18.6454 16.751 19.0655 16.7823 19.232C16.8199 19.4318 16.9074 19.9692 16.7772 19.813C16.3721 19.3268 16.2691 18.7504 15.9338 18.2138C15.8818 18.1306 16.0309 18.5518 15.9523 18.4932C15.6375 18.2586 15.3975 18.0015 15.1964 17.6642C15.1143 17.5267 15.7066 18.0048 15.5934 17.8915C15.442 17.7401 15.2575 17.678 15.0843 17.5521C14.7296 17.2945 14.4402 17.0538 14.0856 16.7962C13.9123 16.6703 13.4892 16.6523 13.5765 16.4568C13.6625 16.2639 13.9473 16.5897 14.1322 16.6915C14.2849 16.7756 14.6548 17.1107 14.5347 16.9844C13.6808 16.086 12.9104 15.3533 12.0305 14.4802C11.9679 14.4181 12.153 14.5922 12.1994 14.6672C12.3816 14.9625 12.9245 15.781 12.681 15.5338C12.0276 14.8704 11.615 14.1717 11.0123 13.462C10.6899 13.0825 11.5273 14.2379 11.8794 14.59C12.2315 14.9421 12.5763 15.2078 13.0074 15.4571C13.2255 15.5833 12.7177 15.0719 12.4983 14.948C12.2064 14.7832 11.8617 14.8466 11.5867 14.6551C11.1503 14.3513 10.8718 13.972 10.5217 13.5718C10.2331 13.2418 10.0078 12.9386 9.7658 12.5731C9.65841 12.4109 9.97007 12.8857 10.1354 12.9882C10.3798 13.1397 10.9436 12.9939 10.9038 13.2787C10.8647 13.5581 10.3735 13.2098 10.1224 13.0812C9.68835 12.859 9.36667 12.5815 8.97487 12.2913C8.55564 11.9807 8.20423 11.7032 7.80646 11.3656C7.69081 11.2674 8.29621 11.6856 8.16721 11.6058C7.79383 11.3748 7.47902 11.1685 7.10811 10.9336C6.74236 10.702 6.3328 10.611 6.06246 10.2729C5.90212 10.0723 7.012 10.5503 6.76046 10.4988C6.38004 10.4208 6.02922 10.391 5.69275 10.1971C5.50719 10.0902 5.1978 9.8352 5.35334 9.68799C5.51472 9.53525 6.08093 10.1339 5.91193 9.98966C4.93472 9.15553 4.05314 8.49329 3.03525 7.70931C2.92478 7.62422 3.23136 7.88095 3.31698 7.99101C3.55239 8.29362 3.67151 8.62147 3.94991 8.88507C4.1322 9.05767 3.80976 8.39686 3.59998 8.25896C2.93115 7.81932 2.16231 7.77994 1.52735 7.29266C1.19142 7.03486 0.553977 6.08651 0.953175 6.22774C1.83997 6.54148 3.51372 7.00462 3.09735 7.84811C2.68798 8.67744 1.50261 7.20395 0.678823 6.78354C0.625917 6.75654 0.735171 6.63262 0.678823 6.61384C0.509776 6.55749 0.347897 6.61384 0.169706 6.61384C0.130108 6.61384 0.0735391 6.61384 0 6.61384L0 6.61384Z"/>
</svg>
