<?xml version="1.0" encoding="UTF-8" standalone="no"?>
<svg
   xmlns:dc="http://purl.org/dc/elements/1.1/"
   xmlns:cc="http://creativecommons.org/ns#"
   xmlns:rdf="http://www.w3.org/1999/02/22-rdf-syntax-ns#"
   xmlns:svg="http://www.w3.org/2000/svg"
   xmlns="http://www.w3.org/2000/svg"
   xmlns:sodipodi="http://sodipodi.sourceforge.net/DTD/sodipodi-0.dtd"
   xmlns:inkscape="http://www.inkscape.org/namespaces/inkscape"
   width="27.611111mm"
   height="28.059996mm"
   viewBox="0 0 27.611111 28.059996"
   version="1.1"
   id="svg8"
   inkscape:version="1.0.1 (3bc2e813f5, 2020-09-07)"
   sodipodi:docname="key.svg">
  <defs
     id="defs2" />
  <sodipodi:namedview
     id="base"
     pagecolor="#ffffff"
     bordercolor="#666666"
     borderopacity="1.0"
     inkscape:pageopacity="0.0"
     inkscape:pageshadow="2"
     inkscape:zoom="3.959798"
     inkscape:cx="87.526092"
     inkscape:cy="62.77541"
     inkscape:document-units="mm"
     inkscape:current-layer="layer1"
     inkscape:document-rotation="0"
     showgrid="false"
     fit-margin-top="0"
     fit-margin-left="0"
     fit-margin-right="0"
     fit-margin-bottom="0"
     inkscape:window-width="1920"
     inkscape:window-height="1017"
     inkscape:window-x="-8"
     inkscape:window-y="-8"
     inkscape:window-maximized="1" />
  <metadata
     id="metadata5">
    <rdf:RDF>
      <cc:Work
         rdf:about="">
        <dc:format>image/svg+xml</dc:format>
        <dc:type
           rdf:resource="http://purl.org/dc/dcmitype/StillImage" />
        <dc:title></dc:title>
      </cc:Work>
    </rdf:RDF>
  </metadata>
  <g
     inkscape:label="Ebene 1"
     inkscape:groupmode="layer"
     id="layer1"
     transform="translate(-54.854589,-86.176789)">
    <rect
       style="fill:#ececec;stroke-width:0.264583"
       id="rect10"
       width="25.513393"
       height="25.513393"
       x="55.940475"
       y="87.3125"
       rx="4.99999"
       ry="4.99999" />
    <path
       style="fill:#1a1a1a;stroke-width:0.264583"
       id="path14"
       d="m 59.006768,88.864431 c 0.16237,-0.109445 0.353058,-0.162531 0.537364,-0.223113 0.352425,-0.104857 0.721746,-0.127158 1.086138,-0.158668 0.390806,-0.03105 0.78309,-0.03328 1.174882,-0.03601 0.613715,-0.0021 1.227437,-0.0011 1.841156,-7.94e-4 0.549114,2.64e-4 1.09823,5.29e-4 1.647344,5.29e-4 0.49961,5.8e-5 0.99922,5e-5 1.49883,5e-5 0.542761,-0.0069 1.085154,0.01495 1.627643,0.02812 0.757645,0.01617 1.515507,0.01688 2.273289,0.0185 0.80753,0.0058 1.615236,-0.0074 2.422686,0.0064 0.5426,-0.0011 1.081075,0.0531 1.618279,0.122933 0.578813,0.0673 1.157595,0.145418 1.724319,0.283033 0.378132,0.12079 0.745006,0.273127 1.0878,0.473602 0.186507,0.111561 0.372486,0.226525 0.534141,0.372768 0.124928,0.11375 0.259064,0.21871 0.378584,0.338397 0.03344,0.03349 0.06064,0.07268 0.09175,0.108344 0.177951,0.211723 0.347933,0.429827 0.518428,0.647529 0.136488,0.187957 0.275658,0.372377 0.387355,0.576368 0.184557,0.335685 0.319513,0.695222 0.444452,1.056402 0.136131,0.393872 0.223092,0.803486 0.278802,1.215974 0.01093,0.117174 0.02503,0.227669 0.02148,0.345602 -0.0013,0.0409 -0.0085,0.08139 -0.01363,0.121997 -0.02572,0.205885 -0.06126,0.408013 -0.103618,0.611071 -0.104085,0.528976 -0.214223,1.059553 -0.244544,1.599236 -0.0085,0.151541 -0.0078,0.303456 -0.01175,0.455184 -0.0028,0.730682 0.0947,1.455664 0.15716,2.18226 0.0337,0.422211 0.05287,0.845849 0.04537,1.269405 -0.02813,0.48895 -0.111543,0.97144 -0.174424,1.45643 -0.09951,0.66574 -0.108855,1.33834 -0.09657,2.0098 0.01913,0.60061 0.04673,1.20111 0.0769,1.80129 0.02881,0.48303 0.0451,0.96659 0.05339,1.45036 7.94e-4,0.43637 0.03889,0.87177 0.07871,1.30602 0.03056,0.30831 0.06743,0.61801 0.02297,0.92644 -0.05705,0.2655 -0.179848,0.50783 -0.300363,0.7487 -0.09097,0.1739 -0.182695,0.34877 -0.303263,0.50451 -0.04393,0.0568 -0.114427,0.13171 -0.160981,0.18287 -0.188208,0.17564 -0.413705,0.30049 -0.653576,0.39053 -0.49721,0.12454 -1.000056,0.22921 -1.504804,0.31859 -0.608066,0.10191 -1.223249,0.13757 -1.838484,0.15862 -0.856464,0.0238 -1.713175,0.0372 -2.569686,0.0587 -0.151387,0.004 -0.302792,0.007 -0.454155,0.0121 -0.33659,0.0107 -0.596477,0.02 -0.933281,0.0465 -0.435721,0.0343 -0.869185,0.0922 -1.303009,0.14416 -0.635111,0.0784 -1.271847,0.13447 -1.911136,0.16129 -0.643551,0.0276 -1.287589,0.005 -1.931207,-0.008 -0.670343,-0.0276 -1.341112,-0.0415 -2.011624,-0.0634 -0.701366,-0.0197 -1.396693,-0.11402 -2.089534,-0.21817 -0.682828,-0.11122 -1.364358,-0.23145 -2.04497,-0.35568 -0.209102,-0.0412 -0.421087,-0.075 -0.620776,-0.15238 -0.208552,-0.0808 -0.403449,-0.19609 -0.598765,-0.30339 -0.30566,-0.18522 -0.629925,-0.36806 -0.858951,-0.6502 -0.09968,-0.12279 -0.130231,-0.19623 -0.204761,-0.33556 -0.236966,-0.51154 -0.28335,-1.07612 -0.320543,-1.63081 -0.04258,-0.65783 -0.0084,-1.31654 -0.0033,-1.9748 0.01558,-0.68714 -0.05202,-1.37133 -0.09929,-2.05584 -0.04364,-0.66403 -0.05108,-1.32963 -0.05665,-1.99484 -0.0041,-0.69311 -0.0034,-1.38623 -0.003,-2.07934 -0.0013,-0.674994 0.0055,-1.350018 -0.0051,-2.024943 -0.01627,-0.746078 -0.0278,-1.492171 -0.05,-2.2381 -0.02241,-0.696116 -0.03102,-1.392539 -0.0359,-2.088962 -0.01045,-0.60878 0.02941,-1.21702 0.114265,-1.819614 0.07779,-0.586131 0.202703,-1.162918 0.363659,-1.731362 0.09345,-0.277159 0.152263,-0.583364 0.330102,-0.823468 0.07393,-0.09982 0.173086,-0.187878 0.260837,-0.273425 0.360175,-0.296688 0.744075,-0.563198 1.133904,-0.819082 1.339471,-0.881708 0.09255,-2.776005 -1.246923,-1.894297 v 0 c -0.530794,0.350197 -1.05704,0.712745 -1.525244,1.145175 -0.281442,0.303416 -0.377333,0.378391 -0.598413,0.728416 -0.256323,0.405826 -0.402717,0.865733 -0.537342,1.322398 -0.187188,0.668639 -0.335873,1.346401 -0.427109,2.035339 -0.09673,0.711057 -0.148455,1.427726 -0.135536,2.14585 0.005,0.713603 0.01392,1.427208 0.03685,2.140495 0.02191,0.735547 0.03316,1.471256 0.04928,2.206948 0.0109,0.662453 0.0029,1.325036 0.0048,1.987562 -2.65e-4,0.69984 -0.0011,1.39969 0.0031,2.09952 0.006,0.71105 0.01479,1.42249 0.06198,2.13225 0.04344,0.62694 0.107678,1.25354 0.09394,1.88292 -0.0048,0.71667 -0.04193,1.43391 0.0088,2.15002 0.025,0.34421 0.03067,0.50882 0.08068,0.85067 0.0903,0.61725 0.254614,1.22127 0.549288,1.77435 0.224457,0.36522 0.262022,0.46384 0.55263,0.78477 0.389906,0.43058 0.879623,0.75169 1.379075,1.0395 0.253568,0.13725 0.410368,0.22891 0.673877,0.34491 0.390877,0.17206 0.803342,0.27928 1.223563,0.35036 0.704028,0.12835 1.408936,0.25295 2.115334,0.36738 0.780065,0.11691 1.563213,0.21995 2.352743,0.2421 0.680689,0.0219 1.361602,0.0367 2.042131,0.0641 0.690039,0.013 1.380527,0.0365 2.070471,0.006 0.697206,-0.03 1.391888,-0.0896 2.084562,-0.17535 0.391422,-0.0469 0.782748,-0.10084 1.175811,-0.13255 0.308062,-0.0248 0.54134,-0.0329 0.851169,-0.0428 0.150215,-0.005 0.300477,-0.008 0.450716,-0.012 0.863798,-0.0218 1.727808,-0.035 2.591556,-0.0594 0.722265,-0.0255 1.444374,-0.0705 2.157825,-0.19249 0.326015,-0.0585 0.649534,-0.12392 0.973342,-0.19355 0.189902,-0.0408 0.468347,-0.0983 0.652851,-0.1506 0.117856,-0.0334 0.233244,-0.075 0.349864,-0.1125 0.104029,-0.0449 0.209777,-0.0859 0.312087,-0.13458 0.435874,-0.2073 0.830079,-0.49578 1.165344,-0.84196 0.143224,-0.16265 0.19617,-0.21591 0.326273,-0.39195 0.183269,-0.24799 0.333499,-0.51796 0.474041,-0.79176 0.238284,-0.47895 0.451649,-0.97267 0.524602,-1.50768 0.0096,-0.096 0.02252,-0.19167 0.02884,-0.28791 0.02416,-0.36765 -0.01267,-0.73531 -0.0473,-1.10089 -0.0354,-0.37766 -0.06915,-0.7565 -0.06939,-1.13607 -0.0089,-0.50885 -0.02577,-1.01749 -0.05594,-1.52557 -0.02925,-0.57629 -0.05525,-1.15294 -0.07442,-1.72963 -0.0109,-0.5602 -0.0071,-1.1214 0.07831,-1.67676 0.07322,-0.57027 0.171873,-1.13798 0.192841,-1.71382 0.0061,-0.499633 -0.01151,-0.999285 -0.05353,-1.497295 -0.05598,-0.646538 -0.14219,-1.291523 -0.14923,-1.941292 0.0013,-0.101428 -0.0011,-0.202952 0.0037,-0.304282 0.02069,-0.454017 0.122912,-0.899041 0.207566,-1.343919 0.121597,-0.60801 0.215786,-1.226262 0.119311,-1.845852 -0.08022,-0.558401 -0.195776,-1.113089 -0.382829,-1.646426 -0.170965,-0.488945 -0.358396,-0.973981 -0.612055,-1.427014 -0.17222,-0.299911 -0.366921,-0.583549 -0.576268,-0.858819 -0.197212,-0.251714 -0.393988,-0.503828 -0.601345,-0.747363 -0.21477,-0.242703 -0.448934,-0.464524 -0.698359,-0.671603 -0.275932,-0.231439 -0.56805,-0.440946 -0.882296,-0.618032 -0.534244,-0.301919 -1.098246,-0.546656 -1.690444,-0.711748 -0.644538,-0.150474 -1.298432,-0.253338 -1.956369,-0.325487 -0.621411,-0.08035 -1.244751,-0.140624 -1.872162,-0.141439 -0.818431,-0.01323 -1.637062,-0.0016 -2.455566,-0.0067 -0.741032,-0.0016 -1.482143,-0.0021 -2.223045,-0.01783 -0.560827,-0.0136 -1.121566,-0.03578 -1.682674,-0.02879 -0.499488,3e-6 -0.998979,8e-6 -1.498467,-5e-5 -0.548841,-8.5e-5 -1.097682,-2.6e-4 -1.646524,-5.29e-4 -0.619439,-2.65e-4 -1.238887,-0.0013 -1.858324,7.93e-4 -0.452044,0.0032 -0.904595,0.0072 -1.355397,0.04448 -0.54437,0.04758 -1.092671,0.09701 -1.614908,0.269237 -0.228704,0.07845 -0.377016,0.123048 -0.599671,0.226643 -0.343799,0.159956 -0.661082,0.372522 -0.919157,0.651832 -1.055989,1.206847 0.650748,2.70024 1.706737,1.493396 z" />
    <path
       style="fill:#ffffff;stroke-width:0.264583"
       id="path24"
       d="m 60.002253,93.697154 c -0.03013,0.438679 -0.05652,0.877409 -0.07334,1.316842 -0.01421,0.398978 -0.01805,0.798213 -0.0199,1.197406 -7.93e-4,0.219938 -2.64e-4,0.439878 -9e-5,0.659815 -0.0059,0.298794 0.0097,0.597051 0.02379,0.895377 0.01299,0.401796 0.03491,0.803261 0.06011,1.204465 0.02914,0.553897 0.06239,1.107501 0.0984,1.661001 0.02429,0.48575 0.05926,0.97091 0.08166,1.45676 0.01667,0.39801 0.01841,0.79643 0.01992,1.19473 -0.005,0.38137 0.01035,0.76334 -0.0045,1.14452 -0.01717,0.33779 -0.02993,0.67572 -0.03713,1.01387 -0.01005,0.38666 -0.009,0.7725 0.0195,1.15827 0.05701,0.50447 0.188897,1.00641 0.446667,1.44796 0.06562,0.11241 0.145609,0.21579 0.218414,0.32368 0.376319,0.47803 0.883174,0.80886 1.44145,1.03733 0.09775,0.04 0.197593,0.0747 0.296389,0.11207 0.543213,0.19068 1.11593,0.24694 1.686922,0.27432 0.326777,0.012 0.653825,0.0101 0.980752,0.009 0.405628,0.002 0.810959,-0.002 1.216348,-0.0167 0.414637,-0.009 0.828032,-0.0364 1.23984,-0.085 0.170024,-0.0236 0.340863,-0.0355 0.512318,-0.0397 0.300064,-0.005 0.600189,-0.003 0.900277,-0.003 0.437335,2.5e-4 0.87467,5.2e-4 1.312005,5.2e-4 0.310343,-0.007 0.6198,0.004 0.929616,0.0192 0.347697,0.0174 0.695791,0.0232 1.043856,0.0265 0.425521,0.022 0.846272,-0.0307 1.264073,-0.10566 0.466577,-0.0808 0.913223,-0.23849 1.347179,-0.42384 0.290338,-0.14197 0.579234,-0.29448 0.83947,-0.48785 0.202811,-0.15069 0.244853,-0.19709 0.421949,-0.35992 0.395068,-0.37295 0.6984,-0.81175 0.966166,-1.28119 0.197012,-0.36074 0.347504,-0.74456 0.438825,-1.14569 0.06007,-0.26387 0.06675,-0.37063 0.09948,-0.63518 0.05237,-0.47948 0.04462,-0.96129 0.02323,-1.44213 -0.0158,-0.31983 -0.02164,-0.64 -0.02519,-0.96016 -0.004,-0.29787 -0.0052,-0.59541 0.009,-0.89296 0.01918,-0.34431 0.02817,-0.68901 0.03286,-1.03379 -0.007,-0.39644 -0.0266,-0.79246 -0.03556,-1.188865 -0.0072,-0.405784 -0.0079,-0.811649 -0.0085,-1.217488 -2.65e-4,-0.366488 -1.22e-4,-0.732978 -1.6e-5,-1.099468 0.0031,-0.357296 5.29e-4,-0.714201 -0.01521,-1.071174 -0.01397,-0.440346 -0.05691,-0.878549 -0.113971,-1.315154 -0.04508,-0.424667 -0.118171,-0.80318 -0.322282,-1.190638 -0.06457,-0.122574 -0.154342,-0.230116 -0.231513,-0.345175 -0.09435,-0.100367 -0.181509,-0.208026 -0.283064,-0.301099 -0.445709,-0.408495 -1.030801,-0.688189 -1.574213,-0.939088 -0.607364,-0.263139 -1.218623,-0.516205 -1.847842,-0.722329 -0.535125,-0.176889 -1.092634,-0.260551 -1.646637,-0.352697 -0.52741,-0.08974 -1.061325,-0.123693 -1.59527,-0.141282 -0.5367,-0.01791 -1.073309,-0.0079 -1.609395,0.02021 -0.494831,0.03453 -0.990507,0.0504 -1.48636,0.05941 -0.446434,0.02466 -0.8977,0.01053 -1.340337,0.08407 -0.113115,0.01879 -0.224544,0.04662 -0.336814,0.06993 -0.680419,0.175125 -1.297724,0.513204 -1.789073,1.020556 -0.125548,0.129635 -0.231717,0.276728 -0.347575,0.415092 -0.105654,0.166756 -0.221872,0.327268 -0.316958,0.500268 -0.417714,0.759976 -0.646237,1.622555 -0.778701,2.474614 -0.0386,0.24828 -0.06184,0.498708 -0.09275,0.748062 -0.147409,1.516057 -0.134405,3.040686 -0.109966,4.561705 0.01812,0.85087 0.01765,1.7054 0.137978,2.54994 0.08716,0.61171 0.124976,0.69584 0.275294,1.29259 0.245887,0.82656 0.585504,1.64772 1.185862,2.2858 0.478576,0.50864 0.625912,0.54775 1.209609,0.90927 0.227515,0.095 0.449135,0.2056 0.682543,0.28505 0.813861,0.27702 1.631643,0.33697 2.482628,0.21948 0.686718,-0.0948 1.019593,-0.23654 1.667316,-0.45072 0.951543,-0.37326 1.865046,-0.85417 2.681206,-1.473 0.555606,-0.42127 0.64095,-0.53694 1.136597,-1.02527 0.69719,-0.75074 1.209778,-1.63481 1.557763,-2.59555 0.196684,-0.54301 0.222729,-0.72405 0.35501,-1.2827 0.167384,-0.85826 0.243645,-1.733975 0.174176,-2.607444 -0.05156,-0.648364 -0.101899,-0.79179 -0.233437,-1.430325 -0.266229,-0.97473 -0.597355,-1.95649 -1.215707,-2.772293 -0.489723,-0.646097 -0.675902,-0.745398 -1.283338,-1.253697 -0.254564,-0.156098 -0.498293,-0.331427 -0.763693,-0.468296 -0.884889,-0.456348 -1.834574,-0.668607 -2.82923,-0.664692 -0.864613,0.0034 -1.136295,0.10622 -1.97072,0.284954 -0.298365,0.103952 -0.603771,0.189547 -0.895093,0.311854 -0.854019,0.358545 -1.665779,0.89091 -2.233276,1.63636 -0.545,0.715897 -0.574995,0.993582 -0.873715,1.821194 -0.05987,0.336634 -0.145005,0.669745 -0.179623,1.009906 -0.105191,1.033661 0.0118,2.098654 0.257638,3.104189 0.195143,0.79819 0.318465,1.03377 0.616333,1.77717 0.12546,0.24271 0.235879,0.49381 0.376381,0.72814 0.53191,0.88711 1.326774,1.73388 2.353807,2.02667 0.289592,0.0826 0.595617,0.0892 0.893427,0.13382 0.302691,-0.0437 0.612759,-0.0516 0.908076,-0.13115 1.001194,-0.26956 1.938158,-1.0704 2.61166,-1.83012 0.17767,-0.20042 0.337105,-0.41628 0.505658,-0.62442 0.150178,-0.22593 0.31241,-0.4443 0.45053,-0.6778 0.411226,-0.69521 0.729184,-1.46208 0.885267,-2.256744 0.136604,-0.695484 0.102666,-0.863219 0.09931,-1.55443 -0.03029,-0.230693 -0.04536,-0.463899 -0.09087,-0.692078 -0.188113,-0.943245 -0.659276,-1.894438 -1.515488,-2.40428 -0.272333,-0.162163 -0.587045,-0.239225 -0.880565,-0.358841 -0.282374,-0.03052 -0.56315,-0.08649 -0.847125,-0.09155 -0.445545,-0.0079 -1.01976,0.09535 -1.452113,0.204949 -0.335033,0.08493 -0.894302,0.26946 -1.215117,0.421048 -0.206446,0.09755 -0.400733,0.218993 -0.601099,0.32849 -0.528275,0.417158 -0.751525,0.518642 -1.106188,1.154928 -0.308901,0.554188 -0.400117,1.086093 -0.374775,1.713788 0.02368,0.586669 0.17385,0.867249 0.371954,1.399455 0.104635,0.185745 0.200541,0.376675 0.313907,0.557215 0.269595,0.42934 0.690309,0.91719 1.096132,1.22776 0.121994,0.0934 0.253793,0.17315 0.38069,0.25972 0.626004,0.35337 1.264309,0.51143 1.984888,0.42652 0.32706,-0.0385 0.470009,-0.0964 0.761381,-0.18956 0.06707,-0.0256 0.134133,-0.0512 0.201197,-0.0768 0.04165,-0.0168 0.08299,-0.0343 0.124939,-0.0504 0.02291,-0.009 -0.04387,0.0234 -0.06786,0.0286 -0.145254,0.0313 -0.289843,0.0799 -0.438428,0.0805 -0.431453,0.002 -0.488765,-0.0478 -0.808027,-0.18198 0.0011,0.007 -0.0019,0.0166 0.0033,0.022 0.514418,0.55349 -0.220996,-0.29473 0.425899,0.44096 0.351714,0.39999 0.67922,0.82129 1.008806,1.23937 0.274429,0.35321 0.552741,0.70365 0.816618,1.06492 0.101786,0.13936 0.211778,0.28218 0.291735,0.43585 0.0048,0.0127 0.01693,0.0248 0.01426,0.0381 -0.0019,0.009 -0.01291,-0.0138 -0.01752,-0.0219 -0.01418,-0.0249 -0.0315,-0.0715 -0.03553,-0.069 -0.0053,0.003 -0.0013,0.0125 -5.29e-4,0.0186 0.0053,0.0445 0.01241,0.0888 0.01863,0.13326 0.03679,0.22592 0.07181,0.46902 0.18051,0.67392 0.103984,0.19602 0.148606,0.50489 0.364249,0.55716 0.850236,0.2061 1.792404,0.4517 2.619319,0.16606 0.463921,-0.16025 0.453568,-0.87057 0.68035,-1.30585 -0.0059,-0.20262 0.007,-0.40665 -0.0177,-0.60785 -0.02283,-0.18633 -0.07238,-0.36886 -0.124095,-0.54931 -0.122404,-0.42717 -0.334401,-0.93908 -0.504901,-1.34077 -0.262353,-0.61809 -0.493652,-1.11107 -0.774674,-1.72465 -0.544777,-1.15772 -1.059288,-2.330615 -1.648285,-3.467082 -0.330499,-0.637696 -0.407498,-0.753901 -0.757484,-1.354902 -0.404992,-0.663147 -0.851183,-1.310055 -1.412295,-1.852555 -0.287139,-0.277611 -0.4347,-0.380198 -0.739492,-0.616754 -0.612048,-0.462052 -1.286761,-0.827167 -1.950379,-1.207302 -0.383159,-0.204202 -0.747003,-0.440957 -1.109697,-0.678804 -0.243374,-0.176387 -0.489161,-0.347514 -0.746791,-0.502465 -0.325078,-0.192228 -0.681006,-0.31733 -1.043155,-0.417856 -0.282641,-0.07395 -0.572809,-0.105736 -0.863978,-0.116901 -0.269465,-0.01177 -0.53036,0.04246 -0.789167,0.109257 -0.09024,0.02328 -0.176906,0.06248 -0.26778,0.08155 -0.170193,0.05421 -0.342842,0.09898 -0.513575,0.1518 -0.373761,0.120015 -0.722069,0.308239 -1.023622,0.560297 -0.07607,0.06358 -0.145193,0.135041 -0.217787,0.202563 -0.30612,0.309779 -0.572762,0.662654 -0.744019,1.065784 -0.0474,0.111572 -0.08209,0.228121 -0.123137,0.342183 -0.131709,0.482026 -0.178056,0.985102 -0.144105,1.483563 0.0065,0.09595 0.01947,0.19136 0.02921,0.287042 0.309171,2.654752 4.063558,2.21752 3.754388,-0.437235 v 0 c -0.01085,-0.04651 -0.01807,-0.09259 -0.01765,-0.140631 2.38e-4,-0.0265 0.004,-0.05291 0.004,-0.07941 5e-6,-0.0049 -7.94e-4,-0.01818 -0.0039,-0.01431 -0.0097,0.0122 -0.01249,0.02854 -0.01873,0.04281 -0.03689,0.07602 -0.03978,0.0906 -0.08668,0.156736 -0.01286,0.01812 -0.0462,0.06977 -0.04665,0.04757 -8.8e-5,-0.0043 0.04752,-0.05878 0.04929,-0.06084 -0.08824,0.06538 -0.183417,0.13203 -0.293164,0.1547 0.155522,-0.04814 0.31323,-0.08825 0.468294,-0.138097 0.05157,-0.01574 0.103145,-0.03147 0.154718,-0.04721 -0.0024,5.9e-5 -0.0096,7.94e-4 -0.0073,1.78e-4 0.02503,-0.0079 0.101407,-0.01654 0.07567,-0.02162 -0.03113,-0.0061 -0.06202,0.01381 -0.09347,0.0181 -0.136101,0.01855 -0.138059,0.01397 -0.270668,0.01289 0.02854,8.5e-5 0.0057,-0.0028 0.0283,-0.0053 0.07916,0.01566 0.04639,0.0021 0.125724,0.0421 -0.01159,-0.0085 -0.04694,-0.03306 -0.03476,-0.02545 0.141264,0.0881 0.272775,0.191571 0.409056,0.286845 0.05927,0.04144 0.119402,0.08162 0.179102,0.122436 0.426202,0.279344 0.854856,0.555673 1.303708,0.797801 0.517956,0.296537 1.047472,0.576299 1.530948,0.928438 0.02074,0.01548 0.279432,0.206574 0.319413,0.242383 0.356499,0.31928 0.613336,0.73216 0.866598,1.132583 0.290068,0.494466 0.365699,0.609933 0.640569,1.138989 0.570331,1.097756 1.065088,2.232506 1.592601,3.350846 0.323628,0.7058 0.651875,1.40984 0.940904,2.13081 0.04121,0.10281 0.074,0.20892 0.116691,0.31113 0.0057,0.0136 0.02498,0.0492 0.02774,0.0346 0.01783,-0.0932 0.01331,-0.18935 0.01995,-0.28403 0.220488,-0.3834 0.23713,-1.02549 0.661464,-1.15022 1.812766,-0.53288 2.348407,-0.35964 2.904741,0.70807 0.111821,0.2146 0.0595,0.19868 0.0954,0.35482 0.006,0.026 -0.0076,-0.0528 -0.01148,-0.0792 -0.0286,-0.19642 -0.05032,-0.39111 -0.100018,-0.5842 -0.08182,-0.31793 -0.202629,-0.62207 -0.36702,-0.90649 -0.0549,-0.0904 -0.107561,-0.18214 -0.164705,-0.27111 -0.370835,-0.57737 -0.818433,-1.102 -1.230882,-1.64881 -0.701238,-0.88794 -1.39705,-1.803437 -2.299179,-2.49963 -0.179969,-0.09982 -0.345519,-0.231891 -0.539911,-0.299458 -0.64911,-0.225615 -1.191551,-0.208833 -1.803765,0.06275 0.0062,0.04316 -0.0027,-0.003 0.109572,0.0019 0.134141,0.006 0.296172,0.03605 0.388559,0.140928 0.0068,0.01072 0.02402,0.01998 0.02048,0.03219 -0.0027,0.0092 -0.01929,-0.0047 -0.02669,-0.01074 -0.09859,-0.08103 -0.173813,-0.182274 -0.258873,-0.275894 -0.01781,-0.01961 -0.03852,-0.03638 -0.05778,-0.05457 -0.01479,-0.01114 -0.0259,-0.03228 -0.04438,-0.03341 -0.04766,-0.0029 -0.09113,0.18574 -0.109651,0.218625 -0.07352,0.130503 -0.176432,0.239242 -0.311248,0.307909 -0.01132,0.0058 -0.0036,-0.02516 -0.0054,-0.03775 0.03754,-0.0295 0.07035,-0.06627 0.112609,-0.08848 0.144875,-0.07618 0.457547,-0.187635 0.610505,-0.233498 0.100211,-0.03005 0.202732,-0.05178 0.304141,-0.0775 0.05627,-0.01426 0.12391,-0.0058 0.168908,-0.04247 0.01908,-0.01553 -0.03165,-0.03768 -0.04748,-0.05651 -0.194434,-0.148691 -0.244369,-0.155223 -0.366294,-0.369641 -0.01614,-0.02838 -0.03476,-0.06684 -0.01987,-0.0959 0.0097,-0.01886 0.03598,0.02469 0.04711,0.04272 0.07254,0.117588 0.07695,0.211328 0.107627,0.350668 0.01942,0.213481 0.04058,0.321842 0.01132,0.540501 -0.07272,0.543587 -0.325716,1.04334 -0.625613,1.4942 -0.246068,0.31844 -0.308565,0.41949 -0.583113,0.70051 -0.08011,0.082 -0.166724,0.15741 -0.252023,0.23399 -0.07663,0.0688 -0.218766,0.1601 -0.173638,0.19042 0.04607,0.031 0.107582,0.0273 0.161374,0.041 0.02424,0.0117 0.244113,0.0809 0.253818,0.17364 0.0019,0.0173 -0.0358,0.0191 -0.05107,0.0108 -0.05539,-0.0303 -0.103373,-0.0737 -0.147177,-0.11917 -0.212516,-0.22051 -0.240438,-0.32462 -0.402815,-0.61556 -0.07315,-0.17169 -0.154125,-0.34026 -0.219443,-0.51509 -0.280448,-0.750633 -0.435869,-1.557466 -0.414859,-2.360617 0.0036,-0.13739 0.0249,-0.273746 0.03733,-0.410618 0.02207,-0.101928 0.04361,-0.203962 0.06616,-0.305779 0.01307,-0.05904 0.01685,-0.12121 0.04072,-0.176776 0.188592,-0.439443 0.753107,-0.611978 1.151776,-0.774006 0.160623,-0.0425 0.319109,-0.0941 0.481867,-0.127498 0.315706,-0.06478 0.556789,-0.08226 0.876044,-0.06698 0.113633,0.0054 0.228229,0.01302 0.339116,0.03845 0.271052,0.06214 0.411954,0.150469 0.65441,0.27254 0.162973,0.115837 0.356711,0.238715 0.493522,0.389506 0.371642,0.40962 0.504698,0.971134 0.672042,1.481312 0.08393,0.361495 0.114456,0.441418 0.152736,0.80989 0.05526,0.531955 0.0098,1.065126 -0.08336,1.590116 -0.02643,0.12356 -0.04817,0.24821 -0.07928,0.37067 -0.156165,0.61479 -0.408424,1.19986 -0.827336,1.68258 -0.261882,0.27227 -0.333195,0.36511 -0.632627,0.60048 -0.52511,0.41276 -1.118208,0.7323 -1.73279,0.98917 -0.367313,0.13425 -0.442286,0.17383 -0.803101,0.26363 -0.175741,0.0438 -0.330541,0.0753 -0.511963,0.0606 -0.114247,-0.009 -0.299424,-0.0575 -0.419743,-0.0867 -0.03591,-0.01 -0.07142,-0.0215 -0.107736,-0.0298 -0.02135,-0.005 -0.04582,7.9e-4 -0.06498,-0.01 -0.250746,-0.13884 -0.344488,-0.59034 -0.436502,-0.82466 -0.09526,-0.34515 -0.121087,-0.40144 -0.177305,-0.7661 -0.111363,-0.72238 -0.09237,-1.45623 -0.114313,-2.18437 -0.02196,-1.351651 -0.03763,-2.706333 0.08401,-4.054309 0.01902,-0.170643 0.03347,-0.34186 0.05708,-0.511931 0.0626,-0.450932 0.167902,-0.900041 0.347853,-1.31925 0.0051,-0.01527 0.02352,-0.03198 0.01524,-0.04576 -0.0029,-0.0048 -0.104891,0.02775 -0.05352,-0.01183 0.0105,-0.0081 0.02297,-0.01331 0.03432,-0.02021 0.0068,-0.0041 0.01336,-0.0085 0.02006,-0.01283 0.01847,-0.03397 0.190145,-0.03008 0.211285,-0.03117 0.228539,-0.0118 0.457449,-0.01699 0.686073,-0.02683 0.540742,-0.01005 1.081331,-0.02712 1.620991,-0.06428 0.428006,-0.02416 0.856448,-0.03012 1.285007,-0.01662 0.36649,0.01111 0.733266,0.03054 1.095383,0.09197 0.37162,0.06181 0.74772,0.10854 1.10822,0.22198 0.491469,0.153064 0.960549,0.367109 1.43601,0.562594 0.09859,0.04422 0.264203,0.116025 0.364972,0.169455 0.05551,0.02944 0.108723,0.06302 0.163478,0.09384 0.02096,0.0118 0.06117,0.05788 0.06361,0.03397 0.0085,-0.08322 -0.234865,-0.08144 -0.161465,-0.192116 -0.145317,-0.245981 -0.120576,-0.177681 -0.22475,-0.498578 -0.0045,-0.01381 -0.03653,-0.268182 0.0074,0.06817 0.0067,0.05161 0.01371,0.103187 0.02056,0.154781 0.04343,0.329602 0.07674,0.660247 0.08566,0.99286 0.01368,0.30018 0.01347,0.600278 0.0114,0.900779 -1.06e-4,0.368848 -2.64e-4,0.737693 2.4e-5,1.106538 7.94e-4,0.432593 0.0016,0.865214 0.0095,1.297744 0.0081,0.350893 0.02085,0.701593 0.03491,1.052293 -0.0039,0.3031 -0.01199,0.6061 -0.02913,0.90878 -0.01688,0.37011 -0.01855,0.74023 -0.01281,1.11067 0.0041,0.36263 0.01103,0.72526 0.02876,1.08752 0.01283,0.28195 0.02492,0.56406 -0.0029,0.84572 -0.0016,0.0189 -0.007,0.18343 -0.01442,0.20771 -0.0141,0.0461 -0.04946,0.1166 -0.06928,0.15866 -0.06969,0.1353 -0.147767,0.26205 -0.255923,0.37019 -0.0091,0.01 -0.02601,0.0163 -0.02722,0.0297 -7.94e-4,0.009 0.01619,-0.0127 0.02561,-0.0121 0.0058,2.7e-4 -0.0069,0.01 -0.01167,0.013 -0.06728,0.0463 -0.07629,0.0445 -0.142007,0.0864 -0.0069,0.004 -0.01283,0.0102 -0.01926,0.0153 -0.167436,0.0754 -0.340011,0.14232 -0.521856,0.17318 -0.07028,0.0132 -0.142592,0.0173 -0.21127,0.0372 -0.0093,0.003 0.03844,0.003 0.02888,0.004 -0.119684,0.0233 -0.246941,-0.0103 -0.367276,0.003 -0.297969,-0.003 -0.595977,-0.007 -0.893636,-0.0221 -0.371398,-0.0183 -0.742722,-0.0305 -1.11466,-0.0238 -0.437269,-1.1e-4 -0.874535,-2.6e-4 -1.311804,-5.3e-4 -0.336138,-1e-4 -0.672322,-0.002 -1.008415,0.005 -0.285496,0.009 -0.570447,0.0273 -0.853762,0.0649 -0.307407,0.0374 -0.616165,0.0541 -0.925788,0.0607 -0.365424,0.0132 -0.730774,0.0155 -1.096433,0.0144 -0.265015,0.001 -0.530112,0.003 -0.795047,-0.005 -0.189682,-0.008 -0.380992,-0.0147 -0.567767,-0.0511 -0.02132,-0.006 -0.04315,-0.011 -0.06398,-0.0188 -0.03405,-0.0127 -0.06569,-0.0317 -0.100409,-0.0425 -0.01209,-0.004 0.01164,0.0228 0.02021,0.0322 0.133951,0.14578 0.05249,0.0408 0.158483,0.18979 0.04591,0.0881 0.05572,0.0971 0.08512,0.19263 0.0026,0.008 0.0063,0.0336 0.0021,0.026 -0.0095,-0.0172 -0.0063,-0.0407 -0.01865,-0.056 -0.01669,-0.0207 0.01963,0.11719 -0.0094,-0.004 -0.02939,-0.25421 -0.0029,-0.51156 -0.0074,-0.76674 0.0067,-0.32485 0.02048,-0.6494 0.03608,-0.97394 0.01183,-0.42598 0.0057,-0.85214 0.0063,-1.27826 -0.0019,-0.45201 -0.0044,-0.90416 -0.02397,-1.35583 -0.02387,-0.5091 -0.05952,-1.01752 -0.08555,-1.52651 -0.03589,-0.551566 -0.06883,-1.103246 -0.09803,-1.655204 -0.02453,-0.380828 -0.04421,-0.761968 -0.05673,-1.143376 -0.01138,-0.240188 -0.02627,-0.479959 -0.01958,-0.720579 -2.12e-4,-0.212871 -5.29e-4,-0.425741 5e-5,-0.638612 0.0016,-0.357208 0.0048,-0.714457 0.01722,-1.07148 0.01516,-0.403405 0.03976,-0.806125 0.06769,-1.208815 0.177784,-2.666775 -3.593605,-2.918201 -3.771392,-0.251426 z" />
    <path
       style="fill:#f2f2f2;stroke-width:0.264583"
       id="path28"
       d="m 57.443253,89.787271 c 0.101195,0.19911 0.241297,0.373991 0.389414,0.539713 0.0688,0.07694 0.147108,0.144391 0.220294,0.216895 0.0164,0.01624 0.03121,0.03405 0.04716,0.05075 0.0049,0.0057 0.0099,0.01138 0.01484,0.01707 0.03823,0.04422 -0.0063,-0.0064 0.05535,0.06163 0.0021,0.0024 0.0085,0.0096 0.0062,0.0073 -0.0095,-0.0093 -0.01693,-0.02013 -0.0045,-0.0031 0.01326,0.01627 0.02652,0.03255 0.03977,0.04882 2.41e-4,5.3e-4 0.0011,0.0016 7.94e-4,0.0013 -0.008,-0.01037 -0.01624,-0.02056 -0.02387,-0.03121 -0.0056,-0.0079 -0.02101,-0.0324 -0.01582,-0.02426 0.04368,0.06861 0.03123,0.04187 0.04339,0.06831 0.04983,0.07509 0.106386,0.145195 0.15811,0.218852 0.05991,0.09004 0.121801,0.178435 0.18755,0.264343 0.08064,0.112615 0.167253,0.220506 0.259487,0.323752 0.110712,0.115739 0.229994,0.222591 0.356145,0.321128 0.10091,0.0805 0.206883,0.15423 0.315828,0.223353 0.05242,0.02952 0.102955,0.06152 0.15726,0.08767 0.05468,0.02633 0.07847,0.0333 0.13562,0.054 0.225211,0.07892 0.458732,0.07173 0.693021,0.05721 0.236447,-0.02191 0.472384,-0.04819 0.708898,-0.06954 0.236559,-0.02162 0.472342,-0.04972 0.707636,-0.08216 0.215979,-0.02833 0.430644,-0.06679 0.644903,-0.106 0.164391,-0.03068 0.327819,-0.06652 0.4908,-0.103889 0.118504,-0.0268 0.240067,-0.03565 0.360712,-0.04756 0.1744,-0.01511 0.34948,-0.01934 0.524258,-0.0283 0.166169,-0.0072 0.332253,-0.01614 0.498335,-0.02516 0.251947,-0.01191 0.503933,-0.02268 0.756076,-0.02949 0.275492,-0.0065 0.551069,-0.0076 0.826624,-0.0083 0.275053,-0.0011 0.550032,0.0082 0.824929,0.01643 0.357664,0.0098 0.714798,0.03036 1.071957,0.05083 0.373612,0.01942 0.746447,0.05038 1.119513,0.07775 0.343045,0.02627 0.686382,0.04781 1.030192,0.06061 0.342945,0.0086 0.684564,0.03837 1.025848,0.07128 0.414371,0.04059 0.827219,0.09447 1.240652,0.143351 0.271291,0.03373 0.541488,0.07574 0.810125,0.12633 0.229354,0.04871 0.459362,0.09491 0.687618,0.14862 0.22657,0.05702 0.453546,0.112463 0.681233,0.164904 0.258572,0.06006 0.519083,0.112019 0.779973,0.160925 0.280993,0.0552 0.561255,0.114027 0.842058,0.170214 0.212145,0.03643 0.426196,0.07326 0.641842,0.08083 0.05544,0.0019 0.110948,7.94e-4 0.16642,0.0011 0.311491,-0.01781 0.616112,-0.102034 0.89785,-0.235199 0.04821,-0.02278 0.09474,-0.049 0.142105,-0.0735 0.190175,-0.109331 0.352568,-0.256585 0.475221,-0.438732 0.06413,-0.09525 0.07819,-0.132704 0.127281,-0.23364 0.03473,-0.07515 0.06413,-0.152567 0.09449,-0.229537 0.01445,-0.03663 0.02633,-0.06804 0.04518,-0.101473 0.0055,7.94e-4 -0.01379,0.02432 -0.0075,0.02053 0.0069,-0.0042 0.01056,-0.0123 0.01593,-0.01836 0.01913,-0.02167 0.03738,-0.04429 0.05769,-0.06485 0.0051,-0.0058 0.04243,-0.04744 0.05055,-0.05731 0.03444,-0.04188 0.06007,-0.07404 0.08855,-0.121986 0.02939,-0.04947 0.06025,-0.119507 0.04249,-0.07944 0.05738,-0.11166 0.08268,-0.233709 0.09273,-0.357749 0.0049,-0.145401 -0.02045,-0.289787 -0.08342,-0.421722 -0.01622,-0.03399 -0.03582,-0.06626 -0.05372,-0.09938 -0.05323,-0.08736 -0.114454,-0.169341 -0.182359,-0.245798 -0.110699,-0.124643 -0.0164,-0.01386 -0.06557,-0.07193 -0.10118,-0.11216 -0.219115,-0.206971 -0.335325,-0.302768 -0.131977,-0.100912 -0.270947,-0.194384 -0.419248,-0.269865 -0.03805,-0.01937 -0.07703,-0.03684 -0.115549,-0.05527 -0.192585,-0.08604 -0.389761,-0.161166 -0.583928,-0.243491 -0.20729,-0.08436 -0.412054,-0.174238 -0.617029,-0.264035 -0.290058,-0.119378 -0.584719,-0.22691 -0.881576,-0.328023 -0.27608,-0.08766 -0.547439,-0.188986 -0.823659,-0.276159 -0.185446,-0.05544 -0.374496,-0.09952 -0.5663,-0.126288 -0.120899,-0.01688 -0.205809,-0.02286 -0.327425,-0.03365 -0.346866,-0.03134 -0.695095,-0.04116 -1.043152,-0.04752 -0.320272,-0.0039 -0.640535,-0.0035 -0.960784,-0.0091 -0.334383,-0.0059 -0.66879,-0.0085 -1.003159,-0.01516 -0.380709,-0.0062 -0.761331,-0.01614 -1.142045,-0.02209 -0.473766,-0.0064 -0.947582,-0.007 -1.421382,-0.0076 -0.479821,-2.65e-4 -0.959617,-0.003 -1.439362,0.0067 -0.510802,0.01455 -1.021797,0.01812 -1.532721,0.02574 -0.442327,0.01233 -0.884727,0.02148 -1.327099,0.03181 -0.426263,0.01087 -0.852641,0.015 -1.27902,0.01757 -0.375081,0.0034 -0.750014,0.01402 -1.124979,0.02328 -0.286689,0.007 -0.573453,0.0099 -0.860219,0.01132 -0.20375,0.0036 -0.407371,-0.0043 -0.611021,-0.0093 -0.15808,-0.0011 -0.315933,-0.01127 -0.474035,-0.01138 -0.0911,-6.9e-5 -0.158771,0.0024 -0.24892,0.0051 -0.153646,0.0058 -0.307607,0.02241 -0.457581,0.05727 -0.09562,0.02223 -0.115861,0.03086 -0.207253,0.0605 -0.14794,0.05564 -0.291719,0.12193 -0.427337,0.203078 -0.04126,0.03245 -0.08648,0.06041 -0.123767,0.09735 -0.175389,0.173816 -0.252119,0.375 -0.250616,0.621515 0.0011,0.158194 0.03619,0.242559 0.07942,0.389051 0.08445,0.229931 0.208989,0.443235 0.381751,0.618363 0.120534,0.122182 0.164418,0.141967 0.306002,0.238527 0.176604,0.08599 0.202583,0.1094 0.389625,0.15966 0.277127,0.07447 0.565655,0.08068 0.850445,0.08571 0.464008,-0.0076 0.927444,-0.03334 1.391333,-0.04632 0.45466,-0.01368 0.909457,-0.01011 1.36421,-0.0058 0.612764,0.0056 1.225531,0.0059 1.838256,0.01516 0.724895,0.0071 1.448477,0.04891 2.171229,0.102182 0.521261,0.0413 1.041056,0.09863 1.561666,0.147047 0.383738,0.03569 0.441203,0.03933 0.82386,0.07062 0.755552,0.06346 1.512596,0.107297 2.268108,0.170945 0.455732,0.0432 0.911559,0.09388 1.362491,0.174093 0.08187,0.01455 0.16334,0.0313 0.245009,0.04694 0.591995,0.122458 1.179695,0.264399 1.770174,0.393859 0.329697,0.06888 0.65882,0.143082 0.992031,0.193606 0.215951,0.03274 0.266933,0.03503 0.484317,0.05672 0.216287,0.01598 0.432769,0.03063 0.649481,0.03954 0.0796,0.0033 0.239027,0.0084 0.322345,0.0056 0.05295,-0.0019 0.105719,-0.0071 0.158578,-0.01066 0.05672,-0.01037 0.114479,-0.01611 0.170148,-0.03112 0.20679,-0.05575 0.392612,-0.165968 0.522922,-0.339497 0.122129,-0.16264 0.120499,-0.226754 0.172244,-0.416965 0.0031,-0.06982 0.01529,-0.139803 0.0094,-0.209444 -0.02352,-0.279898 -0.138187,-0.514395 -0.33478,-0.714878 -0.186452,-0.190138 -0.314344,-0.239935 -0.546053,-0.371176 -0.549238,-0.257323 -1.147863,-0.36662 -1.741191,-0.467675 -0.323389,-0.05508 -0.684202,-0.109752 -1.008451,-0.159996 -0.768006,-0.113199 -1.53279,-0.2477 -2.302314,-0.350414 -0.598827,-0.0714 -1.201725,-0.09778 -1.8038,-0.125045 -0.805,-0.03414 -1.610794,-0.03825 -2.416342,-0.04717 -0.842639,-0.0039 -1.685054,-0.02246 -2.527307,-0.0473 -0.804426,-0.02848 -1.609892,-0.05662 -2.414519,-0.01699 -0.162499,0.008 -0.324662,0.02175 -0.486995,0.03262 -0.14819,0.01442 -0.296688,0.02598 -0.444571,0.04326 -0.132427,0.01548 -0.264441,0.0345 -0.396185,0.05501 -0.285869,0.04449 -0.573405,0.09935 -0.848257,0.191807 -0.0691,0.02326 -0.136083,0.05236 -0.204123,0.07854 -0.157353,0.0688 -0.302072,0.159851 -0.437647,0.264515 -0.07114,0.05492 -0.136684,0.114818 -0.210754,0.165767 -0.117647,0.08337 -0.256535,0.111384 -0.395706,0.136255 -0.09901,0.01826 -0.199704,0.0214 -0.299656,0.03065 -0.02527,0.0024 -0.07585,-0.01688 -0.07569,0.0085 0.0028,0.445455 0.05605,0.889161 0.08407,1.333743 0.50042,0.05003 1.001559,0.09201 1.503773,0.11943 0.16071,0.0088 0.321537,0.01529 0.482306,0.02294 0.828106,0.03492 1.656929,0.04647 2.48567,0.05232 0.439952,0.0043 0.87952,0.02545 1.318477,0.05429 0.942914,0.06185 1.030386,-1.27163 0.08747,-1.333481 v 0 c -0.464949,-0.03046 -0.930547,-0.05273 -1.396547,-0.05713 -0.810773,-0.0057 -1.621631,-0.01688 -2.431791,-0.05085 -0.154255,-0.0073 -0.308565,-0.01349 -0.462767,-0.02188 -0.488211,-0.0265 -0.975354,-0.06745 -1.461804,-0.116157 -0.01289,0.440743 -0.02445,0.881528 -0.03868,1.322231 -4.3e-5,0.0013 -0.0054,-5.29e-4 -0.004,-7.93e-4 0.154503,-0.01265 0.309435,-0.02273 0.462081,-0.05173 0.139386,-0.02789 0.196081,-0.03572 0.333939,-0.07803 0.209939,-0.06444 0.408435,-0.159118 0.588494,-0.285062 0.03707,-0.02711 0.07472,-0.05344 0.111197,-0.08133 0.08397,-0.06422 0.158572,-0.141383 0.251894,-0.192746 0.03137,-0.01341 0.06195,-0.02881 0.09411,-0.0402 0.209264,-0.07417 0.431244,-0.113676 0.649665,-0.148326 0.113324,-0.01797 0.226859,-0.0349 0.340802,-0.04841 0.13462,-0.01595 0.269812,-0.02664 0.404717,-0.03996 0.146558,-0.01008 0.292952,-0.02289 0.439672,-0.03025 0.777131,-0.03905 1.55507,-0.01 2.332011,0.01709 0.850447,0.02503 1.701054,0.04383 2.55189,0.0478 0.790332,0.0087 1.580912,0.01262 2.370717,0.04588 0.563314,0.02548 1.127419,0.04952 1.687859,0.114726 0.760167,0.10091 1.51538,0.235265 2.274078,0.346348 0.344085,0.05329 0.636939,0.09747 0.980099,0.155289 0.454001,0.07649 0.913865,0.152352 1.341895,0.329115 0.04319,0.02024 0.08625,0.04076 0.129574,0.06071 0.01701,0.0078 0.0329,0.0254 0.05142,0.02265 0.01,-0.0016 2.65e-4,-0.02021 -2.24e-4,-0.03028 -0.0034,-0.05942 -0.01228,-0.119271 0.0086,-0.177077 0.01159,-0.02848 0.01966,-0.05863 0.03473,-0.08542 0.04025,-0.07158 0.08622,-0.122478 0.15508,-0.168119 0.02069,-0.01373 0.112925,-0.0659 0.15153,-0.04872 -0.101587,0.01243 -0.204592,0.0066 -0.306628,0.0024 -0.195398,-0.008 -0.390576,-0.02117 -0.585637,-0.03481 -0.168929,-0.01625 -0.224885,-0.01937 -0.392435,-0.04447 -0.311912,-0.04673 -0.619744,-0.117182 -0.928341,-0.181258 -0.602411,-0.132027 -1.201878,-0.277318 -1.806049,-0.401209 -0.09306,-0.01767 -0.185912,-0.03651 -0.279193,-0.053 -0.485458,-0.0858 -0.976006,-0.140811 -1.466591,-0.186978 -0.756573,-0.06352 -1.514607,-0.107982 -2.271228,-0.171207 -0.371888,-0.03038 -0.431134,-0.03417 -0.804416,-0.06889 -0.530674,-0.04935 -1.06051,-0.107844 -1.591878,-0.149616 -0.748718,-0.05503 -1.498304,-0.09815 -2.249229,-0.105635 -0.615166,-0.0092 -1.23037,-0.0097 -1.845574,-0.01524 -0.471514,-0.0045 -0.943073,-0.0079 -1.414486,0.0062 -0.445088,0.01251 -0.889765,0.03583 -1.334892,0.04593 -0.163113,-0.0016 -0.154996,0.0013 -0.310796,-0.01 -0.05333,-0.0039 -0.11516,-0.0099 -0.169346,-0.01789 -0.01357,-0.0021 -0.02688,-0.0057 -0.04052,-0.0071 -0.0056,-5.29e-4 -0.0113,5.29e-4 -0.01696,0.0011 -0.02096,-0.0075 -0.04785,-0.01609 -0.06445,-0.03195 -0.03369,-0.03219 -0.05561,-0.07494 -0.07491,-0.116525 -0.0032,-0.0037 -0.008,-0.01572 -0.0095,-0.01109 -0.0163,0.05116 0.02246,0.113117 -0.02625,0.158919 -0.05244,0.133689 -0.115454,0.222549 -0.235627,0.29695 0.0059,-0.01154 0.01336,-0.0088 0.05036,-0.02617 0.03247,-0.01521 0.06513,-0.03002 0.09734,-0.04576 0.08996,-0.033 0.184647,-0.04753 0.280527,-0.04938 0.05251,-0.0016 0.138023,-0.0046 0.19114,-0.0047 0.153406,-2.65e-4 0.306586,0.01048 0.459981,0.01111 0.216694,0.0052 0.433367,0.01336 0.650166,0.0097 0.295489,-0.0016 0.590981,-0.0045 0.886397,-0.01172 0.366659,-0.009 0.733287,-0.0195 1.100063,-0.02289 0.434099,-0.0026 0.868204,-0.0069 1.302187,-0.01791 0.438602,-0.01027 0.877231,-0.01921 1.315786,-0.03159 0.513365,-0.0077 1.026803,-0.01125 1.540047,-0.02585 0.470077,-0.0097 0.940218,-0.0065 1.410374,-0.0064 0.467437,5.29e-4 0.934892,0.0011 1.402295,0.0074 0.378788,0.0059 0.757486,0.01588 1.136271,0.02199 0.33546,0.0067 0.670954,0.0093 1.006428,0.01521 0.319944,0.0056 0.639897,0.0053 0.959863,0.009 0.317304,0.0057 0.634791,0.01413 0.951016,0.04266 0.07307,0.0063 0.161141,0.01294 0.23501,0.0223 0.126836,0.01611 0.251659,0.04539 0.374285,0.08117 0.266497,0.0834 0.52754,0.182931 0.79402,0.266462 0.261136,0.08875 0.520168,0.18338 0.775827,0.286954 0.210024,0.092 0.419984,0.183838 0.632238,0.270584 0.179409,0.07586 0.361024,0.146378 0.53975,0.223838 0.08883,0.03875 0.171395,0.0888 0.250008,0.145383 0.06123,0.05046 0.123369,0.09995 0.18162,0.153871 0.03445,0.03871 0.07174,0.07425 0.101775,0.116404 -0.03667,-0.08077 -0.05503,-0.163328 -0.04615,-0.252654 0.0071,-0.05558 0.02458,-0.109201 0.05098,-0.158668 -0.006,0.01209 -0.0259,0.04724 -0.01807,0.03624 0.132048,-0.185338 -0.05307,0.05311 0.05656,-0.08959 0.0036,-0.0047 0.01529,-0.01775 0.01167,-0.01315 -0.0076,0.0097 -0.01659,0.01842 -0.02434,0.02805 -0.101362,0.111363 -0.201784,0.225402 -0.273108,0.359135 -0.0617,0.123169 -0.111459,0.250828 -0.162856,0.378484 -0.003,0.0099 -0.0082,0.02943 -0.006,0.03068 0.0027,0.0016 0.0072,-0.0042 0.0093,-0.0019 0.0072,0.0083 -0.03427,0.02846 -0.02074,0.0259 -0.130043,0.074 -0.271976,0.126859 -0.419685,0.152386 -0.181036,0.0062 -0.361201,-0.02627 -0.539146,-0.05592 -0.286642,-0.05735 -0.572712,-0.117525 -0.859603,-0.173604 -0.262646,-0.04851 -0.0065,-5e-6 -0.285459,-0.05669 -0.146748,-0.02982 -0.294383,-0.0555 -0.439541,-0.0928 -0.226007,-0.05193 -0.451173,-0.107349 -0.676103,-0.163713 -0.247584,-0.05777 -0.496721,-0.1089 -0.745575,-0.160843 -0.298466,-0.05598 -0.598604,-0.102907 -0.900017,-0.140076 -0.422997,-0.05001 -0.845407,-0.105066 -1.269384,-0.146434 -0.367503,-0.03538 -0.735412,-0.06694 -1.104669,-0.07653 -0.327679,-0.01201 -0.654871,-0.03302 -0.981816,-0.05794 -0.380164,-0.02786 -0.760087,-0.05939 -1.140804,-0.07914 -0.369308,-0.02114 -0.7386,-0.04225 -1.108427,-0.05242 -0.289359,-0.0087 -0.578805,-0.01807 -0.868328,-0.01701 -0.286499,7.94e-4 -0.573019,0.0019 -0.859446,0.0088 -0.2643,0.0072 -0.528447,0.01836 -0.792541,0.03098 -0.164669,0.009 -0.329343,0.01778 -0.494099,0.02492 -0.19572,0.01005 -0.391798,0.01469 -0.587002,0.033 -0.177826,0.01754 -0.356372,0.0342 -0.530653,0.07548 -0.142785,0.03348 -0.286422,0.06379 -0.430456,0.09139 -0.19494,0.03577 -0.390229,0.07112 -0.586775,0.09667 -0.214503,0.02964 -0.429432,0.05533 -0.645099,0.07502 -0.225361,0.02035 -0.45027,0.04435 -0.675396,0.06694 -0.04616,0.0032 -0.09248,0.0041 -0.138608,0.0078 -0.004,2.65e-4 -0.0076,0.0024 -0.01146,0.0034 -0.0019,7.94e-4 -0.0035,0.0021 -0.0055,0.0024 -0.0051,5.29e-4 -0.01016,-0.0013 -0.01524,-5.29e-4 0.01082,0.007 -0.0052,-0.0032 0.01844,0.01013 0.0082,0.0046 0.02842,0.02281 0.02434,0.01431 -0.0041,-0.0085 -0.01627,-0.0097 -0.02445,-0.01453 -0.01267,-0.0074 -0.02521,-0.01506 -0.03807,-0.02217 -5.3e-4,-2.65e-4 7.93e-4,0.0013 0.0013,0.0019 -0.07297,-0.0441 -0.140997,-0.09597 -0.208198,-0.148252 -0.06754,-0.05113 -0.129181,-0.108936 -0.18967,-0.168187 -0.02466,-0.02196 -0.0071,-0.0053 -0.04592,-0.05331 -0.0482,-0.05962 -0.09437,-0.120766 -0.139618,-0.18266 -0.05441,-0.06939 -0.102084,-0.143349 -0.151953,-0.216003 -0.04002,-0.05698 -0.08059,-0.11365 -0.124108,-0.167998 -0.009,-0.01392 -0.01678,-0.02874 -0.02704,-0.04176 -0.0071,-0.009 0.02355,0.03945 0.01749,0.02968 -0.03197,-0.0517 -0.06288,-0.103716 -0.103455,-0.149434 -0.0042,-0.0047 0.0074,0.01005 0.01116,0.01511 -0.05418,-0.07189 -0.11453,-0.138308 -0.175048,-0.204856 -0.07958,-0.0834 -0.162888,-0.162701 -0.245012,-0.243544 -0.06891,-0.07291 -0.133112,-0.151868 -0.183404,-0.238906 -0.42259,-0.845179 -1.617856,-0.247546 -1.195266,0.597633 z" />
    <path
       style="fill:#1a1a1a;stroke-width:0.264583"
       id="path30"
       d="m 57.848317,88.472355 c -0.08655,0.07746 -0.178898,0.148064 -0.270997,0.218716 -0.08556,0.06546 -0.173188,0.128989 -0.250817,0.204036 -0.04655,0.045 -0.06091,0.06352 -0.102508,0.111368 -0.07673,0.09421 -0.142258,0.196758 -0.203083,0.301731 -0.03304,0.06093 -0.06641,0.1217 -0.09892,0.182914 -0.03401,0.06103 -0.05648,0.127082 -0.0794,0.192776 -0.02823,0.07826 -0.04917,0.158562 -0.06711,0.23971 -0.01656,0.06619 -0.025,0.133784 -0.02955,0.201739 -0.0016,0.03948 -0.0033,0.07954 0.0021,0.118851 0.0016,0.0127 0.0027,0.02569 0.0067,0.03785 0.0085,0.02593 0.02053,0.05059 0.03079,0.07589 0.01955,0.02273 0.0361,0.04848 0.0587,0.0682 0.04011,0.03501 0.09632,0.05613 0.148974,0.06156 0.03303,0.0034 0.04006,0.0024 0.06891,7.93e-4 0.05116,-0.0049 0.102259,-0.01781 0.147831,-0.04217 0.01307,-0.007 0.02561,-0.0149 0.0384,-0.02236 0.04379,-0.02814 0.08212,-0.06352 0.12206,-0.09663 0.03679,-0.03052 0.07293,-0.06171 0.107413,-0.09483 0.04387,-0.04032 0.08219,-0.08606 0.119222,-0.132591 0.03599,-0.04652 0.07197,-0.09293 0.105359,-0.141385 0.0364,-0.05557 0.07161,-0.112051 0.101222,-0.17159 0.0076,-0.0154 0.01466,-0.03109 0.02201,-0.04663 0.03307,-0.07758 0.06598,-0.155175 0.101172,-0.231817 0.02804,-0.05806 0.05578,-0.116269 0.08549,-0.173495 0.03322,-0.06418 0.06442,-0.12931 0.09224,-0.196006 0.02731,-0.07063 0.04891,-0.143248 0.06722,-0.21667 0.01402,-0.05912 0.02717,-0.118459 0.04148,-0.177517 0.006,-0.02291 0.01151,-0.04593 0.01633,-0.06911 0.0016,-0.007 0.0028,-0.0141 0.0042,-0.02114 7.93e-4,-0.0045 0.0027,-0.0089 0.0026,-0.01349 -1.74e-4,-0.0042 -0.0019,0.0082 -0.0026,0.01236 -0.15339,-0.03531 -0.306777,-0.07061 -0.460166,-0.105915 0.0016,-0.0073 0.01236,-0.02373 0.005,-0.02201 -0.0084,0.0019 -0.0072,0.0158 -0.01124,0.02347 -0.0333,0.06296 -0.07175,0.12314 -0.109381,0.183528 -0.117251,0.186412 -0.241544,0.368239 -0.363416,0.551627 -0.08163,0.121359 -0.155054,0.247751 -0.222406,0.377492 -0.02749,0.05605 -0.05228,0.113514 -0.07236,0.172641 -0.0016,0.0047 -0.003,0.0093 -0.0045,0.01394 -2.64e-4,7.94e-4 -0.0013,0.0036 -0.0011,0.0026 0.0011,-0.0035 0.0026,-0.007 0.0037,-0.0105 0.0031,-0.0091 -0.0019,7.94e-4 -0.0062,0.0074 -0.180771,0.280953 0.216559,0.536607 0.39733,0.255651 v 0 c 0.02408,-0.03781 0.0471,-0.07661 0.05915,-0.120192 0.01101,-0.03596 0.02834,-0.06985 0.04344,-0.104162 0.05938,-0.114683 0.124282,-0.226295 0.196469,-0.33347 0.124502,-0.187357 0.251478,-0.373118 0.371139,-0.563642 0.04363,-0.0703 0.06171,-0.09756 0.100925,-0.167394 0.01572,-0.02801 0.043,-0.07758 0.05591,-0.110588 0.0074,-0.01886 0.03833,-0.05006 0.0195,-0.05751 -0.146415,-0.05801 -0.305305,-0.07747 -0.457959,-0.11621 -0.0082,0.03439 -0.01386,0.06932 -0.02349,0.103383 -0.0141,0.05834 -0.02717,0.11693 -0.04095,0.17535 -0.0123,0.0505 -0.02732,0.100259 -0.04503,0.149146 -0.02233,0.05446 -0.04851,0.107175 -0.0753,0.159573 -0.03305,0.06393 -0.06426,0.128775 -0.09534,0.19368 -0.03475,0.07572 -0.06777,0.152175 -0.09989,0.229055 -0.0241,0.05257 -0.05238,0.102833 -0.08472,0.150826 -0.02713,0.03982 -0.05722,0.07734 -0.0864,0.115657 -0.02357,0.0302 -0.04815,0.05986 -0.07665,0.0856 -0.02596,0.02524 -0.0538,0.04828 -0.08149,0.07159 -0.02392,0.01992 -0.04724,0.04064 -0.07156,0.05998 0.01,-0.0042 0.02085,-0.007 0.03571,-0.0071 0.0081,7.94e-4 0.01635,0.0013 0.02445,0.0024 0.03301,0.0049 0.06994,0.02429 0.09341,0.04665 0.01746,0.01664 0.03004,0.03775 0.04507,0.05662 0.007,0.01968 0.01495,0.03908 0.02114,0.05906 0.0013,0.0047 0.0013,0.0097 0.0016,0.01455 1.6e-5,2.09e-4 -5.29e-4,5.29e-4 -5.29e-4,2.64e-4 -0.0011,-0.01365 -7.94e-4,-0.0275 -1.22e-4,-0.04115 0.0026,-0.04399 0.0082,-0.08758 0.01945,-0.130305 0.0066,-0.02984 0.01267,-0.05994 0.02098,-0.08937 0.0058,-0.02072 0.01479,-0.04735 0.02143,-0.06764 0.0031,-0.0096 0.0063,-0.01926 0.0094,-0.02888 0.01508,-0.04325 0.02832,-0.08733 0.05093,-0.127463 0.02949,-0.05611 0.06054,-0.111427 0.09033,-0.167384 0.04587,-0.07962 0.09516,-0.157443 0.151982,-0.22978 0.02294,-0.02698 0.03823,-0.04617 0.06345,-0.07113 0.06706,-0.06637 0.145439,-0.119904 0.219533,-0.177808 0.108392,-0.08319 0.21731,-0.166304 0.317458,-0.259459 0.236236,-0.236236 -0.09785,-0.570322 -0.334087,-0.334089 z" />
    <path
       style="fill:#e6e6e6;stroke-width:0.264583"
       id="path34"
       d="m 57.500691,90.482522 c 0.03106,0.02463 0.06195,0.04943 0.09187,0.07544 0.02826,0.02786 0.03634,0.03627 0.07009,0.06604 -0.0069,-0.0061 -0.01339,-0.01275 -0.02069,-0.01839 -0.0071,-0.0055 0.02527,0.02558 0.01918,0.01897 -0.0042,-0.0046 -0.01707,-0.01823 -0.01315,-0.01336 5.29e-4,5.29e-4 0.03406,0.03631 0.0073,0.0079 -0.0047,-0.0058 -0.0087,-0.01217 -0.014,-0.01744 -0.0048,-0.0048 0.0081,0.0109 0.01172,0.01664 0.0091,0.01439 0.01887,0.02836 0.02855,0.04237 0.02275,0.03724 0.04503,0.07505 0.06819,0.112186 0.03191,0.05464 0.06909,0.105889 0.105506,0.157552 0.03508,0.05052 0.07374,0.09836 0.111559,0.146809 0.03143,0.03957 0.06248,0.07934 0.09221,0.120192 0.03962,0.05516 0.07562,0.112763 0.114535,0.168418 0.04322,0.06757 0.09611,0.127813 0.147167,0.189357 0.03721,0.04606 0.0726,0.09346 0.107244,0.141452 0.04226,0.05941 0.08897,0.115186 0.13807,0.168995 0.05322,0.05506 0.108116,0.108555 0.164523,0.160342 0.06887,0.06163 0.144555,0.114462 0.220551,0.166714 0.06233,0.04311 0.127307,0.08197 0.192498,0.120518 0.04614,0.02837 0.09344,0.05472 0.140076,0.08224 0.04195,0.02635 0.08505,0.05077 0.127862,0.07568 0.03155,0.02032 0.06466,0.03869 0.09527,0.06041 0.04162,0.02553 0.08325,0.05102 0.125826,0.07491 0.04366,0.02474 0.08946,0.04479 0.136509,0.06222 0.04727,0.01738 0.09535,0.03248 0.144036,0.04536 0.04501,0.01315 0.09122,0.02077 0.137777,0.02553 0.03089,0.005 0.06187,0.0095 0.09299,0.01307 0.02394,0.0016 0.02344,0.0026 0.04558,0.006 0.467082,0.07115 0.567711,-0.589396 0.100629,-0.660553 v 0 c -0.0245,-0.0037 -0.04894,-0.0082 -0.07371,-0.0097 -0.03451,-0.0031 -0.0684,-0.01135 -0.102979,-0.0141 -0.0055,5.29e-4 0.0051,-5.29e-4 5.3e-4,5.29e-4 -0.0095,0.0027 -0.02662,-0.01265 -0.03375,-0.0079 -0.02765,-0.0065 -0.05428,-0.01648 -0.08107,-0.02574 -0.0033,-0.0013 -0.0067,-0.0024 -0.01,-0.0036 -0.0024,-7.93e-4 -0.0058,-0.0047 -0.0069,-0.0026 -0.0011,0.0021 0.0046,0.0019 0.0063,0.0037 0.0013,0.0013 -0.0033,-0.0013 -0.0048,-0.0021 -0.04251,-0.02283 -0.01365,-0.0081 -0.03771,-0.02027 0.0021,0.0016 0.0088,0.006 0.0065,0.0046 -0.02545,-0.01521 -0.05002,-0.03203 -0.07619,-0.04609 -0.04253,-0.02779 -0.08526,-0.05534 -0.128927,-0.08135 -0.04164,-0.02421 -0.08354,-0.04796 -0.124319,-0.0736 -0.04646,-0.02739 -0.09363,-0.05352 -0.139505,-0.08191 -0.05211,-0.0308 -0.104333,-0.06136 -0.154051,-0.09598 -0.05093,-0.035 -0.102279,-0.06941 -0.14905,-0.110005 -0.04173,-0.03748 -0.08102,-0.07761 -0.121036,-0.116899 -0.03189,-0.03492 -0.06259,-0.07072 -0.08976,-0.109566 -0.04362,-0.06043 -0.08838,-0.120015 -0.135453,-0.177827 -0.03965,-0.04753 -0.08124,-0.09363 -0.114202,-0.146309 -0.04142,-0.05833 -0.07812,-0.119899 -0.120894,-0.177303 -0.03417,-0.04691 -0.06966,-0.09275 -0.105775,-0.138181 -0.03111,-0.03983 -0.06309,-0.07902 -0.09203,-0.120496 -0.02922,-0.04145 -0.05947,-0.08229 -0.08478,-0.12632 -0.02869,-0.04596 -0.05559,-0.09298 -0.08533,-0.138288 -0.02204,-0.03185 -0.04249,-0.06482 -0.06714,-0.0948 -0.02101,-0.0235 -0.03866,-0.04364 -0.07646,-0.07758 0.0048,0.0045 0.0096,0.009 0.01442,0.0136 5.3e-4,5.29e-4 -0.0013,-0.0011 -0.0019,-0.0016 -0.0073,-0.0073 -0.01442,-0.01476 -0.02175,-0.02199 -0.01574,-0.01553 -0.03281,-0.02973 -0.0484,-0.04542 -0.0389,-0.03363 -0.0788,-0.06602 -0.119182,-0.09786 -0.372946,-0.290071 -0.783164,0.237355 -0.410218,0.527423 z" />
    <path
       style="fill:#e6e6e6;stroke-width:0.264583"
       id="path36"
       d="m 76.633101,93.331561 c 0.07668,0.01662 0.15581,0.02273 0.234214,0.02064 0.02207,-5.29e-4 0.04407,-0.0026 0.06611,-0.0038 0.06942,-0.0063 0.138845,-0.01635 0.206642,-0.0329 0.03961,-0.0097 0.0489,-0.01336 0.08676,-0.02553 0.06197,-0.02088 0.122814,-0.04489 0.184451,-0.06672 0.07535,-0.02434 0.151062,-0.04755 0.226703,-0.07097 0.06423,-0.01955 0.129159,-0.0369 0.193122,-0.05737 0.04183,-0.01339 0.05567,-0.01892 0.09592,-0.03367 0.08182,-0.031 0.158853,-0.07287 0.234461,-0.116549 0.06427,-0.03724 0.125822,-0.0788 0.185816,-0.122518 0.06142,-0.04346 0.11611,-0.0954 0.172178,-0.145341 0.06445,-0.05463 0.12604,-0.112467 0.184229,-0.173699 0.0656,-0.07106 0.113041,-0.155138 0.156308,-0.240895 0.03253,-0.06188 0.06047,-0.126056 0.09324,-0.187794 0.03193,-0.05941 0.06686,-0.117263 0.09602,-0.178149 0.0071,-0.01492 0.01368,-0.0301 0.02053,-0.04516 0.04081,-0.09602 0.05434,-0.199374 0.06117,-0.302551 0.0037,-0.03838 0.0062,-0.07779 0.01926,-0.114393 0.01228,-0.03906 0.02818,-0.07679 0.04438,-0.114337 0.02045,-0.05004 0.04037,-0.100509 0.05263,-0.153302 0.0031,-0.01323 0.0053,-0.02663 0.008,-0.03995 0.0069,-0.03959 0.01005,-0.07965 0.01241,-0.119724 0.01892,-0.333552 -0.452805,-0.360291 -0.471713,-0.02674 v 0 c -0.0011,0.01955 -0.0024,0.03912 -0.0049,0.05855 -0.0049,0.03302 -0.01794,0.06356 -0.03041,0.09436 -0.02336,0.05441 -0.04586,0.109254 -0.06313,0.165962 -0.0039,0.01384 -0.0082,0.02757 -0.0118,0.0415 -0.01497,0.05832 -0.02154,0.118436 -0.02627,0.178306 -0.0027,0.04674 -0.006,0.09425 -0.02074,0.139009 -0.02984,0.06815 -0.06861,0.131694 -0.103815,0.197123 -0.03355,0.06443 -0.0638,0.13049 -0.097,0.195109 -0.02257,0.04511 -0.04527,0.09071 -0.07827,0.129323 -0.04795,0.05188 -0.10115,0.09859 -0.154519,0.144777 -0.04484,0.04001 -0.08824,0.0821 -0.137239,0.11706 -0.04593,0.03406 -0.0937,0.06558 -0.143015,0.09455 -0.05216,0.03025 -0.104985,0.05997 -0.161174,0.08215 -0.02302,0.0085 -0.04522,0.01707 -0.06863,0.02455 -0.06518,0.02082 -0.131357,0.03843 -0.196776,0.05848 -0.08172,0.02529 -0.16357,0.05025 -0.24484,0.07699 -0.05802,0.02058 -0.115387,0.04293 -0.173574,0.06301 -0.01259,0.0043 -0.02781,0.0097 -0.04077,0.01302 -0.04462,0.01127 -0.0904,0.01826 -0.136123,0.02297 -0.05172,0.0041 -0.103868,0.0049 -0.155236,-0.0037 -0.324112,-0.08103 -0.438703,0.377335 -0.114591,0.458364 z" />
    <path
       style="fill:#e6e6e6;stroke-width:0.264583"
       id="path40"
       d="m 58.463338,110.75467 c 0.04464,-0.025 0.08659,-0.0546 0.130908,-0.0801 0.03045,-0.0175 0.06198,-0.0331 0.09282,-0.0499 0.119724,-0.0631 0.236654,-0.13117 0.352168,-0.2016 0.09198,-0.0564 0.17838,-0.12118 0.26602,-0.18392 0.08355,-0.0597 0.164423,-0.12297 0.245182,-0.18636 0.08903,-0.0718 0.17808,-0.14363 0.264459,-0.21864 0.07965,-0.0727 0.154265,-0.1505 0.234519,-0.22256 0.01161,-0.0101 0.02302,-0.0205 0.03486,-0.0304 0.01064,-0.009 0.06433,-0.0506 0.07116,-0.056 0.04962,-0.0393 0.09892,-0.0791 0.148074,-0.11904 0.08047,-0.0619 0.162025,-0.12227 0.242345,-0.18434 0.06935,-0.0564 0.138295,-0.11324 0.208137,-0.16903 0.05038,-0.0417 0.102632,-0.0811 0.153128,-0.12267 0.01765,-0.0138 0.03373,-0.0296 0.05156,-0.0431 0.365606,-0.29926 -0.05761,-0.81632 -0.423222,-0.51705 v 0 c -0.01797,0.0149 -0.03583,0.0298 -0.05365,0.0449 -0.04767,0.0395 -0.09745,0.0763 -0.144918,0.116 -0.06701,0.0536 -0.133392,0.10787 -0.199641,0.16235 -0.0846,0.0654 -0.170752,0.12869 -0.255075,0.19444 -0.09329,0.0758 -0.189169,0.14857 -0.279886,0.22748 -0.07725,0.0697 -0.150704,0.14327 -0.226015,0.21503 -0.07771,0.0678 -0.158372,0.13207 -0.238401,0.1971 -0.07305,0.0573 -0.146087,0.11472 -0.221675,0.16872 -0.07427,0.0532 -0.147328,0.1084 -0.224917,0.15673 -0.106186,0.0648 -0.21372,0.12737 -0.323861,0.18527 -0.02236,0.0122 -0.10664,0.058 -0.124386,0.0682 -0.04176,0.0241 -0.08129,0.0521 -0.123465,0.0755 -0.405141,0.24308 -0.06137,0.81604 0.343773,0.57295 z" />
    <path
       style="fill:#cccccc;stroke-width:0.264583"
       id="path42"
       d="m 79.71325,109.8976 c -0.11621,-0.10841 -0.243827,-0.20317 -0.371536,-0.29736 -0.173003,-0.12689 -0.350091,-0.24809 -0.525475,-0.37165 -0.130265,-0.0865 -0.249627,-0.18722 -0.368589,-0.28825 -0.154702,-0.13225 -0.322799,-0.24743 -0.491334,-0.36106 -0.142861,-0.094 -0.285358,-0.18847 -0.427881,-0.28295 -0.08275,-0.0561 -0.165645,-0.11192 -0.24842,-0.16796 -0.07633,-0.0506 -0.154122,-0.0991 -0.232521,-0.14639 -0.02836,-0.0172 -0.05597,-0.0356 -0.08375,-0.0538 -0.04348,-0.0288 -0.09276,-0.0456 -0.142756,-0.0589 -0.457155,-0.11932 -0.625898,0.5272 -0.168743,0.64651 v 0 c 0.0046,8e-4 0.01781,0.006 0.01349,0.004 -0.02162,-0.009 -0.04468,-0.0149 -0.06371,-0.0295 0.0091,0.005 -0.0019,-0.001 0.02133,0.0142 0.02593,0.0171 0.0525,0.0333 0.07881,0.0498 0.0685,0.0413 0.136501,0.0836 0.203268,0.12767 0.08457,0.0572 0.169254,0.11434 0.253828,0.17159 0.141119,0.0935 0.282184,0.18714 0.423662,0.28013 0.148071,0.0997 0.296193,0.20027 0.432213,0.31625 0.134302,0.11404 0.269636,0.22705 0.416292,0.32519 0.171501,0.1208 0.344652,0.23932 0.51389,0.3633 0.07364,0.0542 0.148074,0.10777 0.218461,0.16624 0.01669,0.0139 0.07211,0.0628 0.09221,0.0805 0.01138,0.01 0.02275,0.0199 0.03413,0.0299 0.365673,0.29919 0.788786,-0.21795 0.423114,-0.51713 z" />
  </g>
</svg>
