<?xml version="1.0" standalone="no"?>
<!DOCTYPE svg PUBLIC "-//W3C//DTD SVG 1.1//EN" "http://www.w3.org/Graphics/SVG/1.1/DTD/svg11.dtd" >
<svg xmlns="http://www.w3.org/2000/svg" xmlns:xlink="http://www.w3.org/1999/xlink" version="1.1">
<metadata>
Created by FontForge 20170731 at Mon Jan  4 18:42:25 2021
 By Aleksey,,,
Copyright (c) Ryoichi Tsunekawa, 2006. All rights reserved.
</metadata>
<defs>
<font id="Pusab" horiz-adv-x="1314" >
  <font-face 
    font-family="Pusab"
    font-weight="400"
    font-stretch="normal"
    units-per-em="2048"
    panose-1="2 0 5 6 0 0 0 2 0 4"
    ascent="1638"
    descent="-410"
    x-height="1149"
    cap-height="1319"
    bbox="41 -453 2720 1796"
    underline-thickness="49"
    underline-position="-148"
    unicode-range="U+0020-FB02"
  />
<missing-glyph horiz-adv-x="849" 
d="M809 0h-768v1796h768v-1796zM168 1669v-1540h512v1540h-512z" />
    <glyph glyph-name="fi" unicode="fi" horiz-adv-x="1775" 
d="M684 324v-107q0 -96 -20 -135q-41 -80 -213 -92q-27 -3 -117 0q-36 0 -131 10q-76 15 -113 61q-49 58 -49 502q0 427 35 492q52 98 430 98q228 0 412 -35q75 -14 116 -37q49 -37 49 -104q0 -45 -16 -88q-21 -53 -61 -53q-23 0 -88 10t-87 10q-90 3 -114 -12
q-33 -17 -33 -84q0 -75 90 -84q72 -7 154 -10q59 -3 59 -109q0 -96 -33 -119q-23 -10 -114 -10q-109 0 -133 -27q-23 -26 -23 -77zM1733 997l-9 -802q-3 -126 -61 -166q-48 -31 -176 -37h-53q-171 3 -246 69q-31 28 -37 265v272q0 160 -6 295q3 132 63 192q71 68 256 68
q44 0 99 -2q173 -3 170 -154z" />
    <glyph glyph-name="fl" unicode="fl" horiz-adv-x="2195" 
d="M684 324v-107q0 -96 -20 -135q-41 -80 -213 -92q-27 -3 -117 0q-36 0 -131 10q-76 15 -113 61q-49 58 -49 502q0 427 35 492q52 98 430 98q228 0 412 -35q75 -14 116 -37q49 -37 49 -104q0 -45 -16 -88q-21 -53 -61 -53q-23 0 -88 10t-87 10q-90 3 -114 -12
q-33 -17 -33 -84q0 -75 90 -84q72 -7 154 -10q59 -3 59 -109q0 -96 -33 -119q-23 -10 -114 -10q-109 0 -133 -27q-23 -26 -23 -77zM2077 301q77 0 77 -141q0 -62 -53 -97q-26 -17 -108 -36q-149 -35 -367 -35q-163 0 -217 4q-136 12 -201 65q-54 54 -51 521q0 124 -6 194
q0 292 135 348q64 27 352 27q143 0 146 -203v-129q-2 -100 -2 -311v-66q0 -26 12 -125q21 -27 111 -24q6 0 17 0.5t31 1.5t36 2q86 4 88 4z" />
    <glyph glyph-name=".notdef" horiz-adv-x="849" 
d="M809 0h-768v1796h768v-1796zM168 1669v-1540h512v1540h-512z" />
    <glyph glyph-name=".null" horiz-adv-x="0" 
 />
    <glyph glyph-name="nonmarkingreturn" horiz-adv-x="682" 
 />
    <glyph glyph-name="space" unicode=" " horiz-adv-x="960" 
 />
    <glyph glyph-name="exclam" unicode="!" horiz-adv-x="761" 
d="M598 399q3 -60 -229 -98q-47 -8 -95 -8q-116 0 -137 67q-97 289 -82 621q15 325 140 340q194 25 458 16q68 -3 68 -112t-45 -279q-54 -209 -64 -280q-17 -160 -14 -267zM373 274q51 7 78 7q164 0 188 -129q4 -28 4 -39q0 -127 -203 -162q-111 -18 -184 12q-92 41 -92 148
q0 133 209 163z" />
    <glyph glyph-name="quotedbl" unicode="&#x22;" horiz-adv-x="870" 
d="M182 1092q-102 0 -114 47q-6 20 6 71q14 55 14 76q0 62 -31 141q-16 32 -16 58q0 88 164 112q40 5 53 5q143 0 143 -162q0 -102 -61 -248q-24 -60 -56.5 -80t-101.5 -20zM610 1092q-102 0 -114 47q-6 20 6 71q14 55 14 76q0 62 -31 141q-16 32 -16 58q0 88 164 112
q40 5 53 5q143 0 143 -162q0 -102 -61 -248q-24 -60 -56.5 -80t-101.5 -20z" />
    <glyph glyph-name="numbersign" unicode="#" horiz-adv-x="1488" 
d="M666 1262q9 -120 6 -349q0 -157 -8 -188q-12 -55 -76 -55h-72q-72 0 -117 45q-110 107 -166 153q-2 2 -6 2q-12 0 -12 -41v-43q0 -1 4 -51q4 -36 -15 -52.5t-57 -14.5l-41 2q-54 3 -57 80q-8 153 -8 262q3 183 6 207q21 117 131 114l74 -2q59 -3 108 -55l121 -133
q10 -10 15 -10q4 4 6 10l-6 125q-3 63 71 63h37q59 0 62 -69zM1448 1001q0 -159 -98 -251.5t-260 -92.5q-165 0 -257 90t-92 254t92 254.5t257 90.5q258 0 335 -216q23 -71 23 -129zM1114 848q45 9 51 104q3 72 -10 121q-18 78 -72 84q-55 0 -61 -102q-9 -141 51 -195
q21 -15 41 -12z" />
    <glyph glyph-name="dollar" unicode="$" horiz-adv-x="1361" 
d="M842 -18v-15q0 -125 -158 -125q-162 0 -162 119v16q-282 34 -448 177q-33 26 -33 82q0 30 8 61q46 126 107 129q48 0 100 -37q86 -63 137 -63q58 0 58 55q0 54 -95 104q-284 150 -293 373q-15 412 461 477l-2 66q-2 60 38.5 90.5t123.5 30.5q164 0 158 -133
q-2 -29 -2 -50q284 -34 448 -176q33 -26 33 -82q0 -30 -8 -61q-46 -126 -107 -129q-48 0 -100 37q-86 63 -137 63q-58 0 -58 -55t95 -105q283 -149 292 -372q15 -410 -456 -477z" />
    <glyph glyph-name="percent" unicode="%" horiz-adv-x="1718" 
d="M774 1114l4 -12q16 -57 19 -109q22 38 75 128.5t82 140.5q73 141 289 106q229 -40 154 -170q-92 -148 -242 -410q61 21 137 21q284 0 361 -258l4 -12q20 -61 20 -146q0 -185 -98 -295q-105 -114 -287 -114t-280 116q-86 103 -92 269q-109 -197 -166 -306
q-59 -117 -281 -102q-246 6 -151 191q6 11 94.5 170t136.5 245q-59 -20 -139 -20q-182 0 -281 117q-92 109 -92 294q0 183 92 295q101 119 281 119q284 0 360 -258zM1323 205q60 15 66 127q3 71 -17 149q-24 104 -88 107q-67 3 -76 -123q-2 -14 -2 -43q0 -142 68 -201
q22 -19 49 -16zM444 768q60 15 66 127q3 75 -16 149q-24 104 -88 107q-67 3 -76 -123q-2 -14 -2 -43q0 -143 67 -201q22 -19 49 -16z" />
    <glyph glyph-name="ampersand" unicode="&#x26;" horiz-adv-x="1499" 
d="M1307 834l8 -52q82 -3 92 -8q51 -17 51 -110q0 -90 -51 -113q-9 -3 -82 -6v-66q0 -159 -12 -235q-9 -50 -45 -86q-204 -157 -525 -172q-31 -1 -59.5 -2t-42.5 -1.5t-18 -0.5q-582 18 -576 434q3 155 141 246q-138 91 -141 245q-6 413 576 434q143 3 307 -26
q190 -36 295 -90q28 -16 28 -62q0 -30 -8 -61q-20 -79 -41.5 -114.5t-46.5 -31.5q-185 36 -272 50q-38 6 -66 6q-136 0 -145 -113q-9 -94 100 -115q31 -7 115 -4q-3 53 2 72q15 41 92 53q21 3 115 6q27 2 80 2q72 0 88 -8q32 -14 41 -71zM899 543h-125q-103 0 -100 -94
q1 -66 29.5 -97t82.5 -28t105 28q14 6 14 23q0 130 -6 168z" />
    <glyph glyph-name="quotesingle" unicode="'" horiz-adv-x="442" 
d="M182 1092q-102 0 -114 47q-6 20 6 71q14 55 14 76q0 62 -31 141q-16 32 -16 58q0 88 164 112q40 5 53 5q143 0 143 -162q0 -102 -61 -248q-24 -60 -56.5 -80t-101.5 -20z" />
    <glyph glyph-name="parenleft" unicode="(" horiz-adv-x="649" 
d="M41 682q0 220 57 432q64 241 181 391q39 51 96 51q22 0 43 -6l129 -39q61 -18 61 -53q0 -14 -10 -31q-78 -134 -129 -360q-47 -214 -47 -385t47 -385q51 -226 129 -360q10 -17 10 -31q0 -35 -61 -53l-129 -39q-24 -7 -43 -7q-83 0 -160 148q-32 67 -90 217
q-84 221 -84 510z" />
    <glyph glyph-name="parenright" unicode=")" horiz-adv-x="649" 
d="M608 682q0 -220 -57 -432q-64 -243 -180 -391q-40 -52 -97 -52q-18 0 -43 7l-129 39q-61 18 -61 53q0 14 10 31q78 134 129 360q47 214 47 385t-47 385q-51 226 -129 360q-10 17 -10 31q0 35 61 53l129 39q21 6 43 6q84 0 160 -147q31 -60 90 -215q84 -221 84 -512z" />
    <glyph glyph-name="asterisk" unicode="*" horiz-adv-x="677" 
d="M629 1417q8 -19 8 -43q0 -67 -94 -76q-16 -2 -49 -2q-34 0 -48 2q110 -67 119 -129q3 -39 -43 -73q-44 -32 -82 -17q-57 28 -84 152q-27 -125 -86 -152q-39 -19 -84 15q-44 33 -41 75q6 62 119 129q-16 -2 -47 -2q-88 0 -121.5 30.5t-13.5 90.5q18 53 59 62
q58 15 158 -74q-22 53 -29 92q-24 119 86 119q88 0 88 -88q0 -55 -32 -123q99 86 157 74q45 -9 60 -62z" />
    <glyph glyph-name="plus" unicode="+" horiz-adv-x="1021" 
d="M668 209q3 -103 -156 -103q-162 0 -162 101v213h-207q-102 -3 -102 155q0 165 100 162q55 -2 209 -2v211q-3 101 162 101q82 0 120.5 -26.5t35.5 -80.5q-2 -25 -2 -205q160 0 215 2q100 3 100 -162q0 -155 -107 -155h-208q0 -176 2 -211z" />
    <glyph glyph-name="comma" unicode="," horiz-adv-x="497" 
d="M238 -172q-89 0 -109 33q-20 32 2 86q34 72 10 82q-100 40 -100 170q0 188 215 188q201 0 201 -217q0 -103 -62 -242q-26 -61 -57.5 -80.5t-99.5 -19.5z" />
    <glyph glyph-name="hyphen" unicode="-" horiz-adv-x="819" 
d="M143 416q-102 -3 -102 155q0 165 100 162q78 -2 269 -2q190 0 268 2q100 3 100 -162q0 -158 -106 -155q-246 6 -529 0z" />
    <glyph glyph-name="period" unicode="." horiz-adv-x="460" 
d="M236 -37q-190 0 -193 184q-3 197 193 197q184 0 184 -197q0 -184 -184 -184z" />
    <glyph glyph-name="slash" unicode="/" horiz-adv-x="851" 
d="M473 63q-27 -115 -231 -100q-100 7 -143 44.5t-29 103.5q135 568 321 1171q26 97 215 70q102 -15 145.5 -50.5t28.5 -91.5q-159 -524 -307 -1147z" />
    <glyph glyph-name="zero" unicode="0" horiz-adv-x="1343" 
d="M1264 918l6 -21q33 -103 33 -242q0 -306 -164 -491q-172 -193 -477 -193q-302 0 -467 195q-154 183 -154 493q0 306 154 492q167 197 467 197q473 0 602 -430zM713 342q99 24 108 211q6 130 -24 250q-44 173 -148 176q-57 2 -89 -49.5t-38 -155.5q-2 -25 -2 -69
q0 -242 113 -336q39 -33 80 -27z" />
    <glyph glyph-name="one" unicode="1" horiz-adv-x="1060" 
d="M705 1317h131q181 0 184 -176q0 -35 -2 -60q-2 -31 -2 -59l-15 -801q-3 -133 -61 -182q-52 -40 -188 -49q-31 -2 -80 -2q-198 3 -277 82q-26 26 -35 141q-6 71 -6 238v282q0 102 -12 117q-8 8 -18 8q-14 0 -70 -29q-54 -28 -74 -28q-52 0 -96 53q-43 55 -43 111
q0 57 82 118q177 132 301 203q21 12 61 21q64 12 220 12z" />
    <glyph glyph-name="two" unicode="2" horiz-adv-x="1325" 
d="M829 -12h-450q-141 0 -229.5 78t-88.5 210q0 170 121 297q273 292 273 340q0 72 -60 72q-53 0 -139 -63q-52 -37 -100 -37q-61 3 -107 129q-8 31 -8 61q0 56 33 82q84 75 202 119q194 72 386 63q294 -10 438.5 -119t138.5 -315q-6 -232 -285 -358q-177 -77 -174 -141
q0 -35 33 -35q55 0 231 102q54 31 101 31q40 0 82 -25q56 -33 53 -209q-3 -188 -139 -247q-84 -35 -312 -35z" />
    <glyph glyph-name="three" unicode="3" 
d="M49 303q46 126 107 129q42 0 106 -37q84 -50 178 -53q84 -3 90 80q12 116 -100 113q-128 -3 -176 22q-39 23 -39 105q0 86 51 106q56 18 164 12q55 -3 80 26.5t20 92.5q-9 75 -84 78q-100 -3 -184 -53q-64 -37 -106 -37q-61 3 -107 129q-8 31 -8 61q0 56 33 82
q83 71 202 117q201 74 416 65q582 -18 576 -434q-3 -157 -146 -248q143 -91 146 -247q6 -417 -576 -435q-213 -9 -416 66q-119 46 -202 117q-33 26 -33 82q0 30 8 61z" />
    <glyph glyph-name="four" unicode="4" horiz-adv-x="1497" 
d="M1395 571q20 2 33.5 -15t19.5 -52q9 -38 6 -96q-3 -93 -29 -113q-27 -21 -122 -21q-48 0 -48 -45q0 -125 -56.5 -175.5t-194.5 -61.5q-13 0 -27 -2q-86 0 -154 2q-100 3 -176 76q-20 20 -35 165q-159 -3 -303 19q-222 38 -246 131q-22 99 -22 182q18 188 539 697
q56 56 401 53q11 0 52 -2t54 -2q184 0 187 -176q0 -14 -2 -59.5t-2 -57.5v-18q-1 -19 -2 -39l-11 -359q0 -35 29 -35q23 0 109 4zM487 504q89 3 109 26q11 11 20 84q2 8 5 68q1 19 -3 88q-6 76 -26 76q-38 0 -158 -172q-63 -89 -63 -123q0 -50 116 -47z" />
    <glyph glyph-name="five" unicode="5" horiz-adv-x="1275" 
d="M397 1311h426q176 0 236 32q26 13 43 13q31 0 45 -33q47 -109 47 -180q0 -73 -49 -107q-79 -58 -176 -61q-102 -4 -187 -4q-38 0 -53 -56l-6 -53q62 19 125 19q70 0 147 -21q240 -64 240 -346q0 -41 -2 -59q-34 -438 -571 -459q-189 -9 -386 63q-118 44 -202 119
q-33 26 -33 82q0 31 8 62q46 126 107 129q45 0 100 -37q113 -64 176 -64q57 0 66 51q4 28 4 39q0 101 -131 107q-273 12 -273 162q0 4 4 36q5 29 70 396q35 170 225 170z" />
    <glyph glyph-name="six" unicode="6" horiz-adv-x="1361" 
d="M1079 864q242 -88 242 -389q0 -504 -610 -504q-669 0 -660 652q3 198 137 407q128 198 281 279q70 40 193 37q179 -6 315 -80q99 -55 33 -146q-82 -110 -125 -231q88 15 194 -25zM852 303q102 3 137 80q11 25 8 49q-1 55 -46 89t-107 32q-147 -3 -144 -129q3 -57 50 -92
q43 -32 102 -29z" />
    <glyph glyph-name="seven" unicode="7" horiz-adv-x="1312" 
d="M426 633q108 217 111 276t-41 70q-48 12 -86 -72q-28 -66 -111 -63q-167 7 -190 8q-68 3 -68 82q0 13 4 41q26 145 78 252q37 76 139 82q173 10 447 10h221q188 0 250 -35q91 -52 88 -182q-3 -110 -140 -488q-88 -241 -186 -505q-15 -71 -92 -95q-79 -26 -305 -26
q-161 0 -248 35q-48 20 -51 88q-3 144 180 522z" />
    <glyph glyph-name="eight" unicode="8" horiz-adv-x="1245" 
d="M623 -23q-582 0 -576 435q3 156 146 247q-132 95 -132 265q0 417 562 417q561 0 561 -417q0 -171 -131 -265q142 -90 145 -247q6 -435 -575 -435zM797 1016q-60 3 -103 -29q-18 -24 -18 -45q0 -29 33 -49q104 -69 151 -102q79 40 82 96q3 24 -8 49q-35 77 -137 80z
M449 303q59 -3 102 29q18 24 18 45q0 30 -32 49q-17 12 -76 51t-101 68q-54 -57 -57 -113q-3 -24 8 -49q35 -77 138 -80z" />
    <glyph glyph-name="nine" unicode="9" horiz-adv-x="1351" 
d="M283 461q-242 82 -242 385q0 45 2 63q35 442 608 439q660 0 660 -652q0 -193 -131 -397q-134 -209 -273 -281q-86 -50 -211 -47q-181 -3 -311 82q-96 65 -31 148q78 101 123 229q-64 -12 -194 31zM510 1016q-102 -3 -137 -80q-11 -25 -8 -49q3 -56 51 -90q43 -34 102 -31
q147 3 144 129q-1 58 -44.5 90.5t-107.5 30.5z" />
    <glyph glyph-name="colon" unicode=":" horiz-adv-x="497" 
d="M256 754q-215 0 -215 204q0 216 215 216q201 0 201 -220q0 -200 -201 -200zM256 -31q-215 0 -215 205q0 213 215 213q201 0 201 -217q0 -201 -201 -201z" />
    <glyph glyph-name="semicolon" unicode=";" horiz-adv-x="497" 
d="M256 754q-215 0 -215 204q0 216 215 216q201 0 201 -220q0 -200 -201 -200zM238 -172q-89 0 -109 33q-20 32 2 86q34 72 10 82q-100 40 -100 170q0 188 215 188q201 0 201 -217q0 -103 -62 -242q-26 -61 -57.5 -80.5t-99.5 -19.5z" />
    <glyph glyph-name="less" unicode="&#x3c;" horiz-adv-x="880" 
d="M610 473l178 -102q52 -27 52 -78q0 -30 -29 -86q-41 -74 -94 -74q-25 0 -60 21q-70 40 -272 157q-39 24 -274 158q-70 40 -70 106q0 64 68 105q313 177 553 319q31 17 53 17q51 0 98 -78q27 -47 27 -82q0 -51 -56 -78q-5 -3 -25 -14t-65 -37t-86 -49l-178 -103
q18 -10 77 -43.5t103 -58.5z" />
    <glyph glyph-name="equal" unicode="=" horiz-adv-x="759" 
d="M143 614q-102 -3 -102 125q0 132 100 129q246 -3 477 0q101 3 101 -129q0 -128 -107 -125q-207 3 -469 0zM143 285q-102 -3 -102 125q0 132 100 129q246 -3 477 0q101 3 101 -129q0 -128 -107 -125q-207 3 -469 0z" />
    <glyph glyph-name="greater" unicode="&#x3e;" horiz-adv-x="880" 
d="M92 371l180 102q15 9 74.5 42.5t104.5 59.5l-177 103q-23 14 -84 48t-94 52q-55 30 -55 78q0 35 27 82q47 78 98 78q22 0 53 -17q259 -156 553 -319q68 -38 68 -105q0 -65 -68 -106q-100 -58 -276 -158q-120 -68 -273 -157q-35 -21 -59 -21q-53 0 -94 74q-29 56 -29 86
q0 52 51 78z" />
    <glyph glyph-name="question" unicode="?" horiz-adv-x="1288" 
d="M721 401q4 -31 -51 -55.5t-174 -44.5q-47 -8 -95 -8q-112 0 -133 65q-22 80 -22 158q0 174 125 272q84 69 84 125q0 72 -62 72q-51 0 -137 -63q-52 -37 -100 -37q-61 3 -107 129q-8 31 -8 61q0 56 33 82q84 75 202 119q194 72 386 63q293 -10 437.5 -119t139.5 -315
q-6 -266 -285 -358q-243 -82 -237 -119q0 -1 0.5 -4t1.5 -9.5t2 -13.5zM500 274q51 7 78 7q164 0 188 -129q4 -28 4 -39q0 -127 -203 -162q-111 -18 -184 12q-92 41 -92 148q0 133 209 163z" />
    <glyph glyph-name="at" unicode="@" horiz-adv-x="1650" 
d="M1399 223q41 21 74 13q46 -21 81 -113q7 -17 7 -31q0 -58 -99 -108q-248 -121 -530 -121q-393 0 -637 215q-254 224 -254 612q0 360 258 588q248 217 614 217q320 0 519 -211q178 -187 178 -444q0 -267 -156 -426q-158 -158 -422 -158h-47q-183 0 -309 117
q-125 119 -125 303q0 177 111 285q112 106 290 106q149 0 279 -86q27 -18 33 -18q8 0 8 12q-83 213 -334 213q-506 0 -506 -547q0 -254 174 -385q156 -117 418 -117q222 0 375 84zM965 549h8q133 0 133 123q0 114 -141 114q-59 0 -98.5 -33.5t-39.5 -88.5q0 -48 42.5 -81.5
t95.5 -33.5z" />
    <glyph glyph-name="A" unicode="A" horiz-adv-x="1515" 
d="M700 1333l62 2q130 3 217 -84q77 -77 231 -389q237 -476 258 -708q6 -63 -12 -90.5t-80 -47.5q-67 -23 -225 -26q-300 -3 -334 90q-7 22 -31 90q-24 49 -71 49h-135q-31 3 -109 0q-54 -3 -78 -94q-18 -68 -45 -93.5t-92 -29.5q-210 -9 -213 88q-3 120 117 430
q116 303 235 527q83 154 133 204q79 79 172 82zM571 662q-28 0 -90 -195q-6 -20 17 -29.5t77 -9.5t76.5 10.5t14.5 32.5q-71 191 -95 191z" />
    <glyph glyph-name="B" unicode="B" horiz-adv-x="1388" 
d="M1348 367q0 -218 -230 -312q-162 -67 -534 -67q-90 0 -230 14q-215 21 -260 66q-53 56 -53 585q0 533 53 586q40 40 152 55q170 25 338 25q476 0 639 -150q100 -90 100 -268q0 -161 -141 -252q166 -114 166 -282zM696 403q0 -77 56 -98q30 -12 125 -12q149 0 149 121
q0 103 -154 112q-89 3 -124 -14q-52 -27 -52 -109zM844 995q-85 0 -113 -14q-49 -21 -49 -92q0 -76 45 -96q27 -15 115 -15q162 0 162 111q0 106 -160 106z" />
    <glyph glyph-name="C" unicode="C" horiz-adv-x="1464" 
d="M1409 399q-163 -430 -645 -430q-342 0 -528 174q-195 180 -195 516q0 325 184 506q186 183 512 183q233 0 420 -111q229 -133 256 -367q9 -79 -70 -106q-19 -8 -145 -23q-96 -12 -111 70q-30 185 -180 164q-110 -15 -125 -227q-4 -82 -4 -89q0 -321 144 -321
q126 0 153 123q21 113 119 110q108 -3 143 -16q78 -28 78 -106q0 -23 -6 -50z" />
    <glyph glyph-name="D" unicode="D" horiz-adv-x="1361" 
d="M557 1321q498 0 686 -350q78 -147 78 -314q0 -397 -332 -573q-186 -97 -436 -94q-422 3 -477 82q-35 53 -35 577q0 527 35 592q44 80 481 80zM780 352q152 -6 207 178q17 63 17 127q0 248 -175 297q-29 10 -49 7q-36 -3 -45 -64q-12 -89 -12 -240q0 -141 10 -243
q7 -33 12 -41q9 -18 35 -21z" />
    <glyph glyph-name="E" unicode="E" horiz-adv-x="1294" 
d="M1159 348q68 9 86 -86q8 -39 8 -80q0 -124 -188 -162q-157 -32 -447 -32q-452 0 -522 88q-55 70 -55 403v166q0 492 39 563q20 44 80 66q35 12 104 24q126 21 328 21q276 0 473 -37q188 -35 188 -162q0 -162 -90 -162q-21 0 -100 11q-64 12 -98 12q-101 3 -131 -14
q-39 -20 -39 -86q0 -88 104 -97q95 -9 176 -12q73 -3 70 -121q0 -83 -39 -106q-29 -18 -133 -15q-119 3 -154 -32q-24 -24 -24 -70q0 -62 41 -86q30 -17 129 -14q71 0 194 20z" />
    <glyph glyph-name="F" unicode="F" horiz-adv-x="1275" 
d="M776 371q0 -76 2 -123q3 -105 -24 -154q-47 -89 -244 -104q-27 -3 -133 0q-122 3 -152 10q-83 15 -129 70q-55 67 -55 575q0 489 39 563q20 44 78 66q29 12 102 24q117 21 313 21q277 0 474 -37q188 -35 188 -162q0 -162 -90 -162q-22 0 -101 11q-65 12 -98 12
q-101 3 -131 -14q-39 -20 -39 -97q0 -84 105 -96q76 -9 176 -12q69 -3 69 -125q0 -107 -39 -133q-15 -12 -137 -15q-120 -3 -147 -30t-27 -88z" />
    <glyph glyph-name="G" unicode="G" horiz-adv-x="1458" 
d="M1298 588q106 -3 115 -129q1 -15 1.5 -39t1 -61.5t1.5 -67.5q0 -119 -2 -146l-4 -57q-9 -104 -135 -104q-153 0 -174 88l-8 34q-120 -135 -389 -135q-308 0 -488 189q-176 188 -176 499q0 325 184 506q189 183 510 183q534 0 666 -430q8 -24 8 -54q0 -73 -70 -100
q-45 -17 -145 -25q-90 -9 -111 74q-46 180 -174 162q-99 -15 -123 -225q-6 -53 -6 -91q0 -170 45 -251t136 -74q106 9 112 135q3 90 74 111q41 11 151 8z" />
    <glyph glyph-name="H" unicode="H" horiz-adv-x="1490" 
d="M1421 1182q6 -66 13 -203q14 -266 14 -498q3 -309 -14 -385q-8 -38 -33 -63q-48 -45 -332 -45q-140 0 -149 98q-7 58 -5 82l9 197q3 40 0 77q-3 48 -37 60q-24 7 -76 4q-63 -3 -96 -21q-34 -21 -43 -86q-2 -10 -2 -63v-115q0 -98 -21 -139q-27 -55 -114 -76
q-30 -8 -113 -14q-65 -4 -80 -2q-192 12 -254 71q-47 30 -47 598q0 554 53 607t305 53q156 0 199 -16q87 -37 90 -160q0 -46 -6 -160q-2 -23 -2 -53q0 -88 20 -111q25 -31 109 -28q88 3 106 30q12 18 9 109l-13 258q0 34 7 59q18 72 131 72q255 0 305 -33q58 -37 67 -104z
" />
    <glyph glyph-name="I" unicode="I" horiz-adv-x="755" 
d="M713 1143l-8 -920q-3 -142 -72 -190q-50 -36 -203 -45q-21 -3 -59 0q-197 6 -281 84q-34 34 -43 301v313q0 182 -6 338q3 151 72 217q84 78 293 78q51 0 114 -2q196 -3 193 -174z" />
    <glyph glyph-name="J" unicode="J" horiz-adv-x="964" 
d="M735 1317q184 -6 187 -178q1 -21 -9 -441q-9 -315 -188 -503q-72 -76 -147 -115q-208 -111 -424 -111q-51 0 -82 34.5t-31 88.5q0 87 43 105q115 50 129 61q52 40 55 127q0 59 -2 139l-8 465q-3 246 31 273q54 54 334 57q59 0 112 -2z" />
    <glyph glyph-name="K" unicode="K" horiz-adv-x="1419" 
d="M422 1319h106q183 0 183 -174q0 -72 -2 -129t-2 -129q0 -50 22 -47q30 0 51 34q43 84 129 256q98 171 191 168q29 -2 141 -2q90 -12 90 -75q0 -99 -244 -467q-16 -19 11 -54q221 -283 272 -512q8 -33 8 -61q0 -115 -127 -127q-63 -7 -176 -10q-173 -6 -219 114
q-17 48 -55 142q-65 123 -92 123q-21 0 -21 -72q3 -175 -37 -227q-47 -65 -209 -80v0l-43 -2h-43q-211 0 -264 53q-51 54 -51 588q0 582 55 637q28 28 137 43q88 10 189 10z" />
    <glyph glyph-name="L" unicode="L" horiz-adv-x="1226" 
d="M1096 346q45 0 69 -53q21 -41 21 -111q-3 -70 -62 -108q-33 -23 -125 -45q-166 -41 -417 -41q-92 0 -269 8q-138 12 -211 76q-62 59 -59 596q0 232 8 399q9 166 139 221q75 32 406 29q96 3 137 -72q26 -50 29 -160q0 -270 -2 -501v-78q0 -30 12 -141q24 -34 129 -31
q25 0 96 6q59 6 99 6z" />
    <glyph glyph-name="M" unicode="M" horiz-adv-x="1595" 
d="M125 987q65 332 246 332h45q106 0 178 -90l121 -154q20 -23 35 -20q16 0 141 155q89 109 223 109h70q195 0 260 -332q77 -406 104 -829q6 -99 -65 -140q-56 -33 -164 -30l-131 2q-123 3 -172 41q-60 47 -74 157q-35 277 -47 277q-8 0 -18 -16q-8 -11 -23.5 -31
t-45.5 -57.5l-54 -67.5q-50 -62 -95 -62q-44 0 -92 60l-118 153q-11 11 -15 11q-22 0 -37 -191q-3 -44 -12 -129q-9 -88 -57 -117q-42 -25 -135 -22q-101 3 -130 59q-23 44 -20 146q9 402 82 786z" />
    <glyph glyph-name="N" unicode="N" horiz-adv-x="1345" 
d="M1290 1176q15 -261 15 -695q0 -296 -17 -379q-24 -110 -153 -110h-142q-139 0 -235 90q-244 232 -332 305q-9 6 -14 6q-23 0 -23 -80q0 -115 8 -188q6 -70 -31 -103.5t-112 -31.5l-80 2q-108 3 -117 160q-17 323 -14 524q3 510 74 581q62 65 198 62l150 -2
q119 -3 217 -113q188 -212 240 -264q19 -22 28 -22q11 0 11 20q1 6 -9 250q-6 129 144 129h71q114 0 123 -141z" />
    <glyph glyph-name="O" unicode="O" horiz-adv-x="1495" 
d="M1454 655q0 -321 -197 -503q-195 -183 -520 -183t-512 181q-184 181 -184 505q0 327 184 508q186 183 512 183q538 0 682 -459q35 -113 35 -232zM786 350q96 21 105 207q8 118 -21 242q-41 165 -143 168q-56 2 -86.5 -49.5t-36.5 -155.5q-15 -281 103 -387q37 -34 79 -25
z" />
    <glyph glyph-name="P" unicode="P" horiz-adv-x="1437" 
d="M1077 887q0 100 -92 106l-33 2q-82 6 -123 -12q-56 -23 -53 -96q6 -122 158 -113q143 9 143 113zM776 371q0 -76 2 -123q3 -105 -24 -154q-47 -89 -244 -104q-27 -3 -133 0q-122 3 -152 10q-83 15 -129 70q-55 67 -55 575q0 489 39 563q20 44 78 66q29 12 102 24
q117 21 313 21h185q639 0 639 -434q0 -144 -51 -221q-81 -130 -345 -168l-86 -13q-12 -2 -23.5 -4t-21.5 -3.5t-14 -2.5q-40 -9 -53 -22q-27 -27 -27 -80z" />
    <glyph glyph-name="Q" unicode="Q" horiz-adv-x="1495" 
d="M1454 657q0 -328 -207 -514q92 -71 86 -135q-3 -51 -92 -104q-42 -25 -72 -25q-43 0 -79 39q-60 63 -76 92q-116 -39 -277 -39q-325 0 -512 181q-184 181 -184 505q0 327 184 508q186 183 512 183q538 0 682 -459q35 -113 35 -232zM786 350q96 21 105 207q8 118 -21 242
q-41 165 -143 168q-56 2 -86.5 -49.5t-36.5 -155.5q-15 -281 103 -387q37 -34 79 -25z" />
    <glyph glyph-name="R" unicode="R" horiz-adv-x="1437" 
d="M731 248q3 -105 -24 -154q-47 -89 -244 -104q-3 -3 -86 0q-106 3 -152 12q-88 15 -129 68q-55 67 -55 575q0 492 39 563q35 62 127 80q169 31 336 31h184q639 0 639 -434q0 -233 -176 -328q155 -175 199 -369q8 -33 8 -61q0 -115 -127 -127q-63 -7 -176 -10
q-174 -6 -220 114l-55 142q-59 141 -80 141q-13 0 -10 -47q2 -14 2 -92zM1047 887q0 100 -93 106l-32 2q-82 6 -123 -12q-57 -23 -54 -96q6 -122 158 -113q144 9 144 113z" />
    <glyph glyph-name="S" unicode="S" horiz-adv-x="1361" 
d="M694 -31q-221 -9 -418 66q-118 44 -202 119q-33 26 -33 82q0 30 8 61q46 126 107 129q48 0 100 -37q86 -63 137 -63q58 0 58 55q0 54 -95 104q-284 150 -293 373q-9 235 142 357.5t463 132.5q220 9 417 -66q120 -45 203 -119q33 -26 33 -82q0 -30 -8 -61
q-46 -126 -107 -129q-48 0 -100 37q-86 63 -137 63q-58 0 -58 -55t95 -105q283 -149 292 -372q9 -235 -141.5 -357.5t-462.5 -132.5z" />
    <glyph glyph-name="T" unicode="T" horiz-adv-x="1390" 
d="M342 901q3 73 -78 70l-102 -6q-121 -9 -121 176q0 142 203 157q343 25 674 19q249 -3 364 -47q68 -27 68 -109q0 -153 -72 -188q-30 -15 -96 -15q-12 0 -50.5 2.5t-46.5 2.5q-98 3 -98 -103l-6 -637q-3 -142 -72 -190q-50 -36 -202 -45q-22 -3 -60 0q-196 6 -280 84
q-26 26 -35 145q-8 127 10 684z" />
    <glyph glyph-name="U" unicode="U" horiz-adv-x="1421" 
d="M1368 1214l10 -286q3 -34 0 -254q-3 -434 -272 -600q-170 -105 -389 -105q-322 0 -504 221q-170 209 -170 537v86q-1 5 2 188q6 299 195 308q17 1 46.5 2t76 2.5t86.5 3.5q234 6 268 -45q19 -28 16 -119q0 -30 -10 -242q-6 -132 -6 -241q3 -282 145 -273q19 0 37 2
q129 12 129 207l-2 602q0 97 172 97q167 0 170 -91z" />
    <glyph glyph-name="V" unicode="V" horiz-adv-x="1476" 
d="M1032 987l90 270q15 46 164 43q150 -3 150 -90q0 -77 -56 -254q-71 -222 -176 -473q-109 -258 -160 -329q-120 -170 -296 -170q-115 0 -195 77q-49 49 -143 218q-159 291 -273 548q-96 221 -96 338q0 141 266 150q225 6 293 -27q61 -26 133 -201q10 -32 43 -112l37 -86
q24 -56 59 -121q16 -16 33 -16q5 0 17 4q45 36 110 231z" />
    <glyph glyph-name="W" unicode="W" horiz-adv-x="1607" 
d="M1462 315q-70 -331 -245 -331h-27q-106 0 -178 90l-121 153q-20 23 -33 23q-18 -4 -143 -158q-89 -108 -223 -108h-50q-196 0 -260 331q-93 498 -125 830q-8 82 49.5 126t180.5 50l129 6q108 3 170 -39q76 -52 100 -362q6 -88 25 -88q7 0 20 16q20 27 121 156
q49 61 94 61t92 -59l119 -154q10 -10 14 -10q22 0 37 192q6 76 11 127q9 87 59 117q44 26 135 23q100 -3 129 -60q24 -40 21 -145q-9 -340 -101 -787z" />
    <glyph glyph-name="X" unicode="X" horiz-adv-x="1474" 
d="M684 182l-51 80l-133 -217q-21 -44 -146 -53q-29 0 -170 8q-135 0 -135 61q0 15 10 35q118 210 338 522q-186 279 -317 494q-39 59 -39 105q0 75 117 90q163 21 288 12q158 0 222 -43q56 -38 176 -225q69 117 133 215q18 44 143 53q11 0 170 -6q137 0 137 -62
q0 -14 -10 -34q-123 -221 -350 -519q185 -265 303 -469q64 -101 64 -157q0 -43 -37 -58q-81 -37 -412 -34q-107 -3 -168 43q-65 49 -133 159z" />
    <glyph glyph-name="Y" unicode="Y" horiz-adv-x="1456" 
d="M424 217q-3 58 -6 176q-6 131 -33 166q-116 186 -246 412q-98 171 -98 246q0 91 264 100q62 3 109 0q91 -3 143 -23q60 -23 111 -96q77 -113 170 -235q15 -15 32 -15q14 0 25 8q47 50 100 150q88 168 101 178q28 22 84 25q235 9 235 -64q0 -127 -188 -444l-148 -246
q-15 -27 -12 -141l6 -191q3 -139 -72 -190q-50 -36 -202 -45q-22 -3 -60 0q-196 6 -280 84q-32 29 -35 145z" />
    <glyph glyph-name="Z" unicode="Z" horiz-adv-x="1294" 
d="M645 -10l-336 2q-268 21 -268 112v115q0 95 207 414t207 332q0 10 -11 14q-24 6 -53 6q-39 0 -110 -12q-77 -12 -111 -15q-75 -3 -102 52q-19 43 -19 123q3 119 129 157q115 32 471 29l336 -2q268 -21 268 -113v-114q0 -99 -206 -416q-207 -319 -207 -330t10 -14
q24 -6 53 -6q41 0 111 12q63 10 110 14q77 3 103 -51q18 -41 18 -123q-3 -121 -129 -158q-111 -31 -471 -28z" />
    <glyph glyph-name="bracketleft" unicode="[" horiz-adv-x="722" 
d="M47 485v396q-6 464 197 602q110 72 241 69q61 -2 113 -2q83 0 80 -110q0 -74 -12 -154q-15 -35 -103 -35q-79 -12 -88 -90q-22 -236 -22 -479q0 -234 22 -479q9 -92 133 -92q47 0 58 -33q6 -18 12 -154q3 -110 -80 -110h-2h-6h-11.5t-16.5 -0.5t-21 -0.5t-26 -0.5
t-30 -0.5q-375 -6 -428 464q-10 105 -10 209z" />
    <glyph glyph-name="backslash" unicode="\" horiz-adv-x="841" 
d="M385 53q-204 680 -324 1204q-21 93 191 93q201 0 219 -80q112 -489 328 -1223q2 -4 2 -14q0 -64 -183 -64q-209 0 -233 84z" />
    <glyph glyph-name="bracketright" unicode="]" horiz-adv-x="724" 
d="M678 881l-2 -199q0 -76 2 -197q6 -463 -199 -604q-110 -72 -239 -69q-63 2 -115 2q-84 0 -78 110q-4 62 10 154q6 15 26 23.5t34.5 10.5t42.5 3q79 9 88 88q22 215 22 479q0 270 -22 479q-9 92 -133 92q-47 0 -58 33q-4 17 -10 154q-3 110 78 110q39 0 115 2
q174 3 297 -120q104 -104 131 -345q13 -112 10 -206z" />
    <glyph glyph-name="asciicircum" unicode="^" horiz-adv-x="854" 
d="M426 1360h2q-15 0 -49 -94q-2 -7 -35 -115q-22 -48 -82 -57q-28 -4 -104 -4q-117 0 -117 61q0 34 94 203q25 51 70 133q68 127 223 127q150 0 221 -127l51 -94q14 -24 19 -37q94 -155 94 -205q0 -61 -117 -61q-116 0 -149 20q-39 23 -66 119l-12 43q-24 88 -43 88z" />
    <glyph glyph-name="underscore" unicode="_" horiz-adv-x="1021" 
d="M143 -305q-102 -3 -102 155q0 165 100 162q371 -6 740 0q100 3 100 -162q0 -158 -107 -155q-335 6 -731 0z" />
    <glyph glyph-name="grave" unicode="`" horiz-adv-x="477" 
d="M143 1540q-101 104 -98 127q0 35 117 35q72 0 96 -6q36 -8 72 -66q8 -15 24.5 -45t24.5 -45q58 -88 49 -113q-6 -24 -63 -24q-93 0 -127 27q-24 17 -50 53q-35 47 -45 57z" />
    <glyph glyph-name="a" unicode="a" horiz-adv-x="1335" 
d="M616 1163l54 2q111 3 190 -73q61 -58 201 -338q206 -415 227 -621q6 -55 -10 -78.5t-72 -42.5q-58 -19 -196 -22q-264 -3 -291 80l-29 82q-14 38 -59 38h-119q-27 3 -94 0q-49 -3 -70 -81q-15 -60 -35 -76q-22 -28 -84 -31q-183 -9 -186 78q-3 105 102 375
q108 279 205 458q71 133 117 179q68 68 149 71zM506 578q-27 0 -80 -170q-3 -13 10 -21q20 -14 72 -14q19 0 43 6q21 4 30.5 13t4.5 20q-61 166 -80 166z" />
    <glyph glyph-name="b" unicode="b" horiz-adv-x="1222" 
d="M1182 319q0 -189 -201 -272q-134 -57 -467 -57q-60 0 -201 12q-189 15 -225 57q-47 47 -47 510q0 462 47 512q34 34 131 49q164 23 295 23q419 0 559 -131q88 -82 88 -236q0 -138 -123 -221q144 -99 144 -246zM612 352q0 -65 50 -86q27 -10 110 -10q90 0 119 57
q10 20 10 49q0 91 -133 97q-74 3 -111 -13q-45 -20 -45 -94zM741 868q-71 0 -98 -12q-43 -21 -43 -80q0 -55 31 -80q22 -16 108 -16q88 0 129 47q13 19 13 49q0 92 -140 92z" />
    <glyph glyph-name="c" unicode="c" horiz-adv-x="1288" 
d="M1221 457q20 -23 20 -66q0 -15 -4 -43q-144 -377 -565 -377q-298 0 -464.5 156.5t-166.5 447.5q0 282 161.5 441.5t444.5 159.5q209 0 369 -95q199 -117 223 -321q9 -68 -61 -92q-35 -12 -127 -21q-14 -2 -25 -2q-63 0 -72 62q-27 161 -157 143q-94 -12 -109 -199
q-4 -70 -4 -76q0 -280 125 -280q78 0 113 53q11 25 41 101q21 52 84 49q136 -3 174 -41z" />
    <glyph glyph-name="d" unicode="d" horiz-adv-x="1200" 
d="M492 1153q433 0 600 -305q67 -125 67 -275q0 -347 -291 -499q-162 -84 -381 -84q-365 0 -415 71q-31 48 -31 504q0 461 31 518q40 70 420 70zM686 307q131 -6 180 156q15 47 15 110q0 214 -152 258q-29 10 -43 7q-33 -3 -39 -56q-10 -92 -10 -209q0 -148 8 -211
q6 -52 41 -55z" />
    <glyph glyph-name="e" unicode="e" horiz-adv-x="1140" 
d="M1018 303q41 6 61.5 -29.5t20.5 -113.5q0 -112 -166 -142q-156 -28 -389 -28q-394 0 -455 76q-49 61 -49 354v143q0 427 35 492q52 98 446 98q231 0 412 -35q84 -15 115 -37q51 -34 51 -104q0 -42 -17 -88q-21 -53 -61 -53q-25 0 -90 10t-86 10q-89 3 -113 -12
q-33 -17 -33 -76q0 -66 95 -84q38 -5 149 -10q62 -3 62 -107q0 -71 -35 -92q-21 -15 -119 -12q-93 3 -133 -29q-19 -22 -19 -61q0 -55 35 -76q19 -13 111 -10q54 0 172 16z" />
    <glyph glyph-name="f" unicode="f" horiz-adv-x="1124" 
d="M684 324v-107q0 -96 -20 -135q-41 -80 -213 -92q-27 -3 -117 0q-36 0 -131 10q-76 15 -113 61q-49 58 -49 502q0 427 35 492q52 98 430 98q228 0 412 -35q75 -14 116 -37q49 -37 49 -104q0 -45 -16 -88q-21 -53 -61 -53q-23 0 -88 10t-87 10q-90 3 -114 -12
q-33 -17 -33 -84q0 -75 90 -84q72 -7 154 -10q59 -3 59 -109q0 -96 -33 -119q-23 -10 -114 -10q-109 0 -133 -27q-23 -26 -23 -77z" />
    <glyph glyph-name="g" unicode="g" horiz-adv-x="1282" 
d="M1139 512q97 -3 100 -111q0 -55 2 -147v-76q0 -25 -2 -35v-65q-9 -92 -121 -92q-140 0 -149 75l-8 33q-106 -121 -340 -121q-268 0 -424 166q-156 167 -156 436q0 283 162 441q165 160 444 160q465 0 582 -375q8 -24 8 -47q0 -63 -63 -86q-43 -15 -127 -23q-76 -9 -95 64
q-40 156 -153 141q-86 -12 -107 -197q-6 -56 -6 -78q0 -149 40 -219.5t118 -62.5q92 9 98 117q3 80 64 96q27 9 133 6z" />
    <glyph glyph-name="h" unicode="h" horiz-adv-x="1320" 
d="M1255 1030q2 -5 11 -176q14 -249 14 -434v-205q-6 -156 -41 -186q-45 -39 -291 -39q-120 0 -129 86q-4 70 -4 71l6 170q3 47 0 68q-3 61 -98 55q-61 -3 -84 -16q-31 -19 -37 -76q-2 -14 -2 -55v-100q0 -81 -16 -121q-28 -51 -123 -72q-62 -13 -146 -10q-166 9 -223 63
q-41 27 -41 522q-9 246 -10 314q3 138 61 196q71 68 263 68q132 0 172 -16q76 -34 79 -140q0 -40 -6 -139q-2 -20 -2 -45q0 -76 21 -100t92 -23q79 3 94 27q9 15 6 96l-10 223q0 117 119 117q221 0 266 -31q50 -26 59 -92z" />
    <glyph glyph-name="i" unicode="i" horiz-adv-x="671" 
d="M629 997l-8 -802q-3 -119 -62 -166q-44 -33 -176 -39h-53q-172 3 -246 71q-31 28 -37 265v272q0 154 -6 295q3 132 63 192q71 68 256 68q44 0 99 -2q173 -3 170 -154z" />
    <glyph glyph-name="j" unicode="j" horiz-adv-x="851" 
d="M647 1151q159 -6 162 -158q3 -61 -6 -383q-6 -270 -164 -442q-54 -56 -129 -98q-187 -99 -371 -99q-43 0 -70.5 32t-27.5 77q0 75 37 90q102 47 112 55q47 35 50 111q0 51 -2 121q-1 69 -2 141.5t-2.5 150t-2.5 115.5q-3 211 25 236q53 50 293 53q51 0 98 -2z" />
    <glyph glyph-name="k" unicode="k" horiz-adv-x="1249" 
d="M375 1153h92q160 0 160 -154q0 -61 -2 -112t-2 -113q0 -44 20 -41q20 0 43 29q98 168 141 266q49 110 140 107l123 -5q77 -9 77 -65q0 -86 -213 -408q-14 -14 11 -45q191 -244 237 -446q6 -27 6 -55q0 -102 -110 -111q-90 -8 -154 -10q-150 -6 -190 102q-10 23 -49 123
q-58 107 -82 107q-17 0 -17 -64q3 -153 -31 -199q-39 -54 -184 -69h-76q-122 0 -186 20q-29 13 -41 25q-47 47 -47 514q0 509 49 555q40 49 285 49z" />
    <glyph glyph-name="l" unicode="l" horiz-adv-x="1089" 
d="M971 301q78 0 78 -141q0 -62 -54 -97q-28 -16 -108 -36q-148 -37 -367 -37q-163 0 -217 4q-137 12 -201 67q-51 51 -51 521l-6 194q-3 114 25 209q33 104 110 139q64 27 352 27q143 0 146 -203v-129q-2 -100 -2 -311v-66q0 -26 12 -125q21 -27 111 -24q6 0 17 0.5t31 1.5
t36 2q86 4 88 4z" />
    <glyph glyph-name="m" unicode="m" horiz-adv-x="1409" 
d="M113 862q55 291 215 291h41q91 0 153 -80q120 -153 137 -153q31 0 72 53q27 43 51 84q78 96 195 96h63q174 0 226 -291q68 -371 92 -725q5 -74 -45 -110.5t-156 -36.5h-117q-100 0 -148 39t-67 137q-7 33 -16 164q-6 76 -23 76q-2 0 -122 -150q-44 -53 -84 -53
q-39 0 -78 51l-105 135q-5 8 -12 8q-22 0 -43 -282q-9 -122 -168 -119q-87 3 -113 51q-21 38 -18 127q9 365 70 688z" />
    <glyph glyph-name="n" unicode="n" horiz-adv-x="1185" 
d="M1133 1026q12 -206 12 -606q0 -266 -15 -330q-9 -41 -28 -57q-47 -41 -107 -41h-123q-121 0 -204 80q-201 195 -289 266q-9 6 -14 6q-19 0 -19 -70v-75q0 -31 6 -90q6 -61 -27 -91t-98 -28l-69 2q-94 3 -103 141q-15 256 -12 457q3 442 66 508q55 58 172 55l131 -2
q101 -3 188 -100q128 -145 211 -232q18 -18 25 -18t10 16q0 36 -8 219q-2 57 29.5 86t95.5 29h63q98 0 107 -125z" />
    <glyph glyph-name="o" unicode="o" 
d="M1274 571q0 -281 -172 -440q-171 -160 -455 -160q-283 0 -444.5 159t-161.5 441q0 284 160.5 443.5t445.5 159.5q442 0 592 -377q35 -122 35 -226zM692 305q81 21 90 182q6 111 -16 209q-35 142 -125 148q-48 3 -75.5 -41.5t-33.5 -136.5q-2 -23 -2 -62q0 -185 91 -276
q32 -32 71 -23z" />
    <glyph glyph-name="p" unicode="p" horiz-adv-x="1265" 
d="M946 774q0 86 -82 92l-26 2q-68 6 -107 -10q-53 -21 -47 -84q0 -107 137 -98q125 9 125 98zM684 324v-107q0 -96 -20 -135q-41 -80 -213 -92q-27 -3 -117 0q-36 0 -131 10q-76 15 -113 61q-49 58 -49 502q0 427 35 492q52 98 430 98h160q559 0 559 -381q0 -163 -90 -244
q-82 -72 -254 -96l-76 -10q-47 -7 -51 -8q-38 -9 -47 -21q-23 -26 -23 -69z" />
    <glyph glyph-name="q" unicode="q" 
d="M1274 573q0 -270 -178 -448q76 -67 73 -117q-3 -46 -79 -92q-33 -20 -64 -20q-42 0 -70 32q-53 59 -65 80q-110 -35 -244 -35q-283 0 -444.5 159t-161.5 441q0 284 160.5 443.5t445.5 159.5q442 0 592 -377q35 -122 35 -226zM692 305q81 21 90 182q6 111 -16 209
q-35 142 -125 148q-48 3 -75.5 -41.5t-33.5 -136.5q-2 -23 -2 -62q0 -185 91 -276q32 -32 71 -23z" />
    <glyph glyph-name="r" unicode="r" horiz-adv-x="1265" 
d="M643 297v-80q0 -96 -20 -135q-41 -77 -213 -92q-21 -3 -76 0q-106 3 -131 10q-76 15 -113 61q-49 58 -49 502q0 427 35 492q26 54 108 69q168 29 295 29h162q557 0 557 -381q0 -108 -33 -170q-33 -68 -123 -115q140 -159 177 -321q6 -27 6 -53q0 -101 -113 -113
q-63 -6 -151 -10q-150 -6 -191 102q-26 64 -51 123q-53 123 -70 123q-6 0 -6 -41zM918 774q0 86 -78 92l-31 2q-74 3 -104 -10q-53 -21 -50 -84q6 -107 138 -98q125 9 125 98z" />
    <glyph glyph-name="s" unicode="s" horiz-adv-x="1202" 
d="M614 -29q-332 -9 -542 162q-31 25 -31 72q0 29 8 53q43 110 94 113q40 0 88 -31q76 -55 121 -55q49 0 49 49q0 46 -84 90q-247 128 -256 326q-15 408 529 426q195 6 366 -58q111 -44 177 -102q28 -25 28 -72q0 -26 -8 -53q-40 -112 -92 -115q-38 0 -88 35q-76 55 -119 55
q-51 0 -51 -51q0 -47 82 -90q250 -130 256 -324q15 -415 -527 -430z" />
    <glyph glyph-name="t" unicode="t" horiz-adv-x="1224" 
d="M305 786q2 32 -15 47.5t-52 14.5l-91 -6q-54 -4 -80 33.5t-26 119.5q0 125 178 140q290 22 588 16q216 -3 317 -43q60 -22 60 -94q0 -132 -64 -166q-24 -12 -82 -12q-12 0 -45.5 2t-40.5 2q-86 3 -86 -88l-4 -557q0 -124 -63 -166q-47 -33 -176 -39h-52q-177 3 -245 71
q-25 25 -31 127q-8 117 10 598z" />
    <glyph glyph-name="u" unicode="u" horiz-adv-x="1249" 
d="M1206 811q3 -47 0 -223q-3 -200 -82 -355q-63 -128 -209 -200q-127 -62 -286 -62q-282 0 -439 195q-146 181 -149 467v76q0 69 2 165q3 260 170 269q112 6 182 8q201 3 234 -41q17 -24 14 -102q0 -83 -8 -211q-6 -132 -6 -213q3 -236 127 -236h32q113 12 113 180l-2 527
q0 84 150 84q146 0 149 -78q0 -13 3 -99.5t5 -150.5z" />
    <glyph glyph-name="v" unicode="v" horiz-adv-x="1298" 
d="M985 1098q15 40 143 37q129 -3 129 -78q0 -71 -47 -223q-60 -194 -153 -412q-93 -223 -139 -289q-102 -147 -261 -147q-100 0 -170 67q-43 40 -125 189q-100 177 -237 481q-84 191 -84 295q0 122 231 131q190 6 256 -25q56 -27 117 -174q3 -8 16 -41t23 -59l31 -74
q53 -121 80 -121q6 0 14 4q40 34 98 203q8 23 33.5 101.5t44.5 134.5z" />
    <glyph glyph-name="w" unicode="w" horiz-adv-x="1413" 
d="M1282 276q-61 -290 -215 -290h-23q-96 0 -155 77l-105 136q-14 20 -28 20q-13 -3 -125 -139q-76 -94 -195 -94h-45q-170 0 -225 290q-86 452 -111 723q-7 70 43.5 109t157.5 45l113 6q92 3 147 -35q67 -46 88 -315q6 -78 23 -78q1 0 123 152q44 53 84 53q38 0 77 -51
l105 -135q7 -11 12 -11q18 3 33 168q1 9 3.5 46t4.5 65q9 76 53 102q42 24 119 21q87 -3 113 -51q19 -39 16 -129q-9 -296 -88 -685z" />
    <glyph glyph-name="x" unicode="x" horiz-adv-x="1298" 
d="M602 160l-45 69l-115 -190q-20 -39 -127 -45q-16 -3 -149 6q-119 6 -119 55q0 18 8 31q80 148 299 453q-154 225 -280 432q-33 50 -33 92q0 65 100 80q120 8 252 8q141 0 193 -37q56 -40 155 -199l115 189q14 38 125 47q11 2 149 -4q121 -6 121 -55q0 -18 -8 -31
q-97 -179 -307 -453q156 -226 264 -401q57 -86 57 -139q0 -36 -32 -50q-73 -33 -375 -30q-79 -4 -131 33t-117 139z" />
    <glyph glyph-name="y" unicode="y" horiz-adv-x="1280" 
d="M377 188q0 51 -6 156q-3 101 -29 145q-77 118 -215 359q-86 151 -86 215q0 79 231 88q54 3 95 0q75 -3 125 -21q50 -23 133 -133q16 -22 53.5 -75t58.5 -82q16 -13 29 -13q10 0 20 7q43 48 88 131q74 145 89 155q20 20 73 23q203 9 203 -56q0 -54 -45 -159
q-35 -84 -246 -443q-15 -27 -12 -123l6 -167q3 -120 -61 -166q-47 -33 -179 -39h-53q-107 3 -194 37q-50 26 -66 63q-9 24 -12 98z" />
    <glyph glyph-name="z" unicode="z" horiz-adv-x="1140" 
d="M569 -10q-237 3 -407 18q-121 12 -121 84v98q0 89 180 363t180 289q0 9 -8 12q-21 6 -49 6t-96 -10q-50 -8 -94 -14q-54 -5 -80.5 33t-26.5 120q0 102 115 137q113 30 411 27q239 -3 406 -18q121 -12 121 -84v-99q0 -85 -182 -362q-181 -275 -181 -291q0 -6 11 -10
q21 -6 49 -6q26 0 98 10q63 9 92 12q67 3 90 -45q17 -39 17 -106q-3 -130 -217 -160q-60 -7 -308 -4z" />
    <glyph glyph-name="braceleft" unicode="{" horiz-adv-x="667" 
d="M623 29q0 -54 2 -103q3 -103 -80 -112q-86 -11 -117 -13q-186 -15 -295 131q-73 101 -70 258q3 98 52 291q18 66 2 111q-15 44 -76 72v34q61 28 76 74q15 40 -4 125q-8 38 -16.5 73.5t-11.5 49t-3 14.5q-12 63 -16 140q-5 182 88.5 284t271.5 101q48 0 119 -9
q80 -9 80 -114q0 -61 -13 -150q-15 -35 -102 -35q-82 -12 -88 -90q-4 -70 4 -129q15 -122 18 -125q9 -145 -90 -225q99 -86 90 -225q-3 -3 -18 -127q-8 -59 -4 -127q9 -92 133 -92q65 0 68 -82z" />
    <glyph glyph-name="bar" unicode="|" horiz-adv-x="409" 
d="M365 -37q2 -63 -37 -94t-121 -31q-83 0 -123.5 29.5t-38.5 89.5q21 721 0 1442q-2 60 38.5 90.5t123.5 30.5q81 0 120.5 -33.5t37.5 -100.5q-21 -691 0 -1423z" />
    <glyph glyph-name="braceright" unicode="}" horiz-adv-x="665" 
d="M111 111q124 0 133 92q4 68 -4 127l-17 127q-12 138 88 225q-100 81 -88 225q1 4 3 21t6 45t8 59q8 59 4 129q-6 78 -88 90q-31 -3 -86 13q-22 19 -25 82q-2 31 -2 90q-3 105 78 114q70 9 121 9q176 1 269 -101t91 -284q-3 -113 -51 -291q-18 -66 -2 -111q15 -46 76 -74
v-34q-61 -28 -76 -72q-16 -44 4 -127q12 -43 33 -129q13 -54 16 -146q3 -139 -59 -243q-71 -121 -199 -142q-40 -7 -106 -4q-31 2 -117 13q-81 9 -78 112q0 54 2 103q3 82 66 82z" />
    <glyph glyph-name="asciitilde" unicode="~" horiz-adv-x="1169" 
d="M1128 1505q0 -40 -22 -139q-26 -118 -116 -193t-208 -75q-144 0 -245 88q-6 6 -56 53q-59 56 -73 53q-3 -1 -8 -2t-7 -2q-46 -3 -49 -98q-3 -77 -43 -92q-18 -9 -55 -6q-84 3 -121 14q-79 22 -82 76q-2 22 2 51l21 88q50 210 245 256q77 18 144 6q103 -17 182 -84
q23 -20 57 -51q46 -55 72 -55h12q28 9 37 43q1 1 10 61q2 11 4 21.5t4 19.5t3 12q18 50 92 47q101 -1 148 -24t52 -68z" />
    <glyph glyph-name="exclamdown" unicode="&#xa1;" horiz-adv-x="761" 
d="M164 743q-3 61 229 99q47 8 94 8q117 0 138 -68q97 -289 82 -618q-15 -327 -140 -342q-200 -26 -458 -17q-68 3 -68 113q0 109 45 279q54 211 64 282q17 159 14 264zM389 868q-43 -6 -78 -6q-164 0 -188 129q-4 28 -4 39q0 127 203 162q111 18 184 -12q92 -41 92 -148
q0 -134 -209 -164z" />
    <glyph glyph-name="cent" unicode="&#xa2;" horiz-adv-x="1464" 
d="M1409 399q-141 -373 -522 -422q2 -4 2 -12q2 -63 -37 -94t-121 -31q-162 0 -162 119v27q-263 47 -399 229q-129 175 -129 444t129 445q136 185 399 229v68q0 121 162 121q81 0 120.5 -33.5t37.5 -99.5l-2 -54q143 -24 270 -98q229 -133 256 -367q9 -79 -70 -106
q-19 -8 -145 -23q-96 -12 -111 70q-30 185 -180 164q-110 -15 -125 -227q-4 -82 -4 -89q0 -321 144 -321q126 0 153 123q21 113 119 110q108 -3 143 -16q78 -28 78 -106q0 -23 -6 -50z" />
    <glyph glyph-name="sterling" unicode="&#xa3;" horiz-adv-x="1355" 
d="M1118 438h-203q-18 0 -18 -12q-2 -12 -2 -35t6 -35q25 -38 88 -32q129 12 225 32q54 9 80 -59q21 -49 21 -115q0 -67 -62 -108q-38 -24 -125 -45q-175 -41 -417 -41q-178 0 -248 4q-178 15 -236 76q-59 65 -59 241q0 49 8 125q0 4 -4 4h-59q-73 0 -70 137q3 154 74 154
h80q28 0 34 21q133 459 297 538q113 55 346 55q198 0 232 -6q140 -27 125 -147q-21 -197 -109 -182l-49 8q-21 3 -41.5 -25.5t-41 -89t-42.5 -153.5q-3 -21 10 -21h164q73 0 70 -152q-3 -137 -74 -137z" />
    <glyph glyph-name="currency" unicode="&#xa4;" horiz-adv-x="854" 
d="M641 575q0 216 -215 216t-215 -216q0 -215 215 -215t215 215zM426 268q-122 0 -190 45l-95 -94q-14 -14 -26 -14q-20 0 -37 20q-34 37 -8 64l94 94q-45 71 -45 192q0 122 45 193l-94 94q-28 28 8 64q18 18 35 18q16 0 30 -14l93 -92q68 45 190 45q118 0 192 -47l97 96
q27 28 61 -6q21 -21 21 -37q0 -15 -17 -29l-94 -94q47 -71 47 -191q0 -118 -47 -192l96 -94q32 -28 -4 -64q-18 -18 -37 -18q-14 0 -123 106q-71 -45 -192 -45z" />
    <glyph glyph-name="yen" unicode="&#xa5;" horiz-adv-x="1456" 
d="M416 410h-113q-41 0 -41 49t39 49h105q-6 33 -21 51q-116 186 -246 412q-98 171 -98 246q0 91 264 100q62 3 109 0q91 -3 143 -23q60 -23 111 -96q77 -113 170 -235q15 -15 32 -15q14 0 25 8q47 50 100 150q88 168 101 178q28 22 84 25q235 9 235 -64q0 -128 -186 -442
q-39 -61 -150 -248q-9 -15 -12 -47h88q39 0 39 -49t-43 -49h-84l2 -105h86q39 0 39 -49q0 -26 -10.5 -38t-32.5 -11h-78q-6 -127 -78 -178q-59 -41 -196 -41h-60q-196 0 -280 84q-23 20 -35 135h-121q-41 0 -41 49t39 49h121q-3 59 -6 105z" />
    <glyph glyph-name="brokenbar" unicode="&#xa6;" horiz-adv-x="403" 
d="M43 473q-3 102 156 102q164 0 161 -100q-2 -78 -2 -268t2 -268q3 -101 -161 -101q-159 0 -156 107q6 246 0 528zM43 1417q-3 103 156 103q164 0 161 -101q-2 -78 -2 -268t2 -268q3 -101 -161 -101q-159 0 -156 107q6 246 0 528z" />
    <glyph glyph-name="section" unicode="&#xa7;" horiz-adv-x="1656" 
d="M74 1004q-33 20 -4 63q27 40 59 18q29 -19 94 -67q15 54 41 98q-29 18 -69 49q-34 26 -9 68q15 27 35 27q13 0 105 -68q150 144 485 156q218 9 418 -66q117 -45 203 -119q32 -25 32 -82q0 -30 -8 -61q-46 -126 -106 -129q-49 0 -101 37q-86 63 -137 63q-57 0 -57 -55
q0 -56 94 -105q293 -150 293 -372v-47q13 -9 59.5 -42t81.5 -57q32 -19 4 -61q-18 -27 -37 -27q-9 0 -125 78q-12 -51 -39 -98l82 -58q29 -20 2 -61q-18 -27 -36 -27q-7 0 -25 11l-82 57q-152 -146 -489 -158q-218 -9 -418 66q-120 45 -203 119q-33 26 -33 79q0 22 11 64
q41 126 104 129q48 0 100 -37q86 -63 138 -63q57 0 57 55t-94 104q-284 148 -293 373q-3 36 0 51q-25 18 -133 95z" />
    <glyph glyph-name="dieresis" unicode="&#xa8;" horiz-adv-x="735" 
d="M184 1403q-143 0 -143 137q0 141 143 141q133 0 133 -145q0 -133 -133 -133zM561 1403q-143 0 -143 137q0 141 143 141q133 0 133 -145q0 -133 -133 -133z" />
    <glyph glyph-name="copyright" unicode="&#xa9;" horiz-adv-x="1458" 
d="M727 1346q301 0 496 -195q194 -194 194 -496q0 -300 -196 -493q-193 -193 -494 -193t-494 193q-192 192 -192 493q0 302 192 494q194 197 494 197zM727 1155q-218 0 -360 -139q-140 -140 -140 -359q0 -218 140 -358q142 -139 360 -139q219 0 358 139q142 139 142 358
t-140 359q-139 139 -360 139zM1069 528q-83 -215 -324 -215q-172 0 -266 88.5t-94 257.5q0 164 91.5 254.5t256.5 90.5q120 0 217 -60q106 -63 121 -180q3 -39 -35 -53q-21 -8 -73 -11q-47 -9 -56 35q-15 91 -90 82q-55 -9 -61 -115q-2 -23 -2 -43q0 -111 37 -145
q16 -16 34 -16q53 0 76 57q24 59 60 59q62 -3 83 -12q34 -18 25 -74z" />
    <glyph glyph-name="ordfeminine" unicode="&#xaa;" horiz-adv-x="1144" 
d="M143 -4q-102 -3 -102 156q0 164 100 161q433 -6 863 0q100 3 100 -161q0 -159 -107 -156q-390 9 -854 0zM539 1333l43 2q89 3 151 -59q55 -52 164 -272q165 -328 180 -496q5 -43 -8.5 -63t-56.5 -33q-53 -16 -158 -19q-212 -3 -233 64l-21 63q-18 35 -51 35h-170
q-40 -3 -55 -68q-12 -49 -31.5 -67t-65.5 -19q-147 -9 -147 62q0 45 8 78q16 76 72 223q74 192 166 369q60 111 92 143q54 54 121 57zM449 864q-21 0 -64 -137q-3 -10 8 -14q19 -13 60 -13q35 0 50.5 8t10.5 23q-50 133 -65 133z" />
    <glyph glyph-name="guillemotleft" unicode="&#xab;" horiz-adv-x="1355" 
d="M705 272q30 -30 30 -65q0 -45 -51 -96q-50 -50 -94 -50q-35 0 -70 35q-169 177 -446 447q-33 33 -33 75q0 43 31 74q174 171 452 453q31 31 66 31q44 0 94 -50q51 -48 51 -94q0 -37 -37 -71q-45 -43 -342 -343q56 -57 349 -346zM1284 272q31 -31 31 -65q0 -45 -51 -96
q-50 -50 -95 -50q-34 0 -69 35q-155 163 -447 447q-32 32 -32 75q0 44 30 74q201 196 453 453q31 31 65 31q45 0 95 -50q51 -48 51 -94q0 -37 -37 -71q-45 -43 -342 -343q153 -153 348 -346z" />
    <glyph glyph-name="logicalnot" unicode="&#xac;" horiz-adv-x="1210" 
d="M852 418h-709q-102 -3 -102 155q0 165 100 162q474 -6 926 0q100 3 100 -139v-383q3 -51 -155 -51q-83 0 -123 24.5t-39 75.5q2 35 2 156z" />
    <glyph glyph-name="registered" unicode="&#xae;" horiz-adv-x="1458" 
d="M727 1346q301 0 496 -195q194 -194 194 -496q0 -300 -196 -493q-193 -193 -494 -193t-494 193q-192 192 -192 493q0 302 192 494q194 197 494 197zM727 1155q-218 0 -360 -139q-140 -140 -140 -359q0 -218 140 -358q142 -139 360 -139q219 0 358 139q142 139 142 358
t-140 359q-139 139 -360 139zM731 451q3 -49 -12 -76q-27 -53 -123 -53h-43q-105 0 -139 40q-29 37 -29 287q0 243 21 283q15 27 88 45q45 10 143 10h92q320 0 320 -217q0 -121 -88 -164q102 -117 102 -215q0 -60 -64 -63q-21 -3 -88 -6q-86 -3 -108 57l-6 15t-11 27t-12 30
q-26 69 -41 69q-7 0 -4 -22q0 -20 2 -47zM889 770q0 47 -47 53l-17 2q-40 3 -61 -6q-30 -13 -27 -49q3 -58 80 -55q72 3 72 55z" />
    <glyph glyph-name="overscore" unicode="&#xaf;" horiz-adv-x="643" 
d="M127 1407q-43 -2 -64.5 24t-21.5 80q0 110 84 107q205 -3 395 0q82 3 82 -107q0 -54 -22 -80t-66 -24q-163 3 -387 0z" />
    <glyph glyph-name="degree" unicode="&#xb0;" horiz-adv-x="468" 
d="M242 1141q-201 0 -201 192q0 199 201 199q186 0 186 -205q0 -186 -186 -186zM313 1333q0 82 -75 82q-82 0 -82 -80q0 -78 82 -78q75 0 75 76z" />
    <glyph glyph-name="plusminus" unicode="&#xb1;" horiz-adv-x="1021" 
d="M670 504q3 -103 -156 -103q-165 0 -162 101q2 72 2 215q-139 0 -211 -2q-102 -3 -102 155q0 165 100 162q72 -2 213 -2q0 139 -2 211q-3 100 162 100q159 0 156 -106q-2 -68 -2 -205q141 0 213 2q100 3 100 -162q0 -158 -107 -155q-68 2 -206 2q0 -141 2 -213zM143 0
q-102 -3 -102 156q0 164 100 161q371 -6 740 0q100 3 100 -161q0 -159 -107 -156q-335 6 -731 0z" />
    <glyph glyph-name="twosuperior" unicode="&#xb2;" horiz-adv-x="704" 
d="M436 664h-225q-70 0 -115 39t-45 104q0 84 62 149q135 144 135 170q0 35 -29 35q-24 0 -69 -31q-27 -18 -52 -18q-29 0 -53 64q-4 20 -4 30q0 25 16 41q40 37 103 60q89 35 192 32q148 -6 220 -60t69 -157q-3 -115 -143 -180q-89 -41 -86 -70q0 -18 16 -18q32 0 115 51
q31 17 51 17q18 0 41 -13q30 -20 27 -104q-3 -98 -70 -125q-43 -16 -156 -16z" />
    <glyph glyph-name="threesuperior" unicode="&#xb3;" horiz-adv-x="698" 
d="M45 823q24 64 53 64q18 0 54 -19q45 -23 90 -26q42 0 45 41q3 29 -9.5 42.5t-41.5 12.5q-65 0 -89 12q-18 12 -18 51q0 45 25 54q27 9 82 6q54 -3 51 59q-3 39 -43 39q-47 0 -92 -26q-36 -19 -54 -19q-30 3 -53 66q-4 20 -4 30q0 25 16 41q45 38 103 58q93 35 207 32
q146 -4 218 -58.5t70 -158.5q-3 -77 -73 -123q70 -46 73 -124q2 -103 -70.5 -158.5t-217.5 -59.5q-112 -3 -207 33q-61 21 -103 60q-16 16 -16 41q0 10 4 30z" />
    <glyph glyph-name="acute" unicode="&#xb4;" horiz-adv-x="471" 
d="M109 1403q-56 0 -62 24q-6 17 16 58l68 117q1 3 3 7l6 12t7 15q22 48 68 60q24 6 96 6q116 0 119 -35q0 -24 -100 -127q-6 -9 -16 -21.5t-26.5 -32.5t-27.5 -34q-43 -49 -151 -49z" />
    <glyph glyph-name="mu" unicode="&#xb5;" horiz-adv-x="1458" 
d="M1417 655q0 -300 -196 -493q-193 -193 -494 -193t-494 193q-192 192 -192 493q0 302 192 494q194 197 494 197q301 0 496 -195q194 -194 194 -496zM1227 657q0 220 -142 359q-139 139 -358 139q-218 0 -360 -139q-140 -140 -140 -359q0 -218 140 -358q142 -139 360 -139
q216 0 358 139q142 142 142 358zM999 965q25 -35 39 -64q6 -9 6 -16l-94 -58h150v-131h-291q5 -15 20 -45q68 -159 279 -231l-92 -121q-166 84 -291 270q-71 -153 -270 -270l-93 121q197 79 263 219q10 30 18 57h-276v131h292v203l142 -20q14 -3 14 -11q-1 -4 -12.5 -8.5
t-11.5 -9.5v-154h151q-31 66 -100 144l100 63l10 -10q12 -18 47 -59z" />
    <glyph glyph-name="paragraph" unicode="&#xb6;" horiz-adv-x="1327" 
d="M1282 113q3 -125 -158 -125q-164 0 -161 118q8 380 2 873q0 57 -64 57h-6q-64 0 -64 -57q-5 -369 5 -866q3 -125 -158 -125q-165 0 -162 118q1 45 2 165.5t2 179.5q-474 15 -477 428q-3 440 522 440h559q81 0 120.5 -33.5t37.5 -99.5q-12 -458 0 -1073z" />
    <glyph glyph-name="middot" unicode="&#xb7;" horiz-adv-x="460" 
d="M236 387q-190 0 -193 184q-3 197 193 197q184 0 184 -197q0 -184 -184 -184z" />
    <glyph glyph-name="cedilla" unicode="&#xb8;" horiz-adv-x="481" 
d="M162 16h33q40 0 43 -24q0 -5 -15 -107q0 -12 -4 -28l45 10q34 8 72 -2q105 -30 96 -141q-12 -146 -186 -152q-119 -3 -193 59q-9 9 -12 25q0 6 4 22q12 43 35 43q12 0 33 -12q39 -22 57 -22q20 0 23 18q9 44 -43 47q-51 3 -73 20t-16 46q10 46 27 141q9 57 74 57z" />
    <glyph glyph-name="onesuperior" unicode="&#xb9;" horiz-adv-x="579" 
d="M426 1317h20q93 0 93 -88v-21q-2 -10 -2 -39l-7 -399q0 -64 -27 -88t-97 -29h-41q-100 3 -138 41q-15 15 -18 70q-2 18 -2 119v141q0 63 -17 63q-4 0 -34 -14t-37 -14q-50 0 -68 69q-9 35 39 72q58 44 152 100q25 14 139 17h45z" />
    <glyph glyph-name="ordmasculine" unicode="&#xba;" horiz-adv-x="1071" 
d="M150 -4q-103 -3 -103 156q0 164 100 161q391 -6 781 0q100 3 100 -161q0 -159 -106 -156q-352 6 -772 0zM1030 862q0 -225 -139 -352t-363 -127q-228 0 -357.5 126.5t-129.5 352.5q0 228 129 356t358 128q363 0 471 -302q31 -88 31 -182zM563 649q65 15 74 146
q6 89 -14 168q-29 115 -101 118q-77 3 -86 -143q-15 -188 70 -270q28 -28 57 -19z" />
    <glyph glyph-name="guillemotright" unicode="&#xbb;" horiz-adv-x="1355" 
d="M651 272l348 346l-342 343q-36 33 -36 71q0 45 49 94q53 50 96 50q34 0 65 -31q252 -257 453 -453q31 -31 31 -74q0 -42 -33 -75q-277 -270 -446 -447q-35 -35 -70 -35q-43 0 -96 50q-49 52 -49 96q0 35 30 65zM72 272l348 346l-342 343q-37 34 -37 71q0 45 49 94
q53 50 96 50q35 0 66 -31q252 -257 453 -453q30 -30 30 -74q0 -42 -33 -75q-277 -270 -446 -447q-35 -35 -70 -35q-43 0 -96 50q-49 52 -49 96q0 34 31 65z" />
    <glyph glyph-name="onequarter" unicode="&#xbc;" horiz-adv-x="1742" 
d="M842 702q-9 -43 -113 -43q-103 0 -94 39q63 280 164 613q12 39 114 39q53 0 75.5 -11t15.5 -34q-84 -274 -162 -603zM426 1317h20q93 0 93 -88v-21q-2 -10 -2 -39l-7 -399q0 -64 -27 -88t-97 -29h-41q-100 3 -138 41q-15 15 -18 70q-2 18 -2 119v141q0 63 -17 63
q-4 0 -34 -14t-37 -14q-50 0 -68 69q-9 35 39 72q58 44 152 100q25 14 139 17h45zM1673 942q29 3 29 -82q0 -44 -13 -54.5t-63 -10.5q-22 0 -22 -23q0 -110 -127 -119q-9 0 -13 -2h-26q-101 3 -140 39q-10 10 -16 84q-252 -9 -274 76q-13 57 -13 90q9 92 271 348
q30 30 200 27q15 0 27 -2h27q92 0 92 -88v-29q-2 -14 -2 -31v-28l-6 -179q0 -18 14 -18q24 0 55 2zM1161 932v-4q13 -22 58 -19q42 0 55 13q7 11 10 43q0 18 2 32q0 82 -14 82q-21 0 -80 -86q-31 -48 -31 -61z" />
    <glyph glyph-name="onehalf" unicode="&#xbd;" horiz-adv-x="1722" 
d="M842 702q-9 -43 -113 -43q-103 0 -94 39q63 280 164 613q12 39 114 39q53 0 75.5 -11t15.5 -34q-84 -274 -162 -603zM426 1317h20q93 0 93 -88v-21q-2 -10 -2 -39l-7 -399q0 -64 -27 -88t-97 -29h-41q-100 3 -138 41q-15 15 -18 70q-2 18 -2 119v141q0 63 -17 63
q-4 0 -34 -14t-37 -14q-50 0 -68 69q-9 35 39 72q58 44 152 100q25 14 139 17h45zM1454 664h-225q-70 0 -115 39t-45 104q0 85 61 149q136 145 136 170q0 35 -29 35q-25 0 -70 -31q-27 -18 -51 -18q-29 0 -53 64q-4 20 -4 30q0 25 16 41q40 37 103 60q89 35 192 32
q148 -6 220 -60t69 -157q-3 -115 -143 -180q-89 -41 -86 -70q0 -18 16 -18q32 0 115 51q31 17 51 17q18 0 41 -13q29 -19 26 -104q-3 -99 -69 -125q-43 -16 -156 -16z" />
    <glyph glyph-name="threequarters" unicode="&#xbe;" horiz-adv-x="1806" 
d="M903 702q-9 -43 -112 -43q-104 0 -95 39q64 300 164 613q12 39 117 39q51 0 73 -11t15 -34q-87 -278 -162 -603zM1735 942q30 3 30 -82q0 -43 -13.5 -54t-61.5 -11q-25 0 -25 -23q0 -64 -28 -89t-97 -30q-10 0 -14 -2h-27q-98 3 -137 39q-10 10 -19 84q-221 -9 -268 66
q-16 29 -16 100q9 86 268 348q38 30 201 27q18 0 28 -2h25q91 0 94 -88q0 -15 -2 -29v-41q-2 -6 -2 -18l-4 -179q0 -18 14 -18q40 0 54 2zM1225 928q9 -22 57 -19t57 23q6 12 9 65v45q-3 37 -15 37q-16 0 -78 -86q-32 -43 -32 -61q0 -2 2 -4zM45 823q24 64 53 64
q18 0 54 -19q45 -23 90 -26q42 0 45 41q3 29 -9.5 42.5t-41.5 12.5q-65 0 -89 12q-18 12 -18 51q0 45 25 54q27 9 82 6q54 -3 51 59q-3 39 -43 39q-47 0 -92 -26q-36 -19 -54 -19q-30 3 -53 66q-4 20 -4 30q0 25 16 41q45 38 103 58q93 35 207 32q146 -4 218 -58.5
t70 -158.5q-3 -77 -73 -123q70 -46 73 -124q2 -103 -70.5 -158.5t-217.5 -59.5q-112 -3 -207 33q-61 21 -103 60q-16 16 -16 41q0 10 4 30z" />
    <glyph glyph-name="questiondown" unicode="&#xbf;" horiz-adv-x="1288" 
d="M567 741q-4 31 51.5 56t174.5 45q47 8 94 8q112 0 133 -66q22 -80 22 -157q0 -176 -124 -273q-84 -69 -84 -125q0 -71 61 -71q51 0 137 63q52 37 101 37q60 -3 106 -129q8 -31 8 -61q0 -56 -33 -82q-84 -75 -202 -119q-197 -73 -385 -64q-587 21 -578 435q6 266 285 358
q243 82 237 119q0 2 -0.5 5l-1.5 9zM788 868q-43 -6 -77 -6q-165 0 -189 129q-4 28 -4 39q0 127 203 162q111 18 184 -12q92 -41 92 -148q0 -134 -209 -164z" />
    <glyph glyph-name="Agrave" unicode="&#xc0;" horiz-adv-x="1515" 
d="M700 1333l62 2q130 3 217 -84q77 -77 231 -389q237 -476 258 -708q6 -63 -12 -90.5t-80 -47.5q-67 -23 -225 -26q-300 -3 -334 90q-7 22 -31 90q-24 49 -71 49h-135q-31 3 -109 0q-54 -3 -78 -94q-18 -68 -45 -93.5t-92 -29.5q-210 -9 -213 88q-3 120 117 430
q116 303 235 527q83 154 133 204q79 79 172 82zM571 662q-28 0 -90 -195q-6 -20 17 -29.5t77 -9.5t76.5 10.5t14.5 32.5q-71 191 -95 191zM666 1540q-102 105 -99 127q0 35 117 35q72 0 96 -6q36 -8 72 -66q8 -15 24.5 -45t24.5 -45q58 -88 49 -113q-6 -24 -63 -24
q-93 0 -127 27q-22 16 -49 53q-34 47 -45 57z" />
    <glyph glyph-name="Aacute" unicode="&#xc1;" horiz-adv-x="1515" 
d="M700 1333l62 2q130 3 217 -84q77 -77 231 -389q237 -476 258 -708q6 -63 -12 -90.5t-80 -47.5q-67 -23 -225 -26q-300 -3 -334 90q-7 22 -31 90q-24 49 -71 49h-135q-31 3 -109 0q-54 -3 -78 -94q-18 -68 -45 -93.5t-92 -29.5q-210 -9 -213 88q-3 120 117 430
q116 303 235 527q83 154 133 204q79 79 172 82zM571 662q-28 0 -90 -195q-6 -20 17 -29.5t77 -9.5t76.5 10.5t14.5 32.5q-71 191 -95 191zM629 1403q-56 0 -62 24q-5 15 17 58l67 117q1 3 7 13.5t10 20.5q22 48 67 60q24 6 96 6q116 0 119 -35q0 -24 -100 -127
q-6 -9 -16 -21.5t-26.5 -32.5t-27.5 -34q-43 -49 -151 -49z" />
    <glyph glyph-name="Acircumflex" unicode="&#xc2;" horiz-adv-x="1515" 
d="M700 1333l62 2q130 3 217 -84q77 -77 231 -389q237 -476 258 -708q6 -63 -12 -90.5t-80 -47.5q-67 -23 -225 -26q-300 -3 -334 90q-7 22 -31 90q-24 49 -71 49h-135q-31 3 -109 0q-54 -3 -78 -94q-18 -68 -45 -93.5t-92 -29.5q-210 -9 -213 88q-3 120 117 430
q116 303 235 527q83 154 133 204q79 79 172 82zM571 662q-28 0 -90 -195q-6 -20 17 -29.5t77 -9.5t76.5 10.5t14.5 32.5q-71 191 -95 191zM756 1593q-10 0 -37 -92q-10 -33 -17 -45q-9 -27 -26 -37q-20 -14 -107 -14q-74 0 -77 31q-3 28 20 73l90 170q46 88 154 88
q107 0 153 -88l90 -170q25 -48 25 -63q0 -41 -82 -41q-79 0 -100 12q-28 15 -49 84q-27 92 -37 92z" />
    <glyph glyph-name="Atilde" unicode="&#xc3;" horiz-adv-x="1515" 
d="M700 1333l62 2q130 3 217 -84q77 -77 231 -389q237 -476 258 -708q6 -63 -12 -90.5t-80 -47.5q-67 -23 -225 -26q-300 -3 -334 90q-7 22 -31 90q-24 49 -71 49h-135q-31 3 -109 0q-54 -3 -78 -94q-18 -68 -45 -93.5t-92 -29.5q-210 -9 -213 88q-3 120 117 430
q116 303 235 527q83 154 133 204q79 79 172 82zM571 662q-28 0 -90 -195q-6 -20 17 -29.5t77 -9.5t76.5 10.5t14.5 32.5q-71 191 -95 191zM1004 1692q75 -9 63 -78q-40 -228 -233 -201q-72 9 -138 78q-28 32 -49 29q-20 -3 -29 -56q-6 -52 -24 -55q-22 -6 -82 0
q-75 9 -66 78q24 172 160 199q40 8 76 4q78 -9 137 -80q10 -13 33 -29q6 -2 16 -2q21 3 27 59q3 47 27 54q24 6 82 0z" />
    <glyph glyph-name="Adieresis" unicode="&#xc4;" horiz-adv-x="1515" 
d="M700 1333l62 2q130 3 217 -84q77 -77 231 -389q237 -476 258 -708q6 -63 -12 -90.5t-80 -47.5q-67 -23 -225 -26q-300 -3 -334 90q-7 22 -31 90q-24 49 -71 49h-135q-31 3 -109 0q-54 -3 -78 -94q-18 -68 -45 -93.5t-92 -29.5q-210 -9 -213 88q-3 120 117 430
q116 303 235 527q83 154 133 204q79 79 172 82zM571 662q-28 0 -90 -195q-6 -20 17 -29.5t77 -9.5t76.5 10.5t14.5 32.5q-71 191 -95 191zM575 1403q-143 0 -143 137q0 141 143 141q134 0 134 -145q0 -133 -134 -133zM952 1403q-143 0 -143 137q0 141 143 141
q133 0 133 -145q0 -133 -133 -133z" />
    <glyph glyph-name="Aring" unicode="&#xc5;" horiz-adv-x="1515" 
d="M700 1333l62 2q130 3 217 -84q77 -77 231 -389q237 -476 258 -708q6 -63 -12 -90.5t-80 -47.5q-67 -23 -225 -26q-300 -3 -334 90q-7 22 -31 90q-24 49 -71 49h-135q-31 3 -109 0q-54 -3 -78 -94q-18 -68 -45 -93.5t-92 -29.5q-210 -9 -213 88q-3 120 117 430
q116 303 235 527q83 154 133 204q79 79 172 82zM571 662q-28 0 -90 -195q-6 -20 17 -29.5t77 -9.5t76.5 10.5t14.5 32.5q-71 191 -95 191zM766 1405q-201 0 -201 192q0 199 201 199q186 0 186 -205q0 -186 -186 -186zM838 1597q0 82 -76 82q-82 0 -82 -80q0 -77 82 -77
q76 0 76 75z" />
    <glyph glyph-name="AE" unicode="&#xc6;" horiz-adv-x="2025" 
d="M1890 348q68 9 86 -86q9 -43 9 -80q0 -124 -189 -162q-157 -32 -399 -32h-242q-132 0 -186 4q-130 15 -152 78q-7 21 -10 104q-3 45 -57 45h-136q-30 3 -108 0q-54 -3 -103 -94q-34 -63 -65 -88q-40 -32 -105 -35q-192 -9 -192 72q0 86 235 446q207 316 375 527
q121 151 189 204q94 73 194 82l27 2q98 -3 162 -88q85 70 272 70q105 0 301 -35q189 -35 189 -162q0 -162 -91 -162q-21 0 -100 11q-64 12 -98 12q-101 3 -131 -14q-39 -20 -39 -86q0 -88 104 -97q95 -9 176 -12q73 -3 70 -121q0 -83 -39 -106q-29 -18 -133 -15
q-119 3 -154 -32q-24 -24 -24 -70q0 -62 41 -86q30 -17 129 -14q71 0 194 20zM725 662q-26 0 -141 -195q-4 -8 -4 -12q0 -27 88 -27q22 0 49 6q54 12 51 37q-21 191 -43 191z" />
    <glyph glyph-name="Ccedilla" unicode="&#xc7;" horiz-adv-x="1464" 
d="M764 -31h-37q-2 -10 -12 -84q0 -12 -4 -28l45 10q33 8 71 -2q106 -30 97 -141q-12 -146 -187 -152q-118 -3 -192 59q-10 10 -13 25q0 2 5 22q12 43 34 43q12 0 33 -12q39 -22 58 -22t22 18q9 44 -43 47q-50 3 -72 19.5t-16 46.5q10 46 27 141q4 19 8 25q-274 44 -410 223
q-137 171 -137 452q0 325 184 506q186 183 512 183q233 0 420 -111q229 -133 256 -367q9 -79 -70 -106q-19 -8 -145 -23q-96 -12 -111 70q-30 185 -180 164q-110 -15 -125 -227q-4 -82 -4 -89q0 -321 144 -321q126 0 153 123q21 113 119 110q108 -3 143 -16q78 -28 78 -109
q0 -20 -6 -47q-163 -430 -645 -430z" />
    <glyph glyph-name="Egrave" unicode="&#xc8;" horiz-adv-x="1294" 
d="M555 1540q-101 104 -98 127q0 35 116 35q73 0 97 -6q35 -8 71 -66q8 -16 25 -45.5t25 -44.5q58 -88 49 -113q-6 -24 -64 -24q-92 0 -127 27q-22 16 -49 53q-35 47 -45 57zM1159 348q68 9 86 -86q8 -39 8 -80q0 -124 -188 -162q-157 -32 -447 -32q-452 0 -522 88
q-55 70 -55 403v166q0 492 39 563q20 44 80 66q35 12 104 24q126 21 328 21q276 0 473 -37q188 -35 188 -162q0 -162 -90 -162q-21 0 -100 11q-64 12 -98 12q-101 3 -131 -14q-39 -20 -39 -86q0 -88 104 -97q95 -9 176 -12q73 -3 70 -121q0 -83 -39 -106q-29 -18 -133 -15
q-119 3 -154 -32q-24 -24 -24 -70q0 -62 41 -86q30 -17 129 -14q71 0 194 20z" />
    <glyph glyph-name="Eacute" unicode="&#xc9;" horiz-adv-x="1294" 
d="M518 1403q-55 0 -61 24q-6 17 16 58l68 117q1 3 3 7l6 12t7 15q22 48 68 60q24 6 96 6q116 0 119 -35q0 -23 -101 -127q-7 -10 -69 -88q-43 -49 -152 -49zM1159 348q68 9 86 -86q8 -39 8 -80q0 -124 -188 -162q-157 -32 -447 -32q-452 0 -522 88q-55 70 -55 403v166
q0 492 39 563q20 44 80 66q35 12 104 24q126 21 328 21q276 0 473 -37q188 -35 188 -162q0 -162 -90 -162q-21 0 -100 11q-64 12 -98 12q-101 3 -131 -14q-39 -20 -39 -86q0 -88 104 -97q95 -9 176 -12q73 -3 70 -121q0 -83 -39 -106q-29 -18 -133 -15q-119 3 -154 -32
q-24 -24 -24 -70q0 -62 41 -86q30 -17 129 -14q71 0 194 20z" />
    <glyph glyph-name="Ecircumflex" unicode="&#xca;" horiz-adv-x="1294" 
d="M645 1591q-10 0 -37 -92q-11 -37 -16 -45q-9 -26 -27 -37q-20 -14 -106 -14q-75 0 -78 31q-3 28 20 73l91 170q46 88 153 88q108 0 154 -88l90 -170q24 -47 24 -63q0 -41 -82 -41q-79 0 -100 12q-28 15 -49 84q-27 92 -37 92zM1159 348q68 9 86 -86q8 -39 8 -80
q0 -124 -188 -162q-157 -32 -447 -32q-452 0 -522 88q-55 70 -55 403v166q0 492 39 563q20 44 80 66q35 12 104 24q126 21 328 21q276 0 473 -37q188 -35 188 -162q0 -162 -90 -162q-21 0 -100 11q-64 12 -98 12q-101 3 -131 -14q-39 -20 -39 -86q0 -88 104 -97
q95 -9 176 -12q73 -3 70 -121q0 -83 -39 -106q-29 -18 -133 -15q-119 3 -154 -32q-24 -24 -24 -70q0 -62 41 -86q30 -17 129 -14q71 0 194 20z" />
    <glyph glyph-name="Edieresis" unicode="&#xcb;" horiz-adv-x="1294" 
d="M465 1403q-143 0 -143 137q0 141 143 141q133 0 133 -145q0 -133 -133 -133zM842 1403q-144 0 -144 137q0 141 144 141q133 0 133 -145q0 -133 -133 -133zM1159 348q68 9 86 -86q8 -39 8 -80q0 -124 -188 -162q-157 -32 -447 -32q-452 0 -522 88q-55 70 -55 403v166
q0 492 39 563q20 44 80 66q35 12 104 24q126 21 328 21q276 0 473 -37q188 -35 188 -162q0 -162 -90 -162q-21 0 -100 11q-64 12 -98 12q-101 3 -131 -14q-39 -20 -39 -86q0 -88 104 -97q95 -9 176 -12q73 -3 70 -121q0 -83 -39 -106q-29 -18 -133 -15q-119 3 -154 -32
q-24 -24 -24 -70q0 -62 41 -86q30 -17 129 -14q71 0 194 20z" />
    <glyph glyph-name="Igrave" unicode="&#xcc;" horiz-adv-x="755" 
d="M289 1540q-102 105 -99 127q0 35 117 35q72 0 96 -6q36 -8 72 -66q8 -15 24.5 -45t24.5 -45q58 -88 49 -113q-6 -24 -63 -24q-92 0 -127 27q-22 16 -49 53q-34 47 -45 57zM713 1143l-8 -920q-3 -142 -72 -190q-50 -36 -203 -45q-21 -3 -59 0q-197 6 -281 84
q-34 34 -43 301v313q0 172 -6 338q3 151 72 217q84 78 293 78q51 0 114 -2q196 -3 193 -174z" />
    <glyph glyph-name="Iacute" unicode="&#xcd;" horiz-adv-x="755" 
d="M252 1403q-56 0 -62 24q-5 15 17 58l67 117q1 3 7 13.5t10 20.5q22 48 67 60q24 6 97 6q115 0 118 -35q0 -24 -100 -127q-6 -9 -16 -21.5t-26.5 -32.5t-27.5 -34q-43 -49 -151 -49zM713 1143l-8 -920q-3 -142 -72 -190q-50 -36 -203 -45q-21 -3 -59 0q-197 6 -281 84
q-34 34 -43 301v313q0 156 -6 338q3 151 72 217q84 78 293 78q51 0 114 -2q196 -3 193 -174z" />
    <glyph glyph-name="Icircumflex" unicode="&#xce;" horiz-adv-x="755" 
d="M379 1593q-10 0 -37 -92q-11 -37 -16 -45q-9 -26 -27 -37q-20 -14 -106 -14q-75 0 -78 31q-3 28 20 73l90 170q46 88 154 88q107 0 153 -88l91 -170q24 -46 24 -63q0 -41 -82 -41q-79 0 -100 12q-28 15 -49 84q-27 92 -37 92zM713 1143l-8 -920q-3 -142 -72 -190
q-50 -36 -203 -45q-21 -3 -59 0q-197 6 -281 84q-34 34 -43 301v313q0 172 -6 338q3 151 72 217q84 78 293 78q51 0 114 -2q196 -3 193 -174z" />
    <glyph glyph-name="Idieresis" unicode="&#xcf;" horiz-adv-x="755" 
d="M199 1403q-144 0 -144 137q0 141 144 141q133 0 133 -145q0 -133 -133 -133zM575 1403q-143 0 -143 137q0 141 143 141q134 0 134 -145q0 -133 -134 -133zM713 1143l-8 -920q-3 -142 -72 -190q-50 -36 -203 -45q-21 -3 -59 0q-197 6 -281 84q-34 34 -43 301v313
q0 172 -6 338q3 151 72 217q84 78 293 78q51 0 114 -2q196 -3 193 -174z" />
    <glyph glyph-name="Eth" unicode="&#xd0;" horiz-adv-x="1505" 
d="M868 782h15q100 3 100 -129q0 -128 -106 -125h-9q3 -64 9 -114q7 -33 12 -41q9 -18 35 -21q151 -6 206 178q17 63 17 127q0 248 -174 297q-29 10 -49 7q-36 -3 -45 -64q-9 -70 -11 -115zM184 528h-41q-102 -3 -102 125q0 132 100 129h43q3 400 35 459q44 80 481 80
q498 0 686 -350q78 -147 78 -314q0 -398 -331 -573q-186 -97 -437 -94q-422 3 -477 82q-32 50 -35 456z" />
    <glyph glyph-name="Ntilde" unicode="&#xd1;" horiz-adv-x="1345" 
d="M1290 1176q15 -261 15 -695q0 -296 -17 -379q-24 -110 -153 -110h-142q-139 0 -235 90q-244 232 -332 305q-9 6 -14 6q-23 0 -23 -80q0 -115 8 -188q6 -70 -31 -103.5t-112 -31.5l-80 2q-108 3 -117 160q-17 323 -14 524q3 510 74 581q62 65 198 62l150 -2
q119 -3 217 -113q188 -212 240 -264q19 -22 28 -22q11 0 11 20q1 6 -9 250q-6 129 144 129h71q114 0 123 -141zM920 1692q75 -9 63 -78q-40 -228 -233 -201q-72 9 -138 78q-28 32 -49 29q-19 -3 -28 -56q-6 -52 -25 -55q-22 -6 -82 0q-75 9 -66 78q24 172 160 199q40 8 76 4
q78 -9 137 -80q10 -13 33 -29q6 -2 16 -2q21 3 27 59q3 47 27 54q24 6 82 0z" />
    <glyph glyph-name="Ograve" unicode="&#xd2;" horiz-adv-x="1495" 
d="M1454 655q0 -321 -197 -503q-195 -183 -520 -183t-512 181q-184 181 -184 505q0 327 184 508q186 183 512 183q538 0 682 -459q35 -113 35 -232zM786 350q96 21 105 207q8 118 -21 242q-41 165 -143 168q-56 2 -86.5 -49.5t-36.5 -155.5q-15 -281 103 -387q37 -34 79 -25
zM655 1540q-101 104 -98 127q0 35 117 35q72 0 96 -6q36 -8 72 -66q8 -15 24.5 -45t24.5 -45q58 -88 49 -113q-6 -24 -63 -24q-93 0 -127 27q-24 17 -50 53q-35 47 -45 57z" />
    <glyph glyph-name="Oacute" unicode="&#xd3;" horiz-adv-x="1495" 
d="M1454 655q0 -321 -197 -503q-195 -183 -520 -183t-512 181q-184 181 -184 505q0 327 184 508q186 183 512 183q538 0 682 -459q35 -113 35 -232zM786 350q96 21 105 207q8 118 -21 242q-41 165 -143 168q-56 2 -86.5 -49.5t-36.5 -155.5q-15 -281 103 -387q37 -34 79 -25
zM618 1403q-55 0 -61 24q-6 17 16 58l68 117q1 3 3 7l6 12t7 15q22 48 68 60q24 6 96 6q116 0 119 -35q0 -24 -100 -127q-6 -9 -16 -21.5t-26.5 -32.5t-27.5 -34q-43 -49 -152 -49z" />
    <glyph glyph-name="Ocircumflex" unicode="&#xd4;" horiz-adv-x="1495" 
d="M1454 655q0 -321 -197 -503q-195 -183 -520 -183t-512 181q-184 181 -184 505q0 327 184 508q186 183 512 183q538 0 682 -459q35 -113 35 -232zM786 350q96 21 105 207q8 118 -21 242q-41 165 -143 168q-56 2 -86.5 -49.5t-36.5 -155.5q-15 -281 103 -387q37 -34 79 -25
zM745 1593q-9 0 -36 -92q-10 -33 -17 -45q-9 -27 -26 -37q-20 -14 -107 -14q-75 0 -78 31q-3 27 21 73l90 170q46 88 153 88q108 0 154 -88l90 -170q25 -48 25 -63q0 -41 -82 -41q-80 0 -101 12q-28 15 -49 84q-27 92 -37 92z" />
    <glyph glyph-name="Otilde" unicode="&#xd5;" horiz-adv-x="1495" 
d="M1454 655q0 -321 -197 -503q-195 -183 -520 -183t-512 181q-184 181 -184 505q0 327 184 508q186 183 512 183q538 0 682 -459q35 -113 35 -232zM786 350q96 21 105 207q8 118 -21 242q-41 165 -143 168q-56 2 -86.5 -49.5t-36.5 -155.5q-15 -281 103 -387q37 -34 79 -25
zM993 1692q76 -9 64 -78q-40 -228 -234 -201q-71 9 -137 78q-28 32 -49 29q-20 -3 -29 -56q-6 -52 -24 -55q-22 -6 -82 0q-75 9 -66 78q24 172 160 199q40 8 76 4q78 -9 137 -80q10 -13 33 -29q6 -2 16 -2q21 3 27 59q3 47 26 54q24 6 82 0z" />
    <glyph glyph-name="Odieresis" unicode="&#xd6;" horiz-adv-x="1495" 
d="M1454 655q0 -321 -197 -503q-195 -183 -520 -183t-512 181q-184 181 -184 505q0 327 184 508q186 183 512 183q538 0 682 -459q35 -113 35 -232zM786 350q96 21 105 207q8 118 -21 242q-41 165 -143 168q-56 2 -86.5 -49.5t-36.5 -155.5q-15 -281 103 -387q37 -34 79 -25
zM565 1403q-143 0 -143 137q0 141 143 141q133 0 133 -145q0 -133 -133 -133zM942 1403q-143 0 -143 137q0 141 143 141q133 0 133 -145q0 -133 -133 -133z" />
    <glyph glyph-name="multiply" unicode="&#xd7;" horiz-adv-x="886" 
d="M815 428q31 -28 31 -63q0 -53 -70 -123q-68 -68 -123 -68q-32 0 -61 29q-14 14 -63.5 64t-86.5 87q-77 -77 -147 -149q-29 -29 -62 -29q-53 0 -124 68q-68 68 -68 123q0 32 29 61q15 15 151 147q-134 133 -151 150q-29 29 -29 59q0 55 68 123q67 70 122 70q39 0 68 -33
q65 -68 141 -147q38 38 88.5 89t63.5 64q29 29 61 29q55 0 123 -68q70 -67 70 -123q0 -36 -33 -65q-79 -79 -151 -148q86 -83 153 -147z" />
    <glyph glyph-name="Oslash" unicode="&#xd8;" horiz-adv-x="1495" 
d="M434 18l-59 -102q-20 -36 -64 -12q-43 24 -22 59l55 98q-303 169 -303 594q0 327 184 508q186 183 512 183q180 0 322 -54l63 111q17 33 62 8q28 -16 28 -37q0 -11 -8 -24l-57 -99q94 -48 170 -155q137 -196 137 -441q0 -321 -197 -503q-195 -183 -520 -183
q-172 0 -303 49zM786 350q96 21 105 207q9 130 -14 225l-211 -362q66 -84 120 -70zM727 967q-56 3 -86.5 -48t-36.5 -157q-9 -125 14 -227l209 362q-43 67 -100 70z" />
    <glyph glyph-name="Ugrave" unicode="&#xd9;" horiz-adv-x="1421" 
d="M618 1540q-101 104 -98 127q0 35 117 35q72 0 96 -6q36 -8 72 -66q8 -15 24.5 -45t24.5 -45q58 -88 49 -113q-6 -24 -63 -24q-92 0 -127 27q-22 16 -49 53q-32 43 -46 57zM1368 1214l10 -286q3 -34 0 -254q-3 -434 -272 -600q-170 -105 -389 -105q-322 0 -504 221
q-170 209 -170 537v86q-1 5 2 188q6 299 195 308q17 1 46.5 2t76 2.5t86.5 3.5q234 6 268 -45q19 -28 16 -119q0 -30 -10 -242q-6 -132 -6 -241q3 -282 145 -273q19 0 37 2q129 12 129 207l-2 602q0 97 172 97q167 0 170 -91z" />
    <glyph glyph-name="Uacute" unicode="&#xda;" horiz-adv-x="1421" 
d="M582 1403q-56 0 -62 24q-5 15 17 58l67 117q1 3 7 13.5t10 20.5q22 48 67 60q24 6 96 6q116 0 119 -35q0 -24 -100 -127q-6 -9 -16 -21.5t-26.5 -32.5t-27.5 -34q-43 -49 -151 -49zM1368 1214l10 -286q3 -34 0 -254q-3 -434 -272 -600q-170 -105 -389 -105
q-322 0 -504 221q-170 209 -170 537v86q-1 5 2 188q6 299 195 308q17 1 46.5 2t76 2.5t86.5 3.5q234 6 268 -45q19 -28 16 -119q0 -30 -10 -242q-6 -132 -6 -241q3 -282 145 -273q19 0 37 2q129 12 129 207l-2 602q0 97 172 97q167 0 170 -91z" />
    <glyph glyph-name="Ucircumflex" unicode="&#xdb;" horiz-adv-x="1421" 
d="M709 1593q-10 0 -37 -92q-10 -33 -17 -45q-9 -27 -26 -37q-20 -14 -107 -14q-75 0 -78 31q-3 27 21 73l90 170q46 88 154 88q107 0 153 -88l90 -170q25 -48 25 -63q0 -41 -82 -41q-79 0 -100 12q-29 16 -50 84q-27 92 -36 92zM1368 1214l10 -286q3 -34 0 -254
q-3 -434 -272 -600q-170 -105 -389 -105q-322 0 -504 221q-170 209 -170 537v86q-1 5 2 188q6 299 195 308q17 1 46.5 2t76 2.5t86.5 3.5q234 6 268 -45q19 -28 16 -119q0 -30 -10 -242q-6 -132 -6 -241q3 -282 145 -273q19 0 37 2q129 12 129 207l-2 602q0 97 172 97
q167 0 170 -91z" />
    <glyph glyph-name="Udieresis" unicode="&#xdc;" horiz-adv-x="1421" 
d="M528 1403q-143 0 -143 137q0 141 143 141q134 0 134 -145q0 -133 -134 -133zM905 1403q-143 0 -143 137q0 141 143 141q133 0 133 -145q0 -133 -133 -133zM1368 1214l10 -286q3 -34 0 -254q-3 -434 -272 -600q-170 -105 -389 -105q-322 0 -504 221q-170 209 -170 537v86
q-1 5 2 188q6 299 195 308q17 1 46.5 2t76 2.5t86.5 3.5q234 6 268 -45q19 -28 16 -119q0 -30 -10 -242q-6 -132 -6 -241q3 -282 145 -273q19 0 37 2q129 12 129 207l-2 602q0 97 172 97q167 0 170 -91z" />
    <glyph glyph-name="Yacute" unicode="&#xdd;" horiz-adv-x="1456" 
d="M424 217q-3 58 -6 176q-6 131 -33 166q-116 186 -246 412q-98 171 -98 246q0 91 264 100q62 3 109 0q91 -3 143 -23q60 -23 111 -96q77 -113 170 -235q15 -15 32 -15q14 0 25 8q47 50 100 150q88 168 101 178q28 22 84 25q235 9 235 -64q0 -127 -188 -444l-148 -246
q-15 -27 -12 -141l6 -191q3 -139 -72 -190q-50 -36 -202 -45q-22 -3 -60 0q-196 6 -280 84q-32 29 -35 145zM600 1403q-55 0 -61 24q-6 17 16 58l68 117q1 3 3 7l6 12t7 15q22 48 68 60q24 6 96 6q116 0 119 -35q0 -23 -101 -127q-7 -10 -69 -88q-43 -49 -152 -49z" />
    <glyph glyph-name="Thorn" unicode="&#xde;" horiz-adv-x="1437" 
d="M1077 887q0 100 -92 106l-33 2q-82 6 -123 -12q-56 -23 -53 -96q6 -122 158 -113q143 9 143 113zM776 371q0 -76 2 -123q3 -105 -24 -154q-47 -89 -244 -104q-27 -3 -133 0q-122 3 -152 10q-83 15 -129 70q-55 67 -55 575q0 852 39 926q19 43 78 65q90 36 415 45
q185 3 185 -174v-188q639 0 639 -434q0 -144 -51 -221q-81 -130 -345 -168l-86 -13q-12 -2 -23.5 -4t-21.5 -3.5t-14 -2.5q-40 -9 -53 -22q-27 -27 -27 -80z" />
    <glyph glyph-name="germandbls" unicode="&#xdf;" horiz-adv-x="2760" 
d="M694 -31q-221 -9 -418 66q-118 44 -202 119q-33 26 -33 82q0 30 8 61q46 126 107 129q48 0 100 -37q86 -63 137 -63q58 0 58 55q0 54 -95 104q-284 150 -293 373q-9 235 142 357.5t463 132.5q220 9 417 -66q120 -45 203 -119q33 -26 33 -82q0 -30 -8 -61
q-46 -126 -107 -129q-48 0 -100 37q-86 63 -137 63q-58 0 -58 -55t95 -105q283 -149 292 -372q9 -235 -141.5 -357.5t-462.5 -132.5zM2093 -31q-221 -9 -418 66q-118 44 -202 119q-33 26 -33 82q0 30 8 61q46 126 106 129q49 0 101 -37q86 -63 137 -63q57 0 57 55t-94 104
q-284 150 -293 373q-9 235 141.5 357.5t462.5 132.5q221 9 418 -66q120 -45 203 -119q33 -26 33 -82q0 -30 -8 -61q-46 -126 -107 -129q-48 0 -100 37q-86 63 -138 63q-57 0 -57 -55q0 -56 94 -105q284 -150 293 -372q9 -235 -141.5 -357.5t-462.5 -132.5z" />
    <glyph glyph-name="agrave" unicode="&#xe0;" horiz-adv-x="1335" 
d="M616 1163l54 2q111 3 190 -73q61 -58 201 -338q206 -415 227 -621q6 -55 -10 -78.5t-72 -42.5q-58 -19 -196 -22q-264 -3 -291 80l-29 82q-14 38 -59 38h-119q-27 3 -94 0q-49 -3 -70 -81q-15 -60 -35 -76q-22 -28 -84 -31q-183 -9 -186 78q-3 105 102 375
q108 279 205 458q71 133 117 179q68 68 149 71zM506 578q-27 0 -80 -170q-3 -13 10 -21q20 -14 72 -14q19 0 43 6q21 4 30.5 13t4.5 20q-61 166 -80 166zM588 1343q-5 6 -29 31.5t-43 46.5q-17 20 -14 35q0 26 53 29q18 2 47 2q63 0 84 -6q34 -9 64 -58l43 -80
q49 -79 43 -98q-6 -20 -58 -20h-43q-35 0 -65 24q-6 8 -17.5 21t-30.5 34.5t-34 38.5z" />
    <glyph glyph-name="aacute" unicode="&#xe1;" horiz-adv-x="1335" 
d="M616 1163l54 2q111 3 190 -73q61 -58 201 -338q206 -415 227 -621q6 -55 -10 -78.5t-72 -42.5q-58 -19 -196 -22q-264 -3 -291 80l-29 82q-14 38 -59 38h-119q-27 3 -94 0q-49 -3 -70 -81q-15 -60 -35 -76q-22 -28 -84 -31q-183 -9 -186 78q-3 105 102 375
q108 279 205 458q71 133 117 179q68 68 149 71zM506 578q-27 0 -80 -170q-3 -13 10 -21q20 -14 72 -14q19 0 43 6q21 4 30.5 13t4.5 20q-61 166 -80 166zM600 1225h-45q-50 0 -53 20q-6 14 12 51q48 78 74 131q22 45 59 54q21 6 84 6q102 0 105 -31q0 -13 -19 -35
q-22 -25 -70.5 -81t-62.5 -72q-43 -43 -84 -43z" />
    <glyph glyph-name="acircumflex" unicode="&#xe2;" horiz-adv-x="1335" 
d="M616 1163l54 2q111 3 190 -73q61 -58 201 -338q206 -415 227 -621q6 -55 -10 -78.5t-72 -42.5q-58 -19 -196 -22q-264 -3 -291 80l-29 82q-14 38 -59 38h-119q-27 3 -94 0q-49 -3 -70 -81q-15 -60 -35 -76q-22 -28 -84 -31q-183 -9 -186 78q-3 105 102 375
q108 279 205 458q71 133 117 179q68 68 149 71zM506 578q-27 0 -80 -170q-3 -13 10 -21q20 -14 72 -14q19 0 43 6q21 4 30.5 13t4.5 20q-61 166 -80 166zM666 1391q-9 0 -33 -80q-9 -36 -12 -41q-14 -32 -50 -41q-20 -4 -67 -4q-65 0 -68 26q-3 30 17 66l77 149
q41 78 136 78q92 0 133 -78l80 -149q25 -48 18 -64q-9 -28 -68 -28q-84 0 -108 30q-16 16 -37 109q-6 27 -18 27z" />
    <glyph glyph-name="atilde" unicode="&#xe3;" horiz-adv-x="1335" 
d="M616 1163l54 2q111 3 190 -73q61 -58 201 -338q206 -415 227 -621q6 -55 -10 -78.5t-72 -42.5q-58 -19 -196 -22q-264 -3 -291 80l-29 82q-14 38 -59 38h-119q-27 3 -94 0q-49 -3 -70 -81q-15 -60 -35 -76q-22 -28 -84 -31q-183 -9 -186 78q-3 105 102 375
q108 279 205 458q71 133 117 179q68 68 149 71zM506 578q-27 0 -80 -170q-3 -13 10 -21q20 -14 72 -14q19 0 43 6q21 4 30.5 13t4.5 20q-61 166 -80 166zM938 1430q0 -15 -2 -21q-15 -150 -137 -174q-33 -9 -66 -2q-29 5 -59 22.5t-42.5 28.5t-45.5 43q-6 3 -15 0
q-15 -3 -24 -49q-6 -44 -29 -51q-17 -3 -65 2q-67 9 -58 67q28 156 140 177q30 5 67 2q67 -9 119 -70q21 -27 43 -27q14 3 20 49q10 49 27 52q19 4 72 -2q55 -6 55 -47z" />
    <glyph glyph-name="adieresis" unicode="&#xe4;" horiz-adv-x="1335" 
d="M616 1163l54 2q111 3 190 -73q61 -58 201 -338q206 -415 227 -621q6 -55 -10 -78.5t-72 -42.5q-58 -19 -196 -22q-264 -3 -291 80l-29 82q-14 38 -59 38h-119q-27 3 -94 0q-49 -3 -70 -81q-15 -60 -35 -76q-22 -28 -84 -31q-183 -9 -186 78q-3 105 102 375
q108 279 205 458q71 133 117 179q68 68 149 71zM506 578q-27 0 -80 -170q-3 -13 10 -21q20 -14 72 -14q19 0 43 6q21 4 30.5 13t4.5 20q-61 166 -80 166zM508 1225q-127 0 -127 121q0 122 127 122q117 0 117 -127q0 -116 -117 -116zM838 1225q-127 0 -127 121q0 122 127 122
q116 0 116 -127q0 -116 -116 -116z" />
    <glyph glyph-name="aring" unicode="&#xe5;" horiz-adv-x="1335" 
d="M616 1163l54 2q111 3 190 -73q61 -58 201 -338q206 -415 227 -621q6 -55 -10 -78.5t-72 -42.5q-58 -19 -196 -22q-264 -3 -291 80l-29 82q-14 38 -59 38h-119q-27 3 -94 0q-49 -3 -70 -81q-15 -60 -35 -76q-22 -28 -84 -31q-183 -9 -186 78q-3 105 102 375
q108 279 205 458q71 133 117 179q68 68 149 71zM506 578q-27 0 -80 -170q-3 -13 10 -21q20 -14 72 -14q19 0 43 6q21 4 30.5 13t4.5 20q-61 166 -80 166zM674 1225q-174 0 -174 170q0 172 174 172q164 0 164 -178q0 -164 -164 -164zM737 1395q0 71 -67 71q-72 0 -72 -69
q0 -68 72 -68q67 0 67 66z" />
    <glyph glyph-name="ae" unicode="&#xe6;" horiz-adv-x="1789" 
d="M1667 303q59 9 74 -74q8 -36 8 -69q0 -112 -166 -142q-159 -28 -346 -28h-211q-116 0 -162 4q-117 12 -135 67q-5 17 -8 91q0 38 -51 38h-117q-30 3 -96 0q-45 -3 -88 -81q-29 -53 -58 -76q-36 -28 -90 -31q-64 -3 -110 6q-70 18 -58 72q8 46 92 192q66 114 111 183
q168 256 328 458q42 51 86 101q128 140 248 149l24 2q84 -3 141 -75q76 61 238 61q100 0 262 -33q77 -14 117 -37q49 -37 49 -104q0 -45 -16 -88q-21 -53 -64 -53q-21 0 -86 10t-86 10q-91 3 -115 -12q-34 -18 -34 -76q0 -66 96 -84q38 -5 149 -10q63 -3 60 -107
q0 -72 -33 -92q-21 -15 -115 -12q-98 3 -135 -29q-22 -22 -22 -61q0 -55 34 -76q23 -13 115 -10q55 0 170 16zM649 578q-26 0 -125 -170q-4 -8 -4 -13q0 -22 78 -22q46 0 67.5 9.5t20.5 29.5q-18 166 -37 166z" />
    <glyph glyph-name="ccedilla" unicode="&#xe7;" horiz-adv-x="1288" 
d="M672 -29h-33q-6 -45 -8 -71q0 -13 -4 -25q2 1 9 2.5t14.5 3.5t15.5 4q36 6 61 -2q93 -27 84 -125q-9 -125 -164 -131q-38 -3 -108 17q-29 12 -58 34q-15 12 -8 41q14 39 33 39q8 0 26 -12q29 -20 50 -20q17 0 20 16q8 38 -37 41q-44 3 -63 17t-15 40q5 23 23 125l6 19
q-231 38 -353 192.5t-122 398.5q0 282 161.5 441.5t444.5 159.5q209 0 369 -95q199 -117 223 -321q9 -68 -61 -92q-35 -12 -127 -21q-14 -2 -25 -2q-63 0 -72 62q-27 161 -157 143q-94 -12 -109 -199q-4 -70 -4 -76q0 -280 125 -280q78 0 113 53q11 25 41 101q21 52 84 49
q136 -3 174 -41q20 -23 20 -66q0 -15 -4 -43q-144 -377 -565 -377z" />
    <glyph glyph-name="egrave" unicode="&#xe8;" horiz-adv-x="1140" 
d="M543 1278q-13 17 -123 143q-19 23 -17 35q0 31 103 31q63 0 84 -6q42 -9 57 -54q27 -49 49 -84q44 -70 41 -98q-3 -20 -53 -20h-47q-47 0 -94 53zM1018 303q41 6 61.5 -29.5t20.5 -113.5q0 -112 -166 -142q-156 -28 -389 -28q-394 0 -455 76q-49 61 -49 354v143
q0 427 35 492q52 98 446 98q231 0 412 -35q84 -15 115 -37q51 -34 51 -104q0 -42 -17 -88q-21 -53 -61 -53q-25 0 -90 10t-86 10q-89 3 -113 -12q-33 -17 -33 -76q0 -66 95 -84q38 -5 149 -10q62 -3 62 -107q0 -71 -35 -92q-21 -15 -119 -12q-93 3 -133 -29q-19 -22 -19 -61
q0 -55 35 -76q19 -13 111 -10q54 0 172 16z" />
    <glyph glyph-name="eacute" unicode="&#xe9;" horiz-adv-x="1140" 
d="M504 1225h-47q-51 0 -54 20q-7 13 37 90l13.5 27t14.5 27.5t14 24.5t15.5 24t15.5 18.5t18.5 16t19.5 8.5q21 6 84 6q102 0 102 -31q0 -10 -86 -113q-25 -33 -63 -75q-43 -43 -84 -43zM1018 303q41 6 61.5 -29.5t20.5 -113.5q0 -112 -166 -142q-156 -28 -389 -28
q-394 0 -455 76q-49 61 -49 354v143q0 427 35 492q52 98 446 98q231 0 412 -35q84 -15 115 -37q51 -34 51 -104q0 -42 -17 -88q-21 -53 -61 -53q-25 0 -90 10t-86 10q-89 3 -113 -12q-33 -17 -33 -76q0 -66 95 -84q38 -5 149 -10q62 -3 62 -107q0 -71 -35 -92
q-21 -15 -119 -12q-93 3 -133 -29q-19 -22 -19 -61q0 -55 35 -76q19 -13 111 -10q54 0 172 16z" />
    <glyph glyph-name="ecircumflex" unicode="&#xea;" horiz-adv-x="1140" 
d="M569 1389q-8 0 -32 -80q-18 -61 -43 -74q-17 -10 -88 -10q-65 0 -68 26q-3 21 18 64l78 149q41 78 135 78q92 0 133 -78l78 -149q23 -48 23 -53q0 -37 -72 -37q-75 0 -92 10q-21 15 -39 74q-24 80 -31 80zM1018 303q41 6 61.5 -29.5t20.5 -113.5q0 -112 -166 -142
q-156 -28 -389 -28q-394 0 -455 76q-49 61 -49 354v143q0 427 35 492q52 98 446 98q231 0 412 -35q84 -15 115 -37q51 -34 51 -104q0 -42 -17 -88q-21 -53 -61 -53q-25 0 -90 10t-86 10q-89 3 -113 -12q-33 -17 -33 -76q0 -66 95 -84q38 -5 149 -10q62 -3 62 -107
q0 -71 -35 -92q-21 -15 -119 -12q-93 3 -133 -29q-19 -22 -19 -61q0 -55 35 -76q19 -13 111 -10q54 0 172 16z" />
    <glyph glyph-name="edieresis" unicode="&#xeb;" horiz-adv-x="1140" 
d="M412 1225q-125 0 -125 121q0 122 125 122q114 0 114 -127q0 -116 -114 -116zM739 1225q-125 0 -125 121q0 122 125 122q117 0 117 -127q0 -116 -117 -116zM1018 303q41 6 61.5 -29.5t20.5 -113.5q0 -112 -166 -142q-156 -28 -389 -28q-394 0 -455 76q-49 61 -49 354v143
q0 427 35 492q52 98 446 98q231 0 412 -35q84 -15 115 -37q51 -34 51 -104q0 -42 -17 -88q-21 -53 -61 -53q-25 0 -90 10t-86 10q-89 3 -113 -12q-33 -17 -33 -76q0 -66 95 -84q38 -5 149 -10q62 -3 62 -107q0 -71 -35 -92q-21 -15 -119 -12q-93 3 -133 -29q-19 -22 -19 -61
q0 -55 35 -76q19 -13 111 -10q54 0 172 16z" />
    <glyph glyph-name="igrave" unicode="&#xec;" horiz-adv-x="671" 
d="M313 1278q-5 5 -125 143q-16 19 -16 35q0 31 102 31q63 0 84 -6q36 -9 64 -58l43 -80q49 -73 43 -98q-6 -20 -57 -20h-45q-49 0 -93 53zM629 997l-8 -802q-3 -119 -62 -166q-44 -33 -176 -39h-53q-172 3 -246 71q-31 28 -37 265v272q0 154 -6 295q3 132 63 192
q71 68 256 68q44 0 99 -2q173 -3 170 -154z" />
    <glyph glyph-name="iacute" unicode="&#xed;" horiz-adv-x="671" 
d="M367 1278q-47 -53 -95 -53h-47q-50 0 -53 20q-4 25 35 92q9 16 26.5 45.5t26.5 44.5q22 46 59 54q21 6 84 6q102 0 105 -31q0 -13 -19 -35q-20 -20 -122 -143zM629 997l-8 -802q-3 -119 -62 -166q-44 -33 -176 -39h-53q-172 3 -246 71q-31 28 -37 265v272q0 142 -6 295
q3 132 63 192q71 68 256 68q44 0 99 -2q173 -3 170 -154z" />
    <glyph glyph-name="icircumflex" unicode="&#xee;" horiz-adv-x="671" 
d="M336 1391q-7 0 -31 -80q-18 -61 -45 -76q-20 -10 -86 -10q-65 0 -68 26q-3 27 17 66l80 149q41 78 133 78q94 0 135 -78l78 -149q26 -48 20 -64q-9 -28 -69 -28q-85 0 -107 32q-16 16 -37 107q-6 27 -20 27zM629 997l-8 -802q-3 -119 -62 -166q-44 -33 -176 -39h-53
q-172 3 -246 71q-31 28 -37 265v272q0 154 -6 295q3 132 63 192q71 68 256 68q44 0 99 -2q173 -3 170 -154z" />
    <glyph glyph-name="idieresis" unicode="&#xef;" horiz-adv-x="671" 
d="M180 1225q-127 0 -127 121q0 122 127 122q117 0 117 -127q0 -116 -117 -116zM510 1225q-125 0 -125 121q0 122 125 122q115 0 115 -127q0 -116 -115 -116zM629 997l-8 -802q-3 -119 -62 -166q-44 -33 -176 -39h-53q-172 3 -246 71q-31 28 -37 265v272q0 151 -6 295
q3 132 63 192q71 68 256 68q44 0 99 -2q173 -3 170 -154z" />
    <glyph glyph-name="eth" unicode="&#xf0;" horiz-adv-x="1325" 
d="M764 684h12q86 3 86 -115q0 -111 -90 -108h-8q4 -68 16 -133q6 -18 31 -21q134 -6 180 156q15 49 15 110q0 214 -152 258q-29 10 -43 7q-25 -3 -33 -17q0 -23 -6 -67zM166 461h-37q-88 -3 -88 108q0 118 88 115h37q3 351 31 399q40 70 419 70q434 0 601 -305
q67 -125 67 -275q0 -347 -291 -499q-162 -84 -381 -84q-365 0 -415 71q-28 42 -31 400z" />
    <glyph glyph-name="ntilde" unicode="&#xf1;" horiz-adv-x="1185" 
d="M1133 1026q12 -206 12 -606q0 -266 -15 -330q-9 -41 -28 -57q-47 -41 -107 -41h-123q-121 0 -204 80q-201 195 -289 266q-9 6 -14 6q-19 0 -19 -70v-75q0 -31 6 -90q6 -61 -27 -91t-98 -28l-69 2q-94 3 -103 141q-15 256 -12 457q3 442 66 508q55 58 172 55l131 -2
q101 -3 188 -100q128 -145 211 -232q18 -18 25 -18t10 16q0 36 -8 219q-2 57 29.5 86t95.5 29h63q98 0 107 -125zM809 1477q64 -9 55 -68q-28 -153 -139 -174q-33 -9 -66 -2q-29 5 -59 22.5t-42.5 28.5t-45.5 43q-6 3 -14 0q-16 -3 -25 -49q-6 -41 -29 -51q-14 -4 -63 2
q-68 9 -59 67q28 156 139 177q30 5 67 2q61 -8 119 -70q24 -27 43 -27q15 3 21 49q9 46 26 52q24 3 72 -2z" />
    <glyph glyph-name="ograve" unicode="&#xf2;" 
d="M1274 571q0 -281 -172 -440q-171 -160 -455 -160q-283 0 -444.5 159t-161.5 441q0 284 160.5 443.5t445.5 159.5q442 0 592 -377q35 -122 35 -226zM692 305q81 21 90 182q6 111 -16 209q-35 142 -125 148q-48 3 -75.5 -41.5t-33.5 -136.5q-2 -23 -2 -62q0 -185 91 -276
q32 -32 71 -23zM643 1270l-65 73q-5 6 -14 16t-26 29t-30 33q-19 22 -16 35q0 31 102 31q63 0 84 -6q40 -9 59 -54q1 -1 5.5 -10t16.5 -30t25 -44q45 -73 41 -98q-3 -20 -53 -20h-47q-37 0 -82 45z" />
    <glyph glyph-name="oacute" unicode="&#xf3;" 
d="M1274 571q0 -281 -172 -440q-171 -160 -455 -160q-283 0 -444.5 159t-161.5 441q0 284 160.5 443.5t445.5 159.5q442 0 592 -377q35 -122 35 -226zM692 305q81 21 90 182q6 111 -16 209q-35 142 -125 148q-48 3 -75.5 -41.5t-33.5 -136.5q-2 -23 -2 -62q0 -185 91 -276
q32 -32 71 -23zM592 1225h-47q-50 0 -53 20q-4 15 36 90l50 92q16 45 59 54q24 6 84 6q103 0 106 -31q0 -14 -18 -35l-70 -78q-22 -28 -61 -73t-86 -45z" />
    <glyph glyph-name="ocircumflex" unicode="&#xf4;" 
d="M1274 571q0 -281 -172 -440q-171 -160 -455 -160q-283 0 -444.5 159t-161.5 441q0 284 160.5 443.5t445.5 159.5q442 0 592 -377q35 -122 35 -226zM692 305q81 21 90 182q6 111 -16 209q-35 142 -125 148q-48 3 -75.5 -41.5t-33.5 -136.5q-2 -23 -2 -62q0 -185 91 -276
q32 -32 71 -23zM655 1391q-6 0 -30 -80q-18 -61 -41 -74q-21 -12 -90 -12q-65 0 -68 26q-3 22 18 66l78 149q41 78 133 78q95 0 136 -78l77 -149q23 -48 23 -53q0 -39 -72 -39q-68 0 -88 10q-25 16 -43 76q-24 80 -33 80z" />
    <glyph glyph-name="otilde" unicode="&#xf5;" 
d="M1274 571q0 -281 -172 -440q-171 -160 -455 -160q-283 0 -444.5 159t-161.5 441q0 284 160.5 443.5t445.5 159.5q442 0 592 -377q35 -122 35 -226zM692 305q81 21 90 182q6 111 -16 209q-35 142 -125 148q-48 3 -75.5 -41.5t-33.5 -136.5q-2 -23 -2 -62q0 -185 91 -276
q32 -32 71 -23zM928 1409q-3 -18 -29 -94q-41 -66 -108 -80q-37 -8 -66 -2q-22 3 -42 11t-42.5 25.5t-31 25.5t-34.5 32q-6 3 -14 0q-18 -3 -24 -49q-6 -42 -29 -49q-12 -6 -64 0q-68 9 -59 67q28 151 139 177q37 5 68 2q77 -9 119 -70q24 -27 45 -27q19 3 22 49q3 45 23 52
q24 3 65 0q44 -6 56.5 -22t5.5 -48z" />
    <glyph glyph-name="odieresis" unicode="&#xf6;" 
d="M1274 571q0 -281 -172 -440q-171 -160 -455 -160q-283 0 -444.5 159t-161.5 441q0 284 160.5 443.5t445.5 159.5q442 0 592 -377q35 -122 35 -226zM692 305q81 21 90 182q6 111 -16 209q-35 142 -125 148q-48 3 -75.5 -41.5t-33.5 -136.5q-2 -23 -2 -62q0 -185 91 -276
q32 -32 71 -23zM500 1225q-125 0 -125 121q0 122 125 122q114 0 114 -127q0 -116 -114 -116zM827 1225q-125 0 -125 121q0 122 125 122q117 0 117 -127q0 -116 -117 -116z" />
    <glyph glyph-name="divide" unicode="&#xf7;" horiz-adv-x="882" 
d="M143 449q-102 -3 -102 124q0 132 100 129q307 -3 600 0q101 3 101 -129q0 -127 -107 -124q-258 6 -592 0zM442 743q-153 0 -153 154t153 154q154 0 154 -154t-154 -154zM442 102q-153 0 -153 154t153 154q154 0 154 -154t-154 -154z" />
    <glyph glyph-name="oslash" unicode="&#xf8;" 
d="M332 -74q-19 -31 -56 -10q-39 20 -20 51l49 84q-50 30 -102 78q-162 155 -162 442q0 284 160.5 443.5t445.5 159.5q159 0 283 -48l55 99q15 27 55 6q34 -21 17 -53q-7 -13 -24.5 -42.5t-26.5 -45.5l4 -3q139 -70 229 -290q35 -122 35 -226q0 -281 -172 -440
q-171 -160 -455 -160q-151 0 -264 43q-4 -7 -11 -19t-18.5 -32t-21.5 -37zM641 844q-48 3 -75.5 -41.5t-33.5 -136.5q-9 -117 13 -203l184 319q-41 59 -88 62zM692 305q81 21 90 182q6 117 -12 197l-184 -315q51 -78 106 -64z" />
    <glyph glyph-name="ugrave" unicode="&#xf9;" horiz-adv-x="1249" 
d="M545 1343q-20 19 -72 78q-19 22 -16 35q0 31 102 31q63 0 84 -6q36 -9 64 -58l43 -80q47 -68 41 -98q-3 -20 -56 -20h-45q-35 0 -74 39q-2 4 -71 79zM1206 811q3 -47 0 -223q-3 -200 -82 -355q-63 -128 -209 -200q-127 -62 -286 -62q-282 0 -439 195q-146 181 -149 467
v76q0 69 2 165q3 260 170 269q112 6 182 8q201 3 234 -41q17 -24 14 -102q0 -83 -8 -211q-6 -132 -6 -213q3 -236 127 -236h32q113 12 113 180l-2 527q0 84 150 84q146 0 149 -78q0 -13 3 -99.5t5 -150.5z" />
    <glyph glyph-name="uacute" unicode="&#xfa;" horiz-adv-x="1249" 
d="M657 1288l-8 -10q-44 -53 -92 -53h-47q-50 0 -53 20q-7 13 37 90l15.5 31t17 32.5t16 27t18.5 26t19.5 17.5t23.5 12q21 6 84 6q65 0 88 -10q12 -9 15 -21q0 -17 -60 -86q-13 -14 -37.5 -41.5t-36.5 -40.5zM1206 811q3 -47 0 -223q-3 -200 -82 -355q-63 -128 -209 -200
q-127 -62 -286 -62q-282 0 -439 195q-146 181 -149 467v76q0 69 2 165q3 260 170 269q112 6 182 8q201 3 234 -41q17 -24 14 -102q0 -83 -8 -211q-6 -132 -6 -213q3 -236 127 -236h32q113 12 113 180l-2 527q0 84 150 84q146 0 149 -78q0 -13 3 -99.5t5 -150.5z" />
    <glyph glyph-name="ucircumflex" unicode="&#xfb;" horiz-adv-x="1249" 
d="M623 1391q-9 0 -33 -80q-8 -30 -37 -74q-21 -12 -94 -12q-65 0 -68 26q-3 21 19 66l77 149q41 78 136 78q92 0 133 -78l80 -149q20 -47 20 -53q0 -39 -72 -39q-69 0 -90 12q-20 11 -41 74q-24 77 -30 80zM1206 811q3 -47 0 -223q-3 -200 -82 -355q-63 -128 -209 -200
q-127 -62 -286 -62q-282 0 -439 195q-146 181 -149 467v76q0 69 2 165q3 260 170 269q112 6 182 8q201 3 234 -41q17 -24 14 -102q0 -83 -8 -211q-6 -132 -6 -213q3 -236 127 -236h32q113 12 113 180l-2 527q0 84 150 84q146 0 149 -78q0 -13 3 -99.5t5 -150.5z" />
    <glyph glyph-name="udieresis" unicode="&#xfc;" horiz-adv-x="1249" 
d="M465 1225q-125 0 -125 121q0 122 125 122q115 0 115 -127q0 -116 -115 -116zM793 1225q-125 0 -125 121q0 122 125 122q116 0 116 -127q0 -116 -116 -116zM1206 811q3 -47 0 -223q-3 -200 -82 -355q-63 -128 -209 -200q-127 -62 -286 -62q-282 0 -439 195
q-146 181 -149 467v76q0 69 2 165q3 260 170 269q112 6 182 8q201 3 234 -41q17 -24 14 -102q0 -83 -8 -211q-6 -132 -6 -213q3 -236 127 -236h32q113 12 113 180l-2 527q0 84 150 84q146 0 149 -78q0 -13 3 -99.5t5 -150.5z" />
    <glyph glyph-name="yacute" unicode="&#xfd;" horiz-adv-x="1280" 
d="M377 188q0 51 -6 156q-3 101 -29 145q-77 118 -215 359q-86 151 -86 215q0 79 231 88q54 3 95 0q75 -3 125 -21q50 -23 133 -133q16 -22 53.5 -75t58.5 -82q16 -13 29 -13q10 0 20 7q43 48 88 131q74 145 89 155q20 20 73 23q203 9 203 -56q0 -54 -45 -159
q-35 -84 -246 -443q-15 -27 -12 -123l6 -167q3 -120 -61 -166q-47 -33 -179 -39h-53q-107 3 -194 37q-50 26 -66 63q-9 24 -12 98zM575 1225h-47q-50 0 -53 20q-3 10 88 182q15 45 60 54q24 6 84 6q102 0 102 -31q0 -10 -86 -113q-21 -28 -64 -75q-43 -43 -84 -43z" />
    <glyph glyph-name="thorn" unicode="&#xfe;" horiz-adv-x="1265" 
d="M946 774q0 86 -82 92l-26 2q-68 6 -107 -10q-53 -21 -47 -84q0 -107 137 -98q125 9 125 98zM684 324v-107q0 -96 -20 -135q-41 -80 -213 -92q-27 -3 -117 0q-36 0 -131 10q-76 15 -113 61q-49 58 -49 502q0 742 35 807q20 39 67 57q79 32 363 41q160 3 160 -153v-162
q559 0 559 -381q0 -163 -90 -244q-82 -72 -254 -96l-76 -10q-47 -7 -51 -8q-38 -9 -47 -21q-23 -26 -23 -69z" />
    <glyph glyph-name="ydieresis" unicode="&#xff;" horiz-adv-x="1280" 
d="M948 512q-15 -30 -12 -123l6 -229q2 -79 -52.5 -121.5t-166.5 -46.5q-13 0 -21 -2h-49q-161 0 -235 71q-20 17 -23 125v97q3 187 -28 235q-129 150 -240 342q-86 151 -86 215q0 80 231 86q60 3 95 0q85 -5 129 -10q30 -9 92 -92q4 -5 11 -15.5l19 -28.5t23 -34l47 -80
q17 -32 74 -96q15 -12 33 -12q56 0 129 137q25 52 53 112q42 85 59 95q18 13 68 16q135 9 135 -55q0 -53 -45 -158q-75 -177 -176 -330q-4 -6 -70 -98zM492 1260q-132 0 -132 124q-3 136 132 136q124 0 124 -136q0 -124 -124 -124zM846 1260q-131 0 -131 124q-3 136 131 136
q129 0 129 -136q0 -124 -129 -124z" />
    <glyph glyph-name="dotlessi" unicode="&#x131;" horiz-adv-x="579" 
d="M426 1153h20q93 0 93 -88v-21q-2 -10 -2 -38l-7 -400q0 -64 -27 -88t-97 -29h-41q-100 3 -138 41q-15 15 -18 70q-2 18 -2 119v141q0 64 -17 64q-4 0 -34 -14.5t-37 -14.5q-50 0 -68 70q-9 35 39 71q64 49 152 101q23 13 139 16h45z" />
    <glyph glyph-name="Lslash" unicode="&#x141;" horiz-adv-x="1392" 
d="M225 227l-86 -77q-32 -28 -65 8q-33 35 -2 63l143 131q-6 129 -6 316q0 243 8 399q9 166 139 221q73 29 406 29q96 0 137 -72q29 -56 29 -160v-84l135 125q26 26 59 -10q23 -26 17 -43q-3 -11 -15 -20l-198 -183v-286v-78q0 -30 12 -141q24 -34 129 -31q27 0 98 6
q61 6 97 6q45 0 69 -53q21 -47 21 -111q0 -67 -62 -108q-38 -24 -125 -45q-172 -41 -417 -41q-148 0 -271 8q-136 9 -209 76q-28 25 -43 155z" />
    <glyph glyph-name="lslash" unicode="&#x142;" horiz-adv-x="1226" 
d="M203 201l-76 -70q-28 -28 -57 4q-28 35 -2 58l127 114q-7 133 -7 275q0 -1098 -5 5l-1 187q0 131 25 211q29 104 110 139q65 27 353 27q145 0 145 -203v-74l119 109q22 25 53 -10q18 -21 12 -35q-3 -12 -12 -18l-174 -160v-320q0 -24 12 -123q21 -27 111 -24q5 0 16 0.5
t31.5 1.5t38.5 2q70 4 86 4q78 0 78 -141q0 -62 -53 -97q-27 -18 -109 -36q-154 -37 -367 -37q-153 0 -219 4q-140 15 -198 67q-25 22 -37 140z" />
    <glyph glyph-name="OE" unicode="&#x152;" horiz-adv-x="2156" 
d="M2021 348q68 9 86 -86q9 -43 9 -80q0 -124 -189 -162q-157 -32 -446 -32q-158 0 -199 8q-111 21 -168 96q-164 -123 -377 -123q-325 0 -512 181q-184 181 -184 505q0 327 184 508q186 183 512 183q216 0 375 -117q65 62 160 80q62 10 182 10q276 0 473 -37
q189 -35 189 -162q0 -162 -91 -162q-21 0 -100 11q-65 12 -98 12q-101 3 -131 -14q-39 -20 -39 -86q0 -88 104 -97q95 -9 176 -12q73 -3 70 -121q0 -83 -39 -106q-29 -18 -133 -15q-119 3 -154 -32q-24 -24 -24 -70q0 -62 41 -86q30 -17 129 -14q71 0 194 20zM786 350
q96 21 105 207q8 118 -21 242q-41 165 -143 168q-56 2 -86.5 -49.5t-36.5 -155.5q-15 -281 103 -387q37 -34 79 -25z" />
    <glyph glyph-name="oe" unicode="&#x153;" horiz-adv-x="1892" 
d="M1769 303q61 9 76 -74q6 -35 6 -69q0 -112 -163 -142q-156 -28 -390 -28q-133 0 -174 8q-92 15 -147 82q-139 -109 -330 -109q-283 0 -444.5 159t-161.5 441q0 284 160.5 443.5t445.5 159.5q191 0 328 -101q55 55 139 70q62 10 160 10q233 0 414 -35q74 -14 114 -37
q49 -37 49 -104q0 -45 -16 -88q-21 -53 -61 -53q-23 0 -88 10t-87 10q-88 3 -112 -12q-35 -21 -35 -76q0 -66 96 -84q37 -5 150 -10q62 -3 59 -107q0 -71 -35 -92q-18 -12 -116 -12q-96 0 -133 -29q-21 -21 -21 -61q0 -55 37 -76q19 -13 110 -10q48 0 170 16zM692 305
q81 21 90 182q6 111 -16 209q-35 142 -125 148q-48 3 -75.5 -41.5t-33.5 -136.5q-2 -23 -2 -62q0 -185 91 -276q32 -32 71 -23z" />
    <glyph glyph-name="Scaron" unicode="&#x160;" horiz-adv-x="1361" 
d="M694 -31q-221 -9 -418 66q-118 44 -202 119q-33 26 -33 82q0 30 8 61q46 126 107 129q48 0 100 -37q86 -63 137 -63q58 0 58 55q0 54 -95 104q-284 150 -293 373q-9 235 142 357.5t463 132.5q220 9 417 -66q120 -45 203 -119q33 -26 33 -82q0 -30 -8 -61
q-46 -126 -107 -129q-48 0 -100 37q-86 63 -137 63q-58 0 -58 -55t95 -105q283 -149 292 -372q9 -235 -141.5 -357.5t-462.5 -132.5zM680 1577q10 0 37 92q11 37 16 45q14 38 55 47q20 4 78 4q82 0 82 -41q0 -16 -24 -63l-90 -170q-46 -88 -154 -88t-154 88l-90 170
q-23 45 -20 76q3 28 78 28q79 0 100 -12q28 -15 49 -84q27 -92 37 -92z" />
    <glyph glyph-name="scaron" unicode="&#x161;" horiz-adv-x="1200" 
d="M612 -29q-200 -3 -366 60q-98 36 -176 102q-29 29 -29 72q0 26 6 53q43 110 94 113q40 0 88 -31q76 -55 119 -55q49 0 49 47q0 49 -82 92q-247 131 -256 326q-15 411 529 426q189 9 364 -58q101 -37 178 -102q29 -26 29 -72q0 -29 -8 -53q-40 -112 -92 -115q-41 0 -88 35
q-76 55 -121 55q-49 0 -49 -49t82 -92q247 -128 256 -324q8 -206 -124 -313.5t-403 -116.5zM598 1376q12 0 33 80q12 36 14 39q12 34 49 43q16 4 68 4q72 0 72 -37q0 -11 -23 -55l-78 -150q-40 -75 -135 -75q-93 0 -133 75l-80 150q-20 38 -16 66q3 26 67 26q71 0 86 -12
q27 -15 45 -74q21 -80 31 -80z" />
    <glyph glyph-name="Ydieresis" unicode="&#x178;" horiz-adv-x="1456" 
d="M424 217q-3 58 -6 176q-6 131 -33 166q-116 186 -246 412q-98 171 -98 246q0 91 264 100q62 3 109 0q91 -3 143 -23q60 -23 111 -96q77 -113 170 -235q15 -15 32 -15q14 0 25 8q47 50 100 150q88 168 101 178q28 22 84 25q235 9 235 -64q0 -127 -188 -444l-148 -246
q-15 -27 -12 -141l6 -191q3 -139 -72 -190q-50 -36 -202 -45q-22 -3 -60 0q-196 6 -280 84q-32 29 -35 145zM547 1403q-144 0 -144 137q0 141 144 141q133 0 133 -145q0 -133 -133 -133zM924 1403q-144 0 -144 137q0 141 144 141q133 0 133 -145q0 -133 -133 -133z" />
    <glyph glyph-name="Zcaron" unicode="&#x17d;" horiz-adv-x="1294" 
d="M645 -10l-336 2q-268 21 -268 112v115q0 95 207 414t207 332q0 10 -11 14q-24 6 -53 6q-39 0 -110 -12q-77 -12 -111 -15q-75 -3 -102 52q-19 43 -19 123q3 119 129 157q115 32 471 29l336 -2q268 -21 268 -113v-114q0 -99 -206 -416q-207 -319 -207 -330t10 -14
q24 -6 53 -6q41 0 111 12q63 10 110 14q77 3 103 -51q18 -41 18 -123q-3 -121 -129 -158q-111 -31 -471 -28zM645 1577q10 0 37 92q11 37 16 45q14 38 56 47q20 4 77 4q82 0 82 -41q0 -16 -24 -63l-90 -170q-46 -88 -154 -88q-107 0 -153 88l-91 170q-23 45 -20 76
q3 28 78 28q79 0 100 -12q28 -15 49 -84q27 -92 37 -92z" />
    <glyph glyph-name="zcaron" unicode="&#x17e;" horiz-adv-x="1140" 
d="M569 -10q-237 3 -407 18q-121 12 -121 84v98q0 89 180 363t180 289q0 9 -8 12q-21 6 -49 6t-96 -10q-50 -8 -94 -14q-54 -5 -80.5 33t-26.5 120q0 102 115 137q113 30 411 27q239 -3 406 -18q121 -12 121 -84v-99q0 -85 -182 -362q-181 -275 -181 -291q0 -6 11 -10
q21 -6 49 -6q26 0 98 10q63 9 92 12q67 3 90 -45q17 -39 17 -106q-3 -130 -217 -160q-60 -7 -308 -4zM569 1376q10 0 31 80q15 60 43 76q20 10 88 10q72 0 72 -37q0 -7 -23 -55l-78 -150q-40 -75 -133 -75q-95 0 -135 75l-78 150q-21 44 -18 66q3 26 68 26q68 0 88 -10
q28 -16 43 -76q21 -80 32 -80z" />
    <glyph glyph-name="florin" unicode="&#x192;" horiz-adv-x="1388" 
d="M352 573h-65q-103 0 -103 125q0 132 101 129q55 0 108 -2q77 361 279 463q107 55 346 55q90 0 260 -6q71 -3 68 -125q-3 -186 -76 -192l-49 -4q-80 -6 -107 -180q0 -7 -2 -11q29 0 66 2q100 3 100 -129q0 -125 -107 -125h-96q-1 -10 -11.5 -77.5t-19.5 -130.5l-18 -123
q-5 -36 -12 -76q-71 -450 -297 -563q-112 -56 -346 -56q-62 0 -260 7q-71 3 -68 124q3 187 76 193l49 4q82 6 106 180q18 123 29 189l23 141q9 79 26 188z" />
    <glyph glyph-name="circumflex" unicode="&#x2c6;" horiz-adv-x="618" 
d="M309 1591q-10 0 -37 -92q-11 -37 -16 -45q-9 -26 -27 -37q-20 -14 -106 -14q-75 0 -78 31q-3 27 21 73l90 170q46 88 153 88q108 0 154 -88l90 -170q25 -48 25 -63q0 -41 -82 -41q-80 0 -101 12q-28 15 -49 84q-27 92 -37 92z" />
    <glyph glyph-name="caron" unicode="&#x2c7;" horiz-adv-x="618" 
d="M309 1575q10 0 37 92q11 37 16 45q14 38 56 47q20 4 78 4q82 0 82 -41q0 -15 -25 -63l-90 -170q-46 -88 -154 -88q-107 0 -153 88l-90 170q-24 47 -21 76q3 28 78 28q79 0 100 -12q28 -15 49 -84q27 -92 37 -92z" />
    <glyph glyph-name="breve" unicode="&#x2d8;" horiz-adv-x="468" 
d="M313 1595q0 21 17 21h86q12 0 12 -21q0 -192 -186 -192q-201 0 -201 192q0 21 14 21h88q13 0 13 -21q0 -75 82 -75q75 0 75 75z" />
    <glyph glyph-name="dotaccent" unicode="&#x2d9;" horiz-adv-x="358" 
d="M184 1403q-143 0 -143 137q0 141 143 141q133 0 133 -145q0 -133 -133 -133z" />
    <glyph glyph-name="ring" unicode="&#x2da;" horiz-adv-x="468" 
d="M242 1403q-201 0 -201 192q0 199 201 199q186 0 186 -205q0 -186 -186 -186zM313 1595q0 82 -75 82q-82 0 -82 -80q0 -77 82 -77q75 0 75 75z" />
    <glyph glyph-name="ogonek" unicode="&#x2db;" horiz-adv-x="481" 
d="M246 10h82q47 0 53 -33q4 -21 -41 -83q-46 -69 -55 -105q-8 -37 7.5 -63.5t49.5 -26.5q8 0 29 10t28 10q21 -3 39 -43q2 -6 2 -16q0 -46 -78 -70q-58 -21 -114 -18q-207 6 -207 195q0 81 61 163q65 80 144 80z" />
    <glyph glyph-name="tilde" unicode="&#x2dc;" horiz-adv-x="724" 
d="M608 1690q76 -9 64 -78q-40 -228 -234 -201q-71 9 -137 78q-28 32 -49 29q-20 -3 -29 -56q-6 -52 -24 -55q-22 -6 -82 0q-75 9 -66 78q24 171 160 198q43 8 76 5q78 -9 137 -80q10 -13 33 -29q6 -2 16 -2q21 3 27 59q3 47 26 54q24 6 82 0z" />
    <glyph glyph-name="hungarumlaut" unicode="&#x2dd;" horiz-adv-x="833" 
d="M471 1403q-55 0 -61 24q-6 17 16 58l68 117q1 3 3 7l6 12t7 15q22 48 68 60q24 6 96 6q116 0 119 -35q0 -23 -101 -127q-7 -10 -69 -88q-43 -49 -152 -49zM109 1403q-56 0 -62 24q-6 17 16 58l68 117q1 3 3 7l6 12t7 15q22 48 68 60q24 6 96 6q116 0 119 -35
q0 -24 -100 -127q-6 -9 -16 -21.5t-26.5 -32.5t-27.5 -34q-43 -49 -151 -49z" />
    <glyph glyph-name="endash" unicode="&#x2013;" horiz-adv-x="1024" 
d="M143 418q-102 -3 -102 155q0 165 100 162q254 -4 371 -4t371 4q100 3 100 -162q0 -158 -106 -155q-336 6 -734 0z" />
    <glyph glyph-name="emdash" unicode="&#x2014;" horiz-adv-x="1208" 
d="M143 418q-102 -3 -102 155q0 165 100 162q469 -6 926 0q100 3 100 -162q0 -158 -106 -155q-411 9 -918 0z" />
    <glyph glyph-name="quoteleft" unicode="&#x2018;" horiz-adv-x="442" 
d="M260 1632q100 0 115 -47q6 -19 -6 -72q-15 -59 -15 -75q0 -63 31 -142q16 -32 16 -57q0 -76 -139 -106q-57 -11 -78 -11q-143 0 -143 162q0 102 61 248q24 60 56.5 80t101.5 20z" />
    <glyph glyph-name="quoteright" unicode="&#x2019;" horiz-adv-x="442" 
d="M182 1092q-102 0 -114 47q-6 20 6 71q14 55 14 76q0 62 -31 141q-16 32 -16 58q0 88 164 112q40 5 53 5q143 0 143 -162q0 -102 -61 -248q-24 -60 -56.5 -80t-101.5 -20z" />
    <glyph glyph-name="quotesinglbase" unicode="&#x201a;" horiz-adv-x="442" 
d="M182 -172q-102 0 -114 47q-6 20 6 72q14 55 14 76q0 62 -31 141q-16 32 -16 57q0 89 164 113q32 4 53 4q143 0 143 -162q0 -102 -61 -248q-24 -60 -56.5 -80t-101.5 -20z" />
    <glyph glyph-name="quotedblleft" unicode="&#x201c;" horiz-adv-x="870" 
d="M688 1632q100 0 115 -47q6 -19 -6 -72q-15 -59 -15 -75q0 -63 31 -142q16 -32 16 -57q0 -76 -139 -106q-57 -11 -78 -11q-143 0 -143 162q0 102 61 248q24 60 56.5 80t101.5 20zM260 1632q100 0 115 -47q6 -19 -6 -72q-15 -59 -15 -75q0 -63 31 -142q16 -32 16 -57
q0 -76 -139 -106q-57 -11 -78 -11q-143 0 -143 162q0 102 61 248q24 60 56.5 80t101.5 20z" />
    <glyph glyph-name="quotedblright" unicode="&#x201d;" horiz-adv-x="870" 
d="M182 1092q-102 0 -114 47q-6 20 6 71q14 55 14 76q0 62 -31 141q-16 32 -16 58q0 88 164 112q40 5 53 5q143 0 143 -162q0 -102 -61 -248q-24 -60 -56.5 -80t-101.5 -20zM610 1092q-102 0 -114 47q-6 20 6 71q14 55 14 76q0 62 -31 141q-16 32 -16 58q0 88 164 112
q40 5 53 5q143 0 143 -162q0 -102 -61 -248q-24 -60 -56.5 -80t-101.5 -20z" />
    <glyph glyph-name="quotedblbase" unicode="&#x201e;" horiz-adv-x="870" 
d="M182 -172q-102 0 -114 47q-6 20 6 72q14 55 14 76q0 62 -31 141q-16 32 -16 57q0 89 164 113q32 4 53 4q143 0 143 -162q0 -102 -61 -248q-24 -60 -56.5 -80t-101.5 -20zM610 -172q-102 0 -114 47q-6 20 6 72q14 55 14 76q0 62 -31 141q-16 32 -16 57q0 89 164 113
q32 4 53 4q143 0 143 -162q0 -102 -61 -248q-24 -60 -56.5 -80t-101.5 -20z" />
    <glyph glyph-name="dagger" unicode="&#x2020;" horiz-adv-x="759" 
d="M225 842h-82q-102 -3 -102 125q0 132 100 129q43 0 82 -2q0 41 -2 104q-3 121 162 121q164 0 158 -133q-2 -31 -2 -92q28 0 79 2q101 3 101 -129q0 -125 -107 -125h-77q-3 -360 6 -729q3 -125 -158 -125q-165 0 -162 118q7 365 4 736z" />
    <glyph glyph-name="daggerdbl" unicode="&#x2021;" horiz-adv-x="759" 
d="M225 514h-82q-102 -3 -102 125q0 132 100 129q43 0 84 -2v78h-82q-102 -3 -102 125q0 132 100 129q43 0 82 -2q0 39 -2 102q-3 121 162 121q164 0 158 -133q-2 -31 -2 -90q28 0 79 2q101 3 101 -129q0 -125 -107 -125h-77v-78q32 0 83 2q101 3 101 -129q0 -125 -107 -125
h-77q3 -113 6 -401q3 -125 -158 -125q-165 0 -162 118q4 250 4 408z" />
    <glyph glyph-name="bullet" unicode="&#x2022;" horiz-adv-x="696" 
d="M348 264q-307 0 -307 307q0 308 307 308t307 -308q0 -307 -307 -307z" />
    <glyph glyph-name="ellipsis" unicode="&#x2026;" horiz-adv-x="1515" 
d="M256 -31q-215 0 -215 205q0 213 215 213q201 0 201 -217q0 -201 -201 -201zM766 -31q-215 0 -215 205q0 213 215 213q201 0 201 -217q0 -201 -201 -201zM1274 -31q-215 0 -215 205q0 213 215 213q201 0 201 -217q0 -201 -201 -201z" />
    <glyph glyph-name="perthousand" unicode="&#x2030;" horiz-adv-x="2383" 
d="M774 1114l4 -12q16 -57 19 -109q22 38 75 128.5t82 140.5q73 141 289 106q229 -40 154 -170q-92 -148 -242 -410q61 21 137 21q247 0 336 -195q21 40 49 76q101 119 281 119q284 0 360 -258l4 -12q21 -64 21 -146q0 -185 -98 -295q-105 -114 -287 -114q-183 0 -281 116
q-35 44 -47 72q-14 -26 -51 -74q-105 -114 -287 -114t-280 116q-86 103 -92 269q-109 -197 -166 -306q-59 -117 -281 -102q-246 6 -151 191q6 11 94.5 170t136.5 245q-59 -20 -139 -20q-182 0 -281 117q-92 109 -92 294q0 183 92 295q101 119 281 119q284 0 360 -258z
M1989 205q59 15 65 127q3 75 -16 149q-24 104 -88 107q-67 3 -76 -123q-2 -14 -2 -43q0 -143 67 -201q22 -19 50 -16zM444 768q60 15 66 127q3 75 -16 149q-24 104 -88 107q-67 3 -76 -123q-2 -14 -2 -43q0 -143 67 -201q22 -19 49 -16zM1323 205q60 15 66 127q3 71 -17 149
q-24 104 -88 107q-67 3 -76 -123q-2 -14 -2 -43q0 -142 68 -201q22 -19 49 -16z" />
    <glyph glyph-name="guilsinglleft" unicode="&#x2039;" horiz-adv-x="776" 
d="M705 272q30 -30 30 -65q0 -45 -51 -96q-50 -50 -94 -50q-35 0 -70 35q-169 177 -446 447q-33 33 -33 75q0 43 31 74q174 171 452 453q31 31 66 31q44 0 94 -50q51 -48 51 -94q0 -37 -37 -71q-45 -43 -342 -343q56 -57 349 -346z" />
    <glyph glyph-name="guilsinglright" unicode="&#x203a;" horiz-adv-x="776" 
d="M72 272l176 172q86 86 172 174q-185 188 -342 343q-37 37 -37 71q0 45 49 94q53 50 96 50q35 0 66 -31q252 -257 453 -453q30 -30 30 -74q0 -42 -33 -75q-243 -235 -446 -447q-35 -35 -70 -35q-43 0 -96 50q-49 52 -49 96q0 34 31 65z" />
    <glyph glyph-name="fraction" unicode="&#x2044;" horiz-adv-x="841" 
d="M473 53q-21 -84 -225 -84q-207 0 -189 78q130 573 328 1223q24 80 231 80q183 0 183 -72q0 -5 -4 -21q-170 -545 -324 -1204z" />
    <glyph glyph-name="Euro" unicode="&#x20ac;" horiz-adv-x="1576" 
d="M162 518h-80q-41 0 -41 49t39 49h74v43q0 42 2 62h-74q-41 0 -41 49t39 49h86q44 263 233 400q182 129 451 129q232 0 420 -111q229 -133 256 -367q9 -79 -70 -106q-19 -8 -145 -23q-96 -12 -111 70q-30 185 -180 164q-90 -12 -117 -156h88q39 0 39 -49t-43 -49h-94
q-2 -27 -2 -62v-43h100q39 0 39 -49q0 -26 -10.5 -38t-32.5 -11h-86q27 -180 133 -180q127 0 154 123q21 113 119 110q108 -3 143 -16q78 -28 78 -106q0 -23 -6 -50q-163 -430 -645 -430q-295 0 -476 129q-198 137 -239 420z" />
    <glyph glyph-name="trademark" unicode="&#x2122;" horiz-adv-x="1482" 
d="M193 1110q0 35 -39 35l-52 -2q-61 -3 -61 88q0 69 102 78q181 13 336 10q115 -3 183 -25q34 -12 34 -53q0 -79 -37 -94q-13 -8 -47 -8q-14 0 -24 2h-25q-49 0 -49 -51l-2 -318q0 -66 -30 -90t-107 -29h-31q-96 3 -139 43q-16 16 -19 72q-2 40 7 342zM727 1153
q30 166 123 166h22q53 0 89 -45l61 -76q9 -12 16 -10q6 0 72 78q44 53 111 53h34q101 0 131 -166q40 -201 52 -414q3 -51 -33 -71q-32 -18 -82 -15l-66 2q-61 3 -83 19q-38 27 -50 174q-3 45 -12 45q-4 0 -72 -86q-25 -31 -47 -31q-28 0 -104 107q-3 6 -8 6q-10 0 -13 -31
l-12 -133q-6 -71 -96 -68q-77 3 -74 103q6 202 41 393z" />
    <glyph glyph-name="integral" unicode="&#x222b;" horiz-adv-x="1388" 
d="M1278 1337q71 -3 68 -125q-3 -186 -76 -192l-49 -4q-83 -6 -107 -180l-88 -594q-5 -36 -12 -76q-71 -450 -297 -563q-112 -56 -346 -56q-62 0 -260 7q-71 3 -68 124q3 187 76 193l49 4q82 6 106 180q1 8 5.5 36t11 68.5t12.5 84.5l43 284q3 16 7 43.5t10 72t12 81.5
q64 448 297 563q110 55 346 55q90 0 260 -6z" />
    <glyph glyph-name="_1" horiz-adv-x="81" 
 />
    <glyph glyph-name="CR" horiz-adv-x="81" 
 />
    <glyph glyph-name="NULL" horiz-adv-x="81" 
 />
    </font>
</defs>
</svg>
