<?xml version="1.0" encoding="UTF-8" standalone="no"?>
<!-- Created with Inkscape (http://www.inkscape.org/) -->

<svg
   xmlns:dc="http://purl.org/dc/elements/1.1/"
   xmlns:cc="http://creativecommons.org/ns#"
   xmlns:rdf="http://www.w3.org/1999/02/22-rdf-syntax-ns#"
   xmlns:svg="http://www.w3.org/2000/svg"
   xmlns="http://www.w3.org/2000/svg"
   xmlns:sodipodi="http://sodipodi.sourceforge.net/DTD/sodipodi-0.dtd"
   xmlns:inkscape="http://www.inkscape.org/namespaces/inkscape"
   version="1.1"
   id="svg3713"
   xml:space="preserve"
   width="161.98"
   height="113.38667"
   viewBox="0 0 161.98 113.38667"
   sodipodi:docname="yt_logo_mono_dark.svg"
   inkscape:version="0.92.4 (5da689c313, 2019-01-14)"><metadata
     id="metadata3719"><rdf:RDF><cc:Work
         rdf:about=""><dc:format>image/svg+xml</dc:format><dc:type
           rdf:resource="http://purl.org/dc/dcmitype/StillImage" /><dc:title></dc:title></cc:Work></rdf:RDF></metadata><defs
     id="defs3717"><clipPath
       clipPathUnits="userSpaceOnUse"
       id="clipPath3729"><path
         d="M 0,255.118 H 550.024 V 0 H 0 Z"
         id="path3727"
         inkscape:connector-curvature="0" /></clipPath></defs><sodipodi:namedview
     pagecolor="#ffffff"
     bordercolor="#666666"
     borderopacity="1"
     objecttolerance="10"
     gridtolerance="10"
     guidetolerance="10"
     inkscape:pageopacity="0"
     inkscape:pageshadow="2"
     inkscape:window-width="1920"
     inkscape:window-height="1137"
     id="namedview3715"
     showgrid="false"
     fit-margin-top="0"
     fit-margin-left="0"
     fit-margin-right="0"
     fit-margin-bottom="0"
     inkscape:zoom="2.4067131"
     inkscape:cx="339.34803"
     inkscape:cy="-63.483154"
     inkscape:window-x="-8"
     inkscape:window-y="-8"
     inkscape:window-maximized="1"
     inkscape:current-layer="g3721" /><g
     id="g3721"
     inkscape:groupmode="layer"
     inkscape:label="yt_logo_mono_dark"
     transform="matrix(1.3333333,0,0,-1.3333333,-0.96196398,340.20471)"><g
       id="g3731"
       transform="translate(49.315473,194.41054)"
       style="fill:#ffffff"><path
         d="M 0,0 V 36.446 L 31.562,18.223 Z m 70.353,47.464 c -1.398,5.226 -5.514,9.343 -10.741,10.74 -9.474,2.539 -47.464,2.539 -47.464,2.539 0,0 -37.989,0 -47.463,-2.539 -5.227,-1.397 -9.343,-5.514 -10.74,-10.74 -2.539,-9.474 -2.539,-29.241 -2.539,-29.241 0,0 0,-19.767 2.539,-29.241 1.397,-5.226 5.513,-9.343 10.74,-10.74 9.474,-2.539 47.463,-2.539 47.463,-2.539 0,0 37.99,0 47.464,2.539 5.227,1.397 9.343,5.514 10.741,10.74 2.538,9.474 2.538,29.241 2.538,29.241 0,0 0,19.767 -2.538,29.241"
         style="fill:#ffffff;fill-opacity:1;fill-rule:nonzero;stroke:none"
         id="path3733"
         inkscape:connector-curvature="0" /></g></g></svg>